<svg width="40" height="40" viewBox="0 0 40 40" fill="none" xmlns="http://www.w3.org/2000/svg">
<g filter="url(#filter0_d_1_17867)">
<path d="M18.1212 0C17.1686 0 16.3939 0.741 16.3939 1.65217V1.68928C11.8521 2.05524 8.01678 5.26967 7.10998 9.56615C7.04607 9.80241 6.99608 10.0676 6.96154 10.3567C6.93995 10.427 6.90867 10.5334 6.89744 10.6698C6.84303 11.2877 6.6923 12.1182 6.44876 13.1367C6.4194 13.2606 6.3879 13.3823 6.35768 13.5062C8.07888 12.5446 10.1163 12.3913 11.2122 12.3913C14.1442 12.3913 16.7736 13.0546 17.3807 13.219H20.5872C21.1926 13.053 23.784 12.3929 26.7574 12.3929C27.628 12.3929 29.7993 12.5156 31.6423 13.5788L31.5327 13.1867C31.2822 12.1492 31.1275 11.3026 31.0722 10.6681C31.061 10.5434 31.034 10.4434 31.0081 10.3584C30.9736 10.0717 30.9251 9.81042 30.8698 9.61133C29.9543 5.27272 26.1184 2.05524 21.5757 1.68928V1.65217C21.5757 0.741 20.801 0 19.8484 0H18.1212ZM18.1212 1.65217H19.8484V13.2174H18.1212V1.65217ZM14.7409 4.95814C15.0767 4.98563 15.3774 5.20142 15.4881 5.52607C15.6358 5.95894 15.3891 6.42383 14.9383 6.56675C14.8441 6.59731 12.8293 7.27428 12.0235 9.37254C11.8948 9.7071 11.5637 9.91304 11.2122 9.91304C11.1129 9.91304 11.0121 9.89611 10.9136 9.86141C10.4663 9.70446 10.2376 9.23011 10.4025 8.80138C11.5054 5.92824 14.281 5.03321 14.3985 4.99686C14.5125 4.96134 14.629 4.94897 14.7409 4.95814ZM11.2274 14.0435C9.80758 14.0435 6.40302 14.334 5.44007 17.0155C5.44007 17.0155 3.51155 21.0878 3.03137 22.1204C1.47253 25.471 0.000249193 28.6342 0.000249193 30.5491C-0.00493256 30.8233 0.0608513 31.7982 1.14556 32.8531C2.10937 33.7899 4.37226 34.6773 7.36299 35.3233C8.1463 34.5459 9.18516 33.3217 9.52543 32.0173C9.64202 31.5745 10.1109 31.3065 10.5729 31.4155C11.0358 31.5262 11.3152 31.9747 11.2004 32.4175C10.842 33.7871 9.93697 35.0325 9.11048 35.9428C10.2522 37.3241 13.5099 38 19 38C24.7759 38 28.0032 37.2929 29.0059 35.7944C28.5102 35.1154 27.9438 34.2029 27.6683 33.2661C27.5396 32.8275 27.8068 32.372 28.2654 32.248C28.7231 32.125 29.2002 32.3806 29.3298 32.8192C29.5914 33.7081 30.2653 34.678 30.7601 35.2926C33.6878 34.6491 35.9028 33.7767 36.8527 32.8531C37.9383 31.799 38.0049 30.8213 37.9998 30.5636C37.9998 28.6339 36.5283 25.471 34.9703 22.122C34.4893 21.0894 32.5684 17.0364 32.5684 17.0364C31.4819 14.26 27.8565 14.0451 26.7726 14.0451C23.699 14.0451 21.0087 14.8258 20.982 14.8341L20.7272 14.8712L17.0231 14.8696C16.9955 14.8613 14.238 14.0435 11.2274 14.0435ZM13.2633 15.6957C15.7462 15.6957 18.1364 17.3478 18.1364 17.3478V20.8732C18.3886 20.7361 18.6748 20.6522 18.9848 20.6522C19.307 20.6522 19.6054 20.7423 19.8636 20.8894V17.3478C19.8636 17.3478 22.2538 15.6957 24.7367 15.6957C27.3664 15.6957 28.4999 18.0707 28.4999 19.8261C28.4999 19.898 28.4849 19.9617 28.4746 20.0278C28.3683 21.8642 26.8729 25.4923 26.6967 25.9153C26.5611 26.2374 26.2358 26.4348 25.8938 26.4348C25.7867 26.4348 25.6787 26.4163 25.5733 26.3767C25.1303 26.2073 24.9147 25.7259 25.0909 25.3021C25.413 24.5314 26.0931 22.7778 26.4774 21.3685C25.7226 21.4982 25.0454 21.4783 25.0454 21.4783H20.4725C20.622 21.722 20.7121 22.002 20.7121 22.3043V29.7391H19.8484V24.7826H18.1212V29.7391H17.2576V22.3043C17.2576 22.002 17.3494 21.722 17.4971 21.4783H12.9546C12.9546 21.4783 12.2574 21.4976 11.4905 21.3621C11.874 22.7722 12.5557 24.5297 12.8787 25.3021C13.0558 25.7259 12.8402 26.2073 12.3963 26.3767C12.2918 26.4163 12.1829 26.4348 12.0758 26.4348C11.733 26.4348 11.4085 26.2374 11.2729 25.9153C11.0898 25.4766 9.48494 21.5865 9.48494 19.8261C9.48494 19.7947 9.49918 19.7679 9.5035 19.7373C9.53977 17.9918 10.6767 15.6957 13.2633 15.6957ZM15.5303 25.7733V29.7391H12.9394L15.5303 25.7733ZM22.4393 25.7733L25.0302 29.7391H22.4393V25.7733ZM23.2692 28.9147C23.2804 28.9312 23.2917 28.9465 23.3029 28.9631V28.9147H23.2692Z" fill="url(#paint0_linear_1_17867)"/>
</g>
<defs>
<filter id="filter0_d_1_17867" x="0" y="0" width="40" height="40" filterUnits="userSpaceOnUse" color-interpolation-filters="sRGB">
<feFlood flood-opacity="0" result="BackgroundImageFix"/>
<feColorMatrix in="SourceAlpha" type="matrix" values="0 0 0 0 0 0 0 0 0 0 0 0 0 0 0 0 0 0 127 0" result="hardAlpha"/>
<feOffset dx="2" dy="2"/>
<feComposite in2="hardAlpha" operator="out"/>
<feColorMatrix type="matrix" values="0 0 0 0 0.0352941 0 0 0 0 0.454902 0 0 0 0 0.972549 0 0 0 0.2 0"/>
<feBlend mode="normal" in2="BackgroundImageFix" result="effect1_dropShadow_1_17867"/>
<feBlend mode="normal" in="SourceGraphic" in2="effect1_dropShadow_1_17867" result="shape"/>
</filter>
<linearGradient id="paint0_linear_1_17867" x1="19" y1="7.48485" x2="19" y2="28.7879" gradientUnits="userSpaceOnUse">
<stop stop-color="#E1F0FF"/>
<stop offset="1" stop-color="#C9E9FB"/>
</linearGradient>
</defs>
</svg>
