<svg width="40" height="40" viewBox="0 0 40 40" fill="none" xmlns="http://www.w3.org/2000/svg">
<path d="M39.0374 0.000211809C38.4879 -0.00943968 37.7522 0.310085 36.9668 1.09536L26.2276 11.8346C26.2276 11.834 26.2278 11.8334 26.2279 11.8327L21.0837 16.9768L21.0846 16.9777L19.9976 18.0647L19.9967 18.0639L18.0615 19.9991L18.0624 20L16.9999 21.0625L16.999 21.0616L14.3612 23.6995C14.3612 23.6999 14.3613 23.7003 14.3615 23.7007L9.60786 28.4543L11.5405 30.3869L38.8994 3.02796C40.5075 1.42009 40.1627 0.0200274 39.0375 0.000297337L39.0374 0.000211809ZM0.957567 0.00533661C-0.167814 0.0251521 -0.512619 1.42513 1.09542 3.03317L16.9744 18.9122L18.9097 16.9768L15.1376 13.205C15.1376 13.2067 15.1376 13.2082 15.1374 13.2099L3.02794 1.10057C2.24284 0.315209 1.5071 -0.00422947 0.957567 0.00533661ZM20.9898 3.11346C20.1948 6.71269 19.9116 9.88778 18.6049 13.487C16.757 12.0444 15.9894 9.945 14.8608 8.07074C14.9109 9.00001 15.0026 9.97165 15.0675 10.9609L19.9966 15.89L26.7001 9.18647C26.8136 8.58133 26.9297 7.9767 27.0484 7.37258C25.2317 9.83209 23.4226 11.1888 20.9504 13.6482C20.3737 9.76897 20.9742 6.99267 20.9897 3.11354L20.9898 3.11346ZM5.64008 12.7078C5.63564 12.7081 5.63324 12.7093 5.63307 12.7116C5.61104 13.16 14.5523 19.4041 13.8515 19.8501C12.7015 20.5803 8.8998 22.5072 6.71899 23.6862C8.40331 23.4005 11.2917 23.0087 12.884 23.0028L15.9121 19.9747L10.4752 14.5381C8.1668 13.6655 5.78485 12.6959 5.64008 12.7077V12.7078ZM26.5781 17.5031L24.0938 19.9874L28.8917 24.785C29.8183 24.8478 30.7445 24.9059 31.6676 24.889C29.5735 23.531 25.5188 21.1536 25.5487 20.5699C25.5789 19.9817 30.9678 18.7578 33.707 17.8704C31.3337 17.6879 28.9263 18.1989 26.5781 17.5031ZM23.0068 21.0744L21.0717 23.0094L28.4544 30.3922L30.387 28.4596L26.5885 24.661H26.5936L23.0069 21.0744H23.0068ZM20.009 24.0721L15.0805 29.0006C15.1154 30.2141 15.0984 31.4309 15.0361 32.4495C16.0031 30.1571 16.5604 28.0201 18.9502 26.0887C20.1839 27.1124 21.0698 29.528 22.1296 31.2476C22.0519 29.6211 21.5426 26.806 21.7 25.7629L20.0088 24.0721L20.009 24.0721ZM7.67517 28.4543L6.58823 29.5413L10.4536 33.4067L11.5405 32.3195L7.67543 28.4543H7.67517ZM32.3196 28.4595L28.4544 32.3246V32.3248L29.5414 33.4118L33.4069 29.5464L32.3196 28.4596V28.4595ZM6.16536 31.0514L5.31978 31.8969L8.09796 34.675L8.94353 33.8294L6.16536 31.0513V31.0514ZM33.8295 31.0565L31.0513 33.8347L31.8969 34.6802L34.675 31.9021L33.8295 31.0565ZM4.23275 32.984L0.00522977 37.2114L2.78349 39.9896L3.68911 39.0839L4.60557 40L6.12991 38.4756L5.21362 37.5595L7.01084 35.7621L6.16527 34.9166L2.84362 38.2382L1.75651 37.1511L5.07816 33.8294L4.23258 32.9839L4.23275 32.984ZM35.7624 32.9892L34.9168 33.8347L38.2384 37.1564L37.1512 38.2435L33.8295 34.9219L32.9841 35.7674L37.2115 39.9948L39.9896 37.2165L39.0839 36.3109L40.0001 35.3944L38.4756 33.8701L37.5595 34.7864L35.7622 32.9892H35.7624Z" fill="url(#paint0_linear_27_2568)"/>
<defs>
<linearGradient id="paint0_linear_27_2568" x1="20" y1="8.53399" x2="20" y2="29.7461" gradientUnits="userSpaceOnUse">
<stop stop-color="#E1F0FF"/>
<stop offset="1" stop-color="#C9E9FB"/>
</linearGradient>
</defs>
</svg>
