<svg width="1856" height="118" viewBox="0 0 1856 118" fill="none" xmlns="http://www.w3.org/2000/svg">
<path opacity="0.7" d="M804 22.5L815.906 9.64118C816.285 9.23239 816.817 9 817.374 9H974.626C975.183 9 975.715 9.23239 976.094 9.64118L988 22.5M804 22.5L768.5 58M804 22.5L733.086 93.4142C732.711 93.7893 732.202 94 731.672 94H718.874C718.317 94 717.785 94.2324 717.406 94.6412L706.094 106.859C705.715 107.268 705.183 107.5 704.626 107.5H547.374C546.817 107.5 546.285 107.268 545.906 106.859L534.594 94.6412C534.215 94.2324 533.683 94 533.126 94H520.328C519.798 94 519.289 93.7893 518.914 93.4142L448 22.5L436.094 9.64118C435.715 9.23239 435.183 9 434.626 9H277.374C276.817 9 276.285 9.23239 275.906 9.64118L264 22.5L191.586 94.9142C191.211 95.2893 190.702 95.5 190.172 95.5H178.874C178.317 95.5 177.785 95.7324 177.406 96.1412L166.094 108.359C165.715 108.768 165.183 109 164.626 109C103.215 109 68.7847 109 7.37384 109M988 22.5L1058.91 93.4142C1059.29 93.7893 1059.8 94 1060.33 94H1073.13C1073.68 94 1074.22 94.2324 1074.59 94.6412L1085.91 106.859C1086.28 107.268 1086.82 107.5 1087.37 107.5H1244.63C1245.18 107.5 1245.72 107.268 1246.09 106.859L1257.41 94.6412C1257.78 94.2324 1258.32 94 1258.87 94H1271.67C1272.2 94 1272.71 93.7893 1273.09 93.4142L1344 22.5L1355.91 9.64118C1356.28 9.23239 1356.82 9 1357.37 9H1514.63C1515.18 9 1515.72 9.23239 1516.09 9.64118L1528 22.5L1600.41 94.9142C1600.79 95.2893 1601.3 95.5 1601.83 95.5H1613.13C1613.68 95.5 1614.22 95.7324 1614.59 96.1412L1625.91 108.359C1626.28 108.768 1626.82 109 1627.37 109H1784.63C1785.18 109 1785.72 108.768 1786.09 108.359L1797.41 96.1412C1797.78 95.7324 1798.32 95.5 1798.87 95.5H1810.17C1810.7 95.5 1811.21 95.2893 1811.59 94.9142L1884 22.5M988 22.5L1023.5 58" stroke="url(#paint0_linear_49_2)" stroke-width="3"/>
<g opacity="0.5" filter="url(#filter0_f_49_2)">
<path d="M804 22.5L815.906 9.64118C816.285 9.23239 816.817 9 817.374 9H974.626C975.183 9 975.715 9.23239 976.094 9.64118L988 22.5M804 22.5L768.5 58M804 22.5L733.086 93.4142C732.711 93.7893 732.202 94 731.672 94H718.874C718.317 94 717.785 94.2324 717.406 94.6412L706.094 106.859C705.715 107.268 705.183 107.5 704.626 107.5H547.374C546.817 107.5 546.285 107.268 545.906 106.859L534.594 94.6412C534.215 94.2324 533.683 94 533.126 94H520.328C519.798 94 519.289 93.7893 518.914 93.4142L448 22.5L436.094 9.64118C435.715 9.23239 435.183 9 434.626 9H277.374C276.817 9 276.285 9.23239 275.906 9.64118L264 22.5L191.586 94.9142C191.211 95.2893 190.702 95.5 190.172 95.5H178.874C178.317 95.5 177.785 95.7324 177.406 96.1412L166.094 108.359C165.715 108.768 165.183 109 164.626 109C103.215 109 68.7847 109 7.37384 109M988 22.5L1058.91 93.4142C1059.29 93.7893 1059.8 94 1060.33 94H1073.13C1073.68 94 1074.22 94.2324 1074.59 94.6412L1085.91 106.859C1086.28 107.268 1086.82 107.5 1087.37 107.5H1244.63C1245.18 107.5 1245.72 107.268 1246.09 106.859L1257.41 94.6412C1257.78 94.2324 1258.32 94 1258.87 94H1271.67C1272.2 94 1272.71 93.7893 1273.09 93.4142L1344 22.5L1355.91 9.64118C1356.28 9.23239 1356.82 9 1357.37 9H1514.63C1515.18 9 1515.72 9.23239 1516.09 9.64118L1528 22.5L1600.41 94.9142C1600.79 95.2893 1601.3 95.5 1601.83 95.5H1613.13C1613.68 95.5 1614.22 95.7324 1614.59 96.1412L1625.91 108.359C1626.28 108.768 1626.82 109 1627.37 109H1784.63C1785.18 109 1785.72 108.768 1786.09 108.359L1797.41 96.1412C1797.78 95.7324 1798.32 95.5 1798.87 95.5H1810.17C1810.7 95.5 1811.21 95.2893 1811.59 94.9142L1884 22.5M988 22.5L1023.5 58" stroke="url(#paint1_linear_49_2)" stroke-width="3"/>
</g>
<defs>
<filter id="filter0_f_49_2" x="0.37384" y="0.5" width="1891.69" height="117" filterUnits="userSpaceOnUse" color-interpolation-filters="sRGB">
<feFlood flood-opacity="0" result="BackgroundImageFix"/>
<feBlend mode="normal" in="SourceGraphic" in2="BackgroundImageFix" result="shape"/>
<feGaussianBlur stdDeviation="3.5" result="effect1_foregroundBlur_49_2"/>
</filter>
<linearGradient id="paint0_linear_49_2" x1="7.37384" y1="59" x2="1884" y2="59" gradientUnits="userSpaceOnUse">
<stop stop-color="#19C2EF" stop-opacity="0"/>
<stop offset="0.1" stop-color="#16B6EE"/>
<stop offset="0.9" stop-color="#0A79EA" stop-opacity="0.6"/>
<stop offset="1" stop-color="#076CE9" stop-opacity="0.8"/>
</linearGradient>
<linearGradient id="paint1_linear_49_2" x1="7.37384" y1="59" x2="1884" y2="59" gradientUnits="userSpaceOnUse">
<stop stop-color="#19C2EF" stop-opacity="0"/>
<stop offset="0.1" stop-color="#16B6EE"/>
<stop offset="0.9" stop-color="#0A79EA" stop-opacity="0.6"/>
<stop offset="1" stop-color="#076CE9" stop-opacity="0.8"/>
</linearGradient>
</defs>
</svg>
