<svg width="21" height="28" viewBox="0 0 21 28" fill="none" xmlns="http://www.w3.org/2000/svg">
<path d="M1.38135 0.818752C1.16595 0.931913 0.985534 1.10175 0.859587 1.30994C0.73364 1.51813 0.66694 1.75676 0.666686 2.00009L0.666687 26.0001C0.66769 26.243 0.734882 26.481 0.861038 26.6885C0.987193 26.8961 1.16754 27.0653 1.38268 27.178C1.59782 27.2907 1.83961 27.3426 2.08206 27.3282C2.32451 27.3138 2.55844 27.2335 2.75869 27.0961L20.092 15.0961C20.2697 14.9738 20.4149 14.8101 20.5153 14.6192C20.6156 14.4282 20.6681 14.2158 20.6681 14.0001C20.6681 13.7844 20.6156 13.5719 20.5153 13.381C20.4149 13.1901 20.2697 13.0264 20.092 12.9041L2.75869 0.904085C2.55885 0.765303 2.32478 0.683966 2.08195 0.66892C1.83911 0.653877 1.59679 0.7057 1.38135 0.818752ZM16.9907 14.0001L3.33335 23.4561L3.33335 4.54409L16.9907 14.0001Z" fill="url(#paint0_linear_1_10230)"/>
<defs>
<linearGradient id="paint0_linear_1_10230" x1="0.666686" y1="13.9985" x2="20.6681" y2="13.9985" gradientUnits="userSpaceOnUse">
<stop stop-color="#0974F8"/>
<stop offset="1" stop-color="#4FB2FE"/>
</linearGradient>
</defs>
</svg>
