<svg width="120" height="80" viewBox="0 0 120 80" fill="none" xmlns="http://www.w3.org/2000/svg">
<ellipse opacity="0.55" cx="60.1305" cy="40" rx="40.4514" ry="40" fill="url(#paint0_radial_1_11174)"/>
<path d="M89.649 40C89.6525 43.189 89.1266 46.357 88.0923 49.3776L85.7128 48.5798C84.3754 52.4487 82.1618 55.9643 79.241 58.8583C76.3202 61.7523 72.7694 63.9482 68.8595 65.2785L69.6716 67.6305C63.4845 69.7088 56.7765 69.7088 50.5895 67.6305L51.4013 65.2783C47.4915 63.9482 43.9408 61.7523 41.02 58.8584C38.0993 55.9645 35.8858 52.4489 34.5484 48.5801L32.1687 49.378C30.0929 43.2945 30.0929 36.7056 32.1687 30.6221L34.5484 31.4199C35.8887 27.5422 38.1092 24.0195 41.0395 21.1218C43.9699 18.2242 47.5323 16.0285 51.4538 14.7031L50.6471 12.3501C56.7991 10.2977 63.4622 10.2977 69.6142 12.3502L68.8075 14.7034C72.7289 16.0288 76.2914 18.2245 79.2217 21.1221C82.1521 24.0198 84.3725 27.5425 85.7128 31.4202L88.0923 30.6224C89.1266 33.643 89.6525 36.811 89.649 40ZM60.1304 14.2388C54.9778 14.2389 49.941 15.7497 45.6568 18.5804C41.3726 21.4111 38.0335 25.4344 36.0617 30.1416C34.0899 34.8489 33.574 40.0286 34.5792 45.0257C35.5844 50.0229 38.0656 54.6131 41.709 58.2158C45.3524 61.8186 49.9944 64.2721 55.048 65.2661C60.1015 66.2601 65.3397 65.7499 70.1 63.8001C74.8604 61.8503 78.9291 58.5485 81.7917 54.3121C84.6543 50.0757 86.1823 45.0951 86.1823 40C86.1745 33.1701 83.4272 26.6221 78.5432 21.7926C73.6593 16.9631 67.0374 14.2465 60.1304 14.2388Z" fill="url(#paint1_linear_1_11174)"/>
<path d="M19.2425 50.742C20.5798 54.6108 22.7934 58.1263 25.7141 61.0203L26.4031 60.3777C22.7597 56.7749 20.2785 52.1847 19.2733 47.1876C18.2681 42.1904 18.784 37.0107 20.7558 32.3035C22.7276 27.5963 26.0667 23.5729 30.3509 20.7423L28.4253 20.5403L25.7336 23.2837C22.8033 26.1814 20.5828 29.7041 19.2425 33.5817L16.8628 32.7839C14.7869 38.8674 14.7869 45.4564 16.8628 51.5398L19.2425 50.742Z" fill="#19C2EF" fill-opacity="0.3"/>
<path d="M2.86063 49.0792C3.83244 51.7655 5.44095 54.2066 7.56338 56.2161L8.06407 55.7699C5.4165 53.2682 3.61348 50.0809 2.88301 46.6111C2.15255 43.1412 2.52744 39.5446 3.9603 36.276C5.39315 33.0074 7.8196 30.2138 10.9328 28.2482L9.53351 28.108L7.57755 30.0129C5.44813 32.025 3.83459 34.471 2.86063 37.1636L1.13134 36.6096C-0.377114 40.8338 -0.377114 45.4089 1.13134 49.6331L2.86063 49.0792Z" fill="#19C2EF" fill-opacity="0.15"/>
<path d="M100.757 50.742C99.4201 54.6108 97.2066 58.1263 94.2858 61.0203L93.5968 60.3777C97.2402 56.7749 99.7214 52.1847 100.727 47.1876C101.732 42.1904 101.216 37.0107 99.2441 32.3035C97.2723 27.5963 93.9332 23.5729 89.649 20.7423L91.5747 20.5403L94.2663 23.2837C97.1967 26.1814 99.4171 29.7041 100.757 33.5817L103.137 32.7839C105.213 38.8674 105.213 45.4564 103.137 51.5398L100.757 50.742Z" fill="#19C2EF" fill-opacity="0.3"/>
<path d="M117.139 49.0792C116.168 51.7655 114.559 54.2066 112.437 56.2161L111.936 55.7699C114.584 53.2682 116.387 50.0809 117.117 46.6111C117.847 43.1412 117.473 39.5446 116.04 36.276C114.607 33.0074 112.18 30.2138 109.067 28.2482L110.466 28.108L112.422 30.0129C114.552 32.025 116.165 34.471 117.139 37.1636L118.869 36.6096C120.377 40.8338 120.377 45.4089 118.869 49.6331L117.139 49.0792Z" fill="#19C2EF" fill-opacity="0.15"/>
<g clip-path="url(#clip0_1_11174)">
<mask id="path-7-inside-1_1_11174" fill="white">
<path fill-rule="evenodd" clip-rule="evenodd" d="M59.0066 27.297C59.0066 27.297 59.0066 27.297 59.0066 27.297L50.5259 31.9792L55.1366 34.6266C56.2811 33.3227 57.9154 32.5047 59.7313 32.5047C61.5471 32.5047 63.1814 33.3227 64.3259 34.6266L68.9367 31.9792L60.4559 27.297C60.0018 27.0463 59.4607 27.0463 59.0066 27.297ZM70.7117 34.7421L65.8213 37.5501C65.9419 38.065 66.0058 38.603 66.0058 39.1557C66.0058 42.255 64.0062 44.859 61.2999 45.5973V51.329L69.8902 46.3966C70.3964 46.106 70.7117 45.5448 70.7117 44.9345V34.7421ZM70.6373 47.8587L71.3844 49.3207C72.903 48.4488 73.8489 46.7652 73.8489 44.9345V31.9504C73.8489 31.3305 73.5236 30.762 73.0049 30.4757L61.9051 24.3476L61.1805 25.8223L61.9051 24.3475C60.5428 23.5954 58.9198 23.5954 57.5574 24.3475L57.5574 24.3476L46.4576 30.4757C45.939 30.762 45.6136 31.3305 45.6136 31.9504V44.9345C45.6136 46.7653 46.5596 48.4488 48.0781 49.3207L48.0782 49.3207L58.9842 55.5827C59.4502 55.8503 60.0123 55.8503 60.4784 55.5827L71.3844 49.3207L70.6373 47.8587ZM58.1626 51.329V45.5973C55.4564 44.859 53.4568 42.255 53.4568 39.1557C53.4568 38.603 53.5207 38.065 53.6412 37.5501L48.7509 34.7421V44.9345C48.7509 45.5448 49.0662 46.106 49.5724 46.3966L58.1626 51.329ZM56.9713 37.5727C56.731 38.0418 56.594 38.5794 56.594 39.1557C56.594 40.9925 57.9985 42.4813 59.7313 42.4813C61.464 42.4813 62.8685 40.9925 62.8685 39.1557C62.8685 38.5794 62.7315 38.0418 62.4913 37.5726C61.9579 36.5312 60.9206 35.8302 59.7313 35.8302C58.5419 35.8302 57.5046 36.5312 56.9713 37.5727Z"/>
</mask>
<path fill-rule="evenodd" clip-rule="evenodd" d="M59.0066 27.297C59.0066 27.297 59.0066 27.297 59.0066 27.297L50.5259 31.9792L55.1366 34.6266C56.2811 33.3227 57.9154 32.5047 59.7313 32.5047C61.5471 32.5047 63.1814 33.3227 64.3259 34.6266L68.9367 31.9792L60.4559 27.297C60.0018 27.0463 59.4607 27.0463 59.0066 27.297ZM70.7117 34.7421L65.8213 37.5501C65.9419 38.065 66.0058 38.603 66.0058 39.1557C66.0058 42.255 64.0062 44.859 61.2999 45.5973V51.329L69.8902 46.3966C70.3964 46.106 70.7117 45.5448 70.7117 44.9345V34.7421ZM70.6373 47.8587L71.3844 49.3207C72.903 48.4488 73.8489 46.7652 73.8489 44.9345V31.9504C73.8489 31.3305 73.5236 30.762 73.0049 30.4757L61.9051 24.3476L61.1805 25.8223L61.9051 24.3475C60.5428 23.5954 58.9198 23.5954 57.5574 24.3475L57.5574 24.3476L46.4576 30.4757C45.939 30.762 45.6136 31.3305 45.6136 31.9504V44.9345C45.6136 46.7653 46.5596 48.4488 48.0781 49.3207L48.0782 49.3207L58.9842 55.5827C59.4502 55.8503 60.0123 55.8503 60.4784 55.5827L71.3844 49.3207L70.6373 47.8587ZM58.1626 51.329V45.5973C55.4564 44.859 53.4568 42.255 53.4568 39.1557C53.4568 38.603 53.5207 38.065 53.6412 37.5501L48.7509 34.7421V44.9345C48.7509 45.5448 49.0662 46.106 49.5724 46.3966L58.1626 51.329ZM56.9713 37.5727C56.731 38.0418 56.594 38.5794 56.594 39.1557C56.594 40.9925 57.9985 42.4813 59.7313 42.4813C61.464 42.4813 62.8685 40.9925 62.8685 39.1557C62.8685 38.5794 62.7315 38.0418 62.4913 37.5726C61.9579 36.5312 60.9206 35.8302 59.7313 35.8302C58.5419 35.8302 57.5046 36.5312 56.9713 37.5727Z" fill="url(#paint2_linear_1_11174)"/>
<path d="M59.0066 27.297L58.5383 26.4135L58.5308 26.4175L58.5233 26.4216L59.0066 27.297ZM59.0066 27.297L59.4749 28.1806L59.4825 28.1766L59.4899 28.1725L59.0066 27.297ZM50.5259 31.9792L50.0425 31.1038L48.4878 31.9621L50.0279 32.8464L50.5259 31.9792ZM55.1366 34.6266L54.6387 35.4938L55.3483 35.9013L55.8882 35.2863L55.1366 34.6266ZM64.3259 34.6266L63.5744 35.2863L64.1142 35.9013L64.8239 35.4938L64.3259 34.6266ZM68.9367 31.9792L69.4346 32.8464L70.9747 31.9621L69.42 31.1038L68.9367 31.9792ZM60.4559 27.297L60.9392 26.4216L60.9392 26.4216L60.4559 27.297ZM65.8213 37.5501L65.3234 36.6829L64.678 37.0534L64.8476 37.778L65.8213 37.5501ZM70.7117 34.7421H71.7117V33.0148L70.2137 33.8749L70.7117 34.7421ZM61.2999 45.5973L61.0367 44.6326L60.2999 44.8336V45.5973H61.2999ZM61.2999 51.329H60.2999V53.0563L61.7978 52.1962L61.2999 51.329ZM69.8902 46.3966L70.3881 47.2638L70.3881 47.2638L69.8902 46.3966ZM70.6373 47.8587L71.5278 47.4036L69.7468 48.3137L70.6373 47.8587ZM71.3844 49.3207L70.494 49.7758L70.9718 50.7108L71.8824 50.1879L71.3844 49.3207ZM73.0049 30.4757L72.5216 31.3511L73.0049 30.4757ZM61.9051 24.3476L62.3885 23.4721L61.4702 22.9651L61.0076 23.9066L61.9051 24.3476ZM61.9051 24.3475L62.8026 24.7885L63.223 23.9329L62.3884 23.4721L61.9051 24.3475ZM57.5574 24.3475L57.0741 23.4721L57.0647 23.4773L57.5574 24.3475ZM57.5574 24.3476L58.0408 25.223L58.0501 25.2178L57.5574 24.3476ZM46.4576 30.4757L46.941 31.3511H46.941L46.4576 30.4757ZM48.0781 49.3207L47.5802 50.1879L47.5903 50.1937L47.6005 50.1993L48.0781 49.3207ZM48.0782 49.3207L48.5761 48.4535L48.566 48.4477L48.5558 48.4422L48.0782 49.3207ZM58.9842 55.5827L59.4821 54.7155H59.4821L58.9842 55.5827ZM60.4784 55.5827L60.9763 56.45H60.9763L60.4784 55.5827ZM71.3844 49.3207L71.8824 50.188L72.7082 49.7138L72.2749 48.8657L71.3844 49.3207ZM58.1626 45.5973H59.1626V44.8336L58.4258 44.6326L58.1626 45.5973ZM58.1626 51.329L57.6647 52.1962L59.1626 53.0563V51.329H58.1626ZM53.6412 37.5501L54.6149 37.778L54.7845 37.0534L54.1392 36.6828L53.6412 37.5501ZM48.7509 34.7421L49.2488 33.8749L47.7509 33.0148V34.7421H48.7509ZM49.5724 46.3966L49.0745 47.2638L49.0745 47.2639L49.5724 46.3966ZM56.9713 37.5727L56.0812 37.1169L56.0812 37.1169L56.9713 37.5727ZM62.4913 37.5726L63.3814 37.1169L63.3813 37.1168L62.4913 37.5726ZM59.4749 28.1806C59.4749 28.1806 59.4749 28.1806 59.4749 28.1806C59.4749 28.1806 59.4749 28.1806 59.4749 28.1806C59.4749 28.1806 59.4749 28.1806 59.4749 28.1806H59.4749C59.4749 28.1806 59.4749 28.1806 59.4749 28.1806H59.4749C59.4749 28.1806 59.4749 28.1806 59.4749 28.1806V28.1806C59.4749 28.1806 59.4749 28.1806 59.4749 28.1806V28.1806C59.4749 28.1806 59.4749 28.1806 59.4749 28.1806H59.4749C59.4749 28.1806 59.4749 28.1806 59.4749 28.1806C59.4749 28.1806 59.4749 28.1806 59.4749 28.1806C59.4749 28.1806 59.4749 28.1806 59.4749 28.1806C59.4749 28.1806 59.4749 28.1806 59.4749 28.1806C59.4749 28.1806 59.4749 28.1806 59.4749 28.1806C59.4749 28.1806 59.4749 28.1806 59.4749 28.1806C59.4749 28.1806 59.4749 28.1806 59.4749 28.1806C59.4749 28.1806 59.4749 28.1806 59.4749 28.1806C59.4749 28.1806 59.4749 28.1806 59.4749 28.1806C59.4749 28.1806 59.4749 28.1806 59.4749 28.1806C59.4749 28.1806 59.4749 28.1806 59.4749 28.1806C59.4749 28.1806 59.4749 28.1806 59.4749 28.1806C59.4749 28.1806 59.4749 28.1806 59.4749 28.1806V28.1806C59.4749 28.1806 59.4749 28.1806 59.4749 28.1806C59.4749 28.1806 59.4749 28.1806 59.4749 28.1806C59.4749 28.1806 59.4749 28.1806 59.4749 28.1806C59.4749 28.1806 59.4749 28.1806 59.4749 28.1806C59.4749 28.1806 59.4749 28.1806 59.4749 28.1806C59.4749 28.1806 59.4749 28.1806 59.4749 28.1806V28.1806C59.4749 28.1806 59.4749 28.1806 59.4749 28.1806V28.1806C59.4749 28.1806 59.4749 28.1806 59.4749 28.1806C59.4749 28.1806 59.4749 28.1806 59.4749 28.1806H59.4749C59.4749 28.1806 59.4749 28.1806 59.4749 28.1806C59.4749 28.1806 59.4749 28.1806 59.4749 28.1806C59.4749 28.1806 59.4749 28.1806 59.4749 28.1806C59.4749 28.1806 59.4749 28.1806 59.4749 28.1806C59.4749 28.1806 59.4749 28.1806 59.4749 28.1806C59.4749 28.1806 59.4749 28.1806 59.4749 28.1806H59.4749C59.4749 28.1806 59.4749 28.1806 59.4749 28.1806C59.4749 28.1806 59.4749 28.1806 59.4749 28.1806C59.4749 28.1806 59.4749 28.1806 59.4749 28.1806V28.1806C59.4749 28.1806 59.4749 28.1806 59.4749 28.1806L59.4749 28.1806C59.4749 28.1806 59.4749 28.1806 59.4749 28.1806L59.4749 28.1806C59.4749 28.1806 59.4749 28.1806 59.4749 28.1806C59.4749 28.1806 59.4749 28.1806 59.4749 28.1806C59.4749 28.1806 59.4749 28.1806 59.4749 28.1806C59.4749 28.1806 59.4749 28.1806 59.4749 28.1806C59.4749 28.1806 59.4749 28.1806 59.4749 28.1806C59.4749 28.1806 59.4749 28.1806 59.4749 28.1806C59.4749 28.1806 59.4749 28.1806 59.4749 28.1806C59.4749 28.1806 59.4749 28.1806 59.4749 28.1806C59.4749 28.1806 59.4749 28.1806 59.4749 28.1806C59.4749 28.1806 59.4749 28.1806 59.4749 28.1806C59.4749 28.1806 59.4749 28.1806 59.4749 28.1806V28.1806C59.4749 28.1806 59.4749 28.1806 59.4749 28.1806C59.4749 28.1806 59.4749 28.1806 59.4749 28.1806C59.4749 28.1806 59.4749 28.1806 59.4749 28.1806C59.4749 28.1806 59.4749 28.1806 59.4749 28.1806C59.4749 28.1806 59.4749 28.1806 59.4749 28.1806C59.4749 28.1806 59.4749 28.1806 59.4749 28.1806L58.5383 26.4134V26.4134C58.5383 26.4134 58.5383 26.4134 58.5383 26.4134V26.4134C58.5383 26.4134 58.5383 26.4134 58.5383 26.4134C58.5383 26.4134 58.5383 26.4134 58.5383 26.4134C58.5383 26.4134 58.5383 26.4134 58.5383 26.4134C58.5383 26.4134 58.5383 26.4134 58.5383 26.4134C58.5383 26.4134 58.5383 26.4134 58.5383 26.4134C58.5383 26.4134 58.5383 26.4134 58.5383 26.4134C58.5383 26.4134 58.5383 26.4134 58.5383 26.4134C58.5383 26.4134 58.5383 26.4134 58.5383 26.4135C58.5383 26.4134 58.5383 26.4134 58.5383 26.4135C58.5383 26.4134 58.5383 26.4134 58.5383 26.4134C58.5383 26.4135 58.5383 26.4135 58.5383 26.4134C58.5383 26.4135 58.5383 26.4135 58.5383 26.4135V26.4135C58.5383 26.4135 58.5383 26.4135 58.5383 26.4135V26.4135C58.5383 26.4135 58.5383 26.4135 58.5383 26.4135C58.5383 26.4135 58.5383 26.4135 58.5383 26.4135H58.5383C58.5383 26.4135 58.5383 26.4135 58.5383 26.4135C58.5383 26.4135 58.5383 26.4135 58.5383 26.4135C58.5383 26.4135 58.5383 26.4135 58.5383 26.4135C58.5383 26.4135 58.5383 26.4135 58.5383 26.4135C58.5383 26.4135 58.5383 26.4135 58.5383 26.4135C58.5383 26.4135 58.5383 26.4135 58.5383 26.4135C58.5383 26.4135 58.5383 26.4135 58.5383 26.4135C58.5383 26.4135 58.5383 26.4135 58.5383 26.4135H58.5383C58.5383 26.4135 58.5383 26.4135 58.5383 26.4135H58.5383C58.5383 26.4135 58.5383 26.4135 58.5383 26.4135V26.4135C58.5383 26.4135 58.5383 26.4135 58.5383 26.4135V26.4135C58.5383 26.4135 58.5383 26.4135 58.5383 26.4135C58.5383 26.4135 58.5383 26.4135 58.5383 26.4135V26.4135C58.5383 26.4135 58.5383 26.4135 58.5383 26.4135H58.5383C58.5383 26.4135 58.5383 26.4135 58.5383 26.4135H58.5383C58.5383 26.4135 58.5383 26.4135 58.5383 26.4135C58.5383 26.4135 58.5383 26.4135 58.5383 26.4135C58.5383 26.4135 58.5383 26.4135 58.5383 26.4135C58.5383 26.4135 58.5383 26.4135 58.5383 26.4135C58.5383 26.4135 58.5383 26.4135 58.5383 26.4135V26.4135C58.5383 26.4135 58.5383 26.4135 58.5383 26.4135V26.4135C58.5383 26.4135 58.5383 26.4135 58.5383 26.4135C58.5383 26.4135 58.5383 26.4135 58.5383 26.4135C58.5383 26.4135 58.5383 26.4135 58.5383 26.4135C58.5383 26.4135 58.5383 26.4135 58.5383 26.4135C58.5383 26.4135 58.5383 26.4135 58.5383 26.4135C58.5383 26.4135 58.5383 26.4135 58.5383 26.4135V26.4135C58.5383 26.4135 58.5383 26.4135 58.5383 26.4135C58.5383 26.4135 58.5383 26.4135 58.5383 26.4135C58.5383 26.4135 58.5383 26.4135 58.5383 26.4135C58.5383 26.4135 58.5383 26.4135 58.5383 26.4135C58.5383 26.4135 58.5383 26.4135 58.5383 26.4135C58.5383 26.4135 58.5383 26.4135 58.5383 26.4135C58.5383 26.4135 58.5383 26.4135 58.5383 26.4135C58.5383 26.4135 58.5383 26.4135 58.5383 26.4135C58.5383 26.4135 58.5383 26.4135 58.5383 26.4135V26.4135C58.5383 26.4135 58.5383 26.4135 58.5383 26.4135V26.4135C58.5383 26.4135 58.5383 26.4135 58.5383 26.4135C58.5383 26.4135 58.5383 26.4135 58.5383 26.4135V26.4135C58.5383 26.4135 58.5383 26.4135 58.5383 26.4135C58.5383 26.4135 58.5383 26.4135 58.5383 26.4135C58.5383 26.4135 58.5383 26.4135 58.5383 26.4135C58.5383 26.4135 58.5383 26.4135 58.5383 26.4135C58.5383 26.4135 58.5383 26.4135 58.5383 26.4135C58.5383 26.4135 58.5383 26.4135 58.5383 26.4135C58.5383 26.4135 58.5383 26.4135 58.5383 26.4135V26.4135C58.5383 26.4135 58.5383 26.4135 58.5383 26.4135V26.4135C58.5383 26.4135 58.5383 26.4135 58.5383 26.4135C58.5383 26.4135 58.5383 26.4135 58.5383 26.4135C58.5383 26.4135 58.5383 26.4135 58.5383 26.4135L58.5383 26.4135C58.5383 26.4135 58.5383 26.4135 58.5383 26.4135C58.5383 26.4135 58.5383 26.4135 58.5383 26.4135C58.5383 26.4135 58.5383 26.4135 58.5383 26.4135C58.5383 26.4135 58.5383 26.4135 58.5383 26.4135C58.5383 26.4135 58.5383 26.4135 58.5383 26.4135C58.5383 26.4135 58.5383 26.4135 58.5383 26.4135C58.5383 26.4135 58.5383 26.4135 58.5383 26.4135V26.4135C58.5383 26.4135 58.5383 26.4135 58.5383 26.4135C58.5383 26.4135 58.5383 26.4135 58.5383 26.4135C58.5383 26.4135 58.5383 26.4135 58.5383 26.4135C58.5383 26.4135 58.5383 26.4135 58.5383 26.4135C58.5383 26.4135 58.5383 26.4135 58.5383 26.4135H58.5383C58.5383 26.4135 58.5383 26.4135 58.5383 26.4135L59.4749 28.1806ZM51.0092 32.8546L59.4899 28.1725L58.5233 26.4216L50.0425 31.1038L51.0092 32.8546ZM55.6346 33.7594L51.0238 31.112L50.0279 32.8464L54.6387 35.4938L55.6346 33.7594ZM59.7313 31.5047C57.6049 31.5047 55.7039 32.4644 54.3851 33.9669L55.8882 35.2863C56.8583 34.181 58.2259 33.5047 59.7313 33.5047V31.5047ZM65.0775 33.9669C63.7586 32.4644 61.8576 31.5047 59.7313 31.5047V33.5047C61.2366 33.5047 62.6042 34.181 63.5744 35.2863L65.0775 33.9669ZM68.4387 31.112L63.828 33.7594L64.8239 35.4938L69.4346 32.8464L68.4387 31.112ZM59.9726 28.1725L68.4534 32.8546L69.42 31.1038L60.9392 26.4216L59.9726 28.1725ZM59.4899 28.1725C59.6432 28.0878 59.8193 28.0878 59.9726 28.1725L60.9392 26.4216C60.1843 26.0048 59.2782 26.0048 58.5233 26.4216L59.4899 28.1725ZM66.3193 38.4173L71.2096 35.6093L70.2137 33.8749L65.3234 36.6829L66.3193 38.4173ZM67.0058 39.1557C67.0058 38.5258 66.9329 37.9113 66.795 37.3221L64.8476 37.778C64.9508 38.2187 65.0058 38.6803 65.0058 39.1557H67.0058ZM61.5631 46.562C64.7274 45.6988 67.0058 42.6816 67.0058 39.1557H65.0058C65.0058 41.8283 63.285 44.0192 61.0367 44.6326L61.5631 46.562ZM62.2999 51.329V45.5973H60.2999V51.329H62.2999ZM69.3922 45.5294L60.802 50.4618L61.7978 52.1962L70.3881 47.2638L69.3922 45.5294ZM69.7117 44.9345C69.7117 45.2068 69.5708 45.4269 69.3922 45.5294L70.3881 47.2638C71.2219 46.7851 71.7117 45.8829 71.7117 44.9345H69.7117ZM69.7117 34.7421V44.9345H71.7117V34.7421H69.7117ZM69.7468 48.3137L70.494 49.7758L72.2749 48.8657L71.5278 47.4036L69.7468 48.3137ZM71.8824 50.1879C73.7286 49.1279 74.8489 47.1032 74.8489 44.9345H72.8489C72.8489 46.4271 72.0775 47.7697 70.8865 48.4535L71.8824 50.1879ZM74.8489 44.9345V31.9504H72.8489V44.9345H74.8489ZM74.8489 31.9504C74.8489 30.9873 74.3436 30.0725 73.4882 29.6002L72.5216 31.3511C72.7036 31.4516 72.8489 31.6737 72.8489 31.9504H74.8489ZM73.4882 29.6002L62.3885 23.4721L61.4218 25.223L72.5216 31.3511L73.4882 29.6002ZM61.0076 23.9066L60.283 25.3813L62.078 26.2633L62.8026 24.7885L61.0076 23.9066ZM62.078 26.2633L62.8026 24.7885L61.0076 23.9066L60.283 25.3813L62.078 26.2633ZM62.3884 23.4721C60.7253 22.5539 58.7373 22.5539 57.0741 23.4721L58.0407 25.223C59.1023 24.6369 60.3603 24.6369 61.4218 25.223L62.3884 23.4721ZM57.0647 23.4773L57.0647 23.4773L58.0501 25.2178L58.0501 25.2178L57.0647 23.4773ZM57.0741 23.4721L45.9743 29.6002L46.941 31.3511L58.0407 25.223L57.0741 23.4721ZM45.9743 29.6002C45.119 30.0725 44.6136 30.9873 44.6136 31.9504H46.6136C46.6136 31.6737 46.7589 31.4516 46.941 31.3511L45.9743 29.6002ZM44.6136 31.9504V44.9345H46.6136V31.9504H44.6136ZM44.6136 44.9345C44.6136 47.1033 45.7341 49.1279 47.5802 50.1879L48.5761 48.4535C47.3851 47.7697 46.6136 46.4272 46.6136 44.9345H44.6136ZM47.6005 50.1993L47.6006 50.1993L48.5558 48.4422L48.5557 48.4421L47.6005 50.1993ZM47.5802 50.188L58.4862 56.4499L59.4821 54.7155L48.5761 48.4535L47.5802 50.188ZM58.4862 56.4499C59.2606 56.8946 60.2019 56.8946 60.9763 56.45L59.9804 54.7155C59.8227 54.8061 59.6398 54.8061 59.4821 54.7155L58.4862 56.4499ZM60.9763 56.45L71.8824 50.188L70.8865 48.4535L59.9804 54.7155L60.9763 56.45ZM72.2749 48.8657L71.5278 47.4037L69.7468 48.3137L70.4939 49.7758L72.2749 48.8657ZM57.1626 45.5973V51.329H59.1626V45.5973H57.1626ZM52.4568 39.1557C52.4568 42.6816 54.7352 45.6988 57.8994 46.562L58.4258 44.6326C56.1775 44.0192 54.4568 41.8283 54.4568 39.1557H52.4568ZM52.6675 37.3221C52.5296 37.9113 52.4568 38.5258 52.4568 39.1557H54.4568C54.4568 38.6803 54.5117 38.2187 54.6149 37.778L52.6675 37.3221ZM48.2529 35.6093L53.1433 38.4173L54.1392 36.6828L49.2488 33.8749L48.2529 35.6093ZM49.7509 44.9345V34.7421H47.7509V44.9345H49.7509ZM50.0704 45.5294C49.8917 45.4268 49.7509 45.2067 49.7509 44.9345H47.7509C47.7509 45.8829 48.2407 46.7851 49.0745 47.2638L50.0704 45.5294ZM58.6606 50.4618L50.0704 45.5294L49.0745 47.2639L57.6647 52.1962L58.6606 50.4618ZM57.594 39.1557C57.594 38.7396 57.6926 38.3581 57.8614 38.0285L56.0812 37.1169C55.7695 37.7255 55.594 38.4191 55.594 39.1557H57.594ZM59.7313 41.4813C58.6049 41.4813 57.594 40.4959 57.594 39.1557H55.594C55.594 41.489 57.3921 43.4813 59.7313 43.4813V41.4813ZM61.8685 39.1557C61.8685 40.4959 60.8576 41.4813 59.7313 41.4813V43.4813C62.0704 43.4813 63.8685 41.489 63.8685 39.1557H61.8685ZM61.6011 38.0283C61.77 38.3581 61.8685 38.7397 61.8685 39.1557H63.8685C63.8685 38.4191 63.693 37.7255 63.3814 37.1169L61.6011 38.0283ZM59.7313 36.8302C60.51 36.8302 61.2222 37.2884 61.6012 38.0284L63.3813 37.1168C62.6936 35.7739 61.3312 34.8302 59.7313 34.8302V36.8302ZM57.8613 38.0285C58.2403 37.2885 58.9525 36.8302 59.7313 36.8302V34.8302C58.1313 34.8302 56.7688 35.774 56.0812 37.1169L57.8613 38.0285Z" fill="#19C2EF" fill-opacity="0.55" mask="url(#path-7-inside-1_1_11174)"/>
</g>
<defs>
<radialGradient id="paint0_radial_1_11174" cx="0" cy="0" r="1" gradientUnits="userSpaceOnUse" gradientTransform="translate(60.1305 40) rotate(90) scale(40 40.4514)">
<stop stop-color="#19C2EF"/>
<stop offset="1" stop-color="#056CE9" stop-opacity="0"/>
</radialGradient>
<linearGradient id="paint1_linear_1_11174" x1="60.1304" y1="69.1892" x2="60.1304" y2="10.8108" gradientUnits="userSpaceOnUse">
<stop stop-color="#0974F8"/>
<stop offset="1" stop-color="#4FB2FE"/>
</linearGradient>
<linearGradient id="paint2_linear_1_11174" x1="59.7313" y1="23.7834" x2="59.7313" y2="55.7834" gradientUnits="userSpaceOnUse">
<stop stop-color="#0974F8"/>
<stop offset="1" stop-color="#4FB2FE"/>
</linearGradient>
<clipPath id="clip0_1_11174">
<rect width="32" height="32" fill="white" transform="translate(43.7313 23.7834)"/>
</clipPath>
</defs>
</svg>
