<svg width="252" height="60" viewBox="0 0 252 60" fill="none" xmlns="http://www.w3.org/2000/svg">
<path d="M1 8L8 1M1 8V5L5 1H8M1 8V11M8 1H11M2.5 11L2.5 14" stroke="#19C2EF" stroke-opacity="0.8"/>
<path d="M251 52L244 59M251 52V55L247 59H244M251 52V49M244 59H241M249.5 49L249.5 46" stroke="#19C2EF" stroke-opacity="0.8"/>
<path d="M31 58.5H2.5V11.2071L12.2071 1.5H31H249.5V48.7929L239.793 58.5H31Z" stroke="#19C2EF" stroke-opacity="0.7"/>
<path d="M5 56H34H237L247 46V4H34H15L5 14V56Z" fill="url(#paint0_linear_1_178)"/>
<path d="M34 55.5H5.5V14.2071L15.2071 4.5H34H246.5V45.7929L236.793 55.5H34Z" stroke="#2CD3FF" stroke-opacity="0.51"/>
<defs>
<linearGradient id="paint0_linear_1_178" x1="56" y1="4" x2="56" y2="46" gradientUnits="userSpaceOnUse">
<stop stop-color="#076CE9"/>
<stop offset="1" stop-color="#14B4DE"/>
</linearGradient>
</defs>
</svg>
