<svg width="272" height="50" viewBox="0 0 272 50" fill="none" xmlns="http://www.w3.org/2000/svg">
<path d="M1 8L8 1M1 8V5L5 1H8M1 8V11M8 1H11M2.5 11L2.5 14" stroke="#19C2EF" stroke-opacity="0.8"/>
<path d="M271 42L264 49M271 42V45L267 49H264M271 42V39M264 49H261M269.5 39L269.5 36" stroke="#19C2EF" stroke-opacity="0.8"/>
<path d="M31 48.5H2.5V11.2071L12.2071 1.5H31H269.5V38.7929L259.793 48.5H31Z" stroke="#19C2EF" stroke-opacity="0.7"/>
<path d="M5 46H34H257L267 36V4H34H15L5 14V46Z" fill="url(#paint0_linear_1_28761)"/>
<path d="M34 45.5H5.5V14.2071L15.2071 4.5H34H266.5V35.7929L256.793 45.5H34Z" stroke="#2CD3FF" stroke-opacity="0.51"/>
<defs>
<linearGradient id="paint0_linear_1_28761" x1="56" y1="4" x2="56" y2="46" gradientUnits="userSpaceOnUse">
<stop stop-color="#076CE9"/>
<stop offset="1" stop-color="#14B4DE"/>
</linearGradient>
</defs>
</svg>
