<svg width="18" height="18" viewBox="0 0 18 18" fill="none" xmlns="http://www.w3.org/2000/svg">
<path d="M18 10.5927C18 6.6775 16.705 2.13666 13.3988 0L12.5276 1.34769C13.3668 1.8644 13.8078 2.34263 14.2333 3.18782C13.9392 3.59562 13.7184 4.08806 13.5337 4.64383C13.6841 4.97882 13.793 5.57661 13.7936 5.97258L12.4678 5.75595L11.3231 7.01249L10.4027 5.12738C9.19236 6.61594 8.82954 7.24096 6.95745 7.11371L6.42832 5.48191L4.54143 5.84769C4.54143 5.84769 4.19755 3.96791 3.61989 3.54709C3.78206 2.86939 4.26503 2.26924 5.14632 1.72945L4.30942 0.179337C1.24589 2.32724 0 6.59522 0 10.5927C3.43108 12.3186 4.45502 14.2795 4.26443 16.3605C4.77581 16.6488 5.30494 16.9346 5.92523 17.1009C6.77338 17.3282 7.68309 17.4377 8.61824 17.4377C9.5534 17.4377 10.5116 17.3288 11.4012 17.1009C12.2068 16.895 12.9371 16.573 13.6006 16.1806C13.571 14.1558 14.6743 12.1559 17.9994 10.5927H18ZM6.49697 11.6338C5.45351 12.2364 4.23425 12.0819 3.78324 11.3006C3.52578 10.8543 3.58142 10.3015 3.86255 9.79311C4.33664 9.78482 4.89537 9.68953 5.4973 9.45988C6.07083 9.24089 6.60765 8.94081 7.03676 8.61883C7.25812 8.73543 7.45166 8.91063 7.57655 9.12666C8.02755 9.90793 7.54044 11.0313 6.49697 11.6338ZM7.50316 15.4147C7.86775 14.0806 8.30573 12.746 9 11.4119C9.6842 12.746 10.2275 14.0806 10.4968 15.4147C9.49895 15.1105 8.50105 15.0696 7.50316 15.4147ZM14.2132 11.3006C13.7622 12.0819 12.5429 12.2364 11.4995 11.6338C10.456 11.0313 9.96889 9.90793 10.4205 9.12666C10.5454 8.91063 10.7383 8.73543 10.9603 8.61883C11.3888 8.94081 11.9262 9.24089 12.4997 9.45988C13.1017 9.69012 13.6604 9.78482 14.1345 9.79311C14.4156 10.3015 14.4707 10.8543 14.2132 11.3006ZM3.45712 3.75838C3.65244 3.24286 3.78502 2.61844 4.41655 2.21242L3.45712 3.75838ZM14.4381 3.37781C14.2233 2.9706 13.867 2.25858 13.4384 1.93897L14.4381 3.37781Z" fill="url(#paint0_linear_1_13119)"/>
<path d="M4.14716 0.931254L4.49012 1.56649C4.37796 1.64819 4.27211 1.73198 4.17268 1.81795L4.14615 1.79184C3.45054 2.23906 3.21565 2.92622 3.05961 3.3827C3.03477 3.45535 3.01194 3.52217 2.98956 3.58124L3.08618 3.62896L3.05603 3.75493L3.32548 3.95122C3.36569 3.98052 3.45157 4.0821 3.55718 4.3012C3.65497 4.50409 3.74344 4.75135 3.81873 5.00006C3.89334 5.24653 3.95142 5.48241 3.99095 5.65749C4.01063 5.74469 4.02552 5.81598 4.03539 5.86494C4.04033 5.8894 4.044 5.90823 4.04637 5.92064L4.04897 5.93429L4.04953 5.9373L4.04959 5.93766L4.04961 5.93777L4.04962 5.93782L4.04962 5.93783L4.14052 6.43472L4.63659 6.33855L6.08916 6.05697L6.48183 7.26793L6.58614 7.58962L6.92354 7.61255C7.92017 7.6803 8.60695 7.55305 9.211 7.13883C9.5969 6.87421 9.9341 6.49655 10.2979 6.05235L10.8738 7.23186L11.1968 7.89355L11.6927 7.34921L12.6548 6.29314L13.7129 6.46603L14.2944 6.56105L14.2936 5.97183C14.293 5.58701 14.2067 5.0413 14.066 4.63336C14.2283 4.17782 14.4128 3.79363 14.6388 3.48033L14.8164 3.23412L14.7969 3.19525L14.8803 3.14449C14.8676 3.12032 14.8541 3.09454 14.8398 3.06737C14.7388 2.87481 14.6012 2.61237 14.4414 2.35889C14.2635 2.07678 14.0276 1.75462 13.7374 1.53818L13.6859 1.58793C13.5431 1.45499 13.3875 1.32856 13.2155 1.20451L13.5376 0.706329C16.2544 2.75052 17.4328 6.68448 17.4972 10.2801C15.9373 11.0543 14.8449 11.944 14.1372 12.92C13.4495 13.8684 13.1415 14.876 13.104 15.8883C12.5426 16.1966 11.9357 16.4482 11.2774 16.6165L11.2772 16.6166C10.4324 16.833 9.51625 16.9377 8.61824 16.9377C7.72151 16.9377 6.8558 16.8327 6.05472 16.618L4.14716 0.931254ZM4.14716 0.931254C1.67071 2.97839 0.560975 6.66447 0.502451 10.2889C2.11189 11.1359 3.21697 12.0585 3.90299 13.0611C4.56536 14.0291 4.81819 15.0444 4.78311 16.0768C5.19568 16.3016 5.60073 16.4963 6.05465 16.618L4.14716 0.931254ZM3.35022 11.5506L3.35015 11.5505C2.9785 10.9063 3.08843 10.1598 3.425 9.55115L3.56485 9.29823L3.85382 9.29318C4.26859 9.28594 4.76999 9.2022 5.31895 8.99278L3.35022 11.5506ZM3.35022 11.5506C3.67196 12.1079 4.24843 12.4069 4.85641 12.4823C5.46493 12.5578 6.13916 12.4178 6.747 12.0668C7.35281 11.717 7.81386 11.2071 8.05627 10.6454C8.29868 10.0836 8.33233 9.43579 8.00958 8.87669L8.00942 8.87642C7.83202 8.56953 7.56455 8.33172 7.26978 8.17645L6.98979 8.02897M3.35022 11.5506L6.98979 8.02897M6.98979 8.02897L6.73667 8.2189M6.98979 8.02897L6.73667 8.2189M6.73667 8.2189C6.34576 8.51222 5.85012 8.78994 5.31908 8.99273L6.73667 8.2189ZM7.02084 15.2829L6.77105 16.1969L7.66656 15.8872C8.54638 15.583 9.43411 15.6134 10.351 15.893L11.1528 16.1374L10.987 15.3158C10.7052 13.9198 10.1404 12.5397 9.4449 11.1837L9.00324 10.3225L8.55647 11.1811C7.83883 12.56 7.38975 13.933 7.02084 15.2829ZM14.6462 11.5506L14.6463 11.5505C15.0178 10.9066 14.9089 10.1602 14.572 9.55115L14.4322 9.29823L14.1432 9.29318C13.7281 9.28593 13.2268 9.20266 12.6784 8.99288L12.6781 8.99278C12.1468 8.78992 11.6507 8.51217 11.2606 8.2191L11.0078 8.0291L10.7277 8.1762C10.4316 8.33179 10.1648 8.56991 9.98762 8.87642L9.98761 8.87644C9.66442 9.43555 9.69787 10.0835 9.94023 10.6453C10.1826 11.2071 10.6436 11.717 11.2494 12.0668C11.8573 12.4178 12.5315 12.5578 13.14 12.4823C13.748 12.4069 14.3245 12.1079 14.6462 11.5506Z" stroke="#19C2EF" stroke-opacity="0.55"/>
<defs>
<linearGradient id="paint0_linear_1_13119" x1="9" y1="0" x2="9" y2="17.4377" gradientUnits="userSpaceOnUse">
<stop stop-color="#0974F8"/>
<stop offset="1" stop-color="#4FB2FE"/>
</linearGradient>
</defs>
</svg>
