<svg width="18" height="18" viewBox="0 0 18 18" fill="none" xmlns="http://www.w3.org/2000/svg">
<g clip-path="url(#clip0_1_13147)">
<path d="M0.152847 6.16947C0.356643 7.01953 0.746254 7.75842 1.32168 8.38616L9 17.0568L16.6783 8.38616C17.2537 7.75842 17.6434 7.01953 17.8472 6.16947C18.051 5.31941 18.051 4.47589 17.8472 3.63891C17.6434 2.80192 17.2537 2.06957 16.6783 1.44183C16.1029 0.814095 15.4316 0.389066 14.6643 0.166742C13.8971 -0.0555808 13.1179 -0.0555808 12.3267 0.166742C11.5355 0.389066 10.8641 0.814095 10.3127 1.44183L9 3.1681L7.68731 1.44183C7.11189 0.814095 6.44056 0.389066 5.67333 0.166742C4.90609 -0.0555808 4.13287 -0.0555808 3.35365 0.166742C2.57443 0.389066 1.8971 0.814095 1.32168 1.44183C0.746254 2.06957 0.356643 2.80192 0.152847 3.63891C-0.050949 4.47589 -0.050949 5.31941 0.152847 6.16947Z" fill="url(#paint0_linear_1_13147)"/>
<path d="M1.696 8.05468L1.69606 8.05463L1.69026 8.0483C1.17376 7.48485 0.82362 6.82268 0.639069 6.0529C0.453499 5.27886 0.453927 4.51586 0.638653 3.75719C0.822749 3.00112 1.17248 2.34454 1.69026 1.77969C2.20656 1.21645 2.80508 0.843209 3.49083 0.647555C4.18109 0.450614 4.85853 0.451206 5.53417 0.646986C6.20088 0.840182 6.78943 1.20765 7.30356 1.76322L8.602 3.47075L9 3.99415L9.398 3.47075L10.6997 1.75894C11.1862 1.2097 11.7708 0.842297 12.4619 0.6481C13.1661 0.45024 13.8502 0.451398 14.5252 0.646986C15.1985 0.842085 15.792 1.21491 16.3097 1.77969C16.8275 2.34454 17.1773 3.00112 17.3613 3.75719C17.5461 4.51586 17.5465 5.27886 17.3609 6.0529C17.1764 6.82268 16.8262 7.48485 16.3097 8.0483L16.3097 8.04825L16.304 8.05468L9 16.3026L1.696 8.05468Z" stroke="#19C2EF" stroke-opacity="0.55"/>
</g>
<defs>
<linearGradient id="paint0_linear_1_13147" x1="9" y1="0" x2="9" y2="17.0568" gradientUnits="userSpaceOnUse">
<stop stop-color="#0974F8"/>
<stop offset="1" stop-color="#4FB2FE"/>
</linearGradient>
<clipPath id="clip0_1_13147">
<rect width="18" height="18" fill="white"/>
</clipPath>
</defs>
</svg>
