<svg width="69" height="34" viewBox="0 0 69 34" fill="none" xmlns="http://www.w3.org/2000/svg">
<g filter="url(#filter0_di_1_28760)">
<path d="M58.5 16.0622C59.1667 16.4471 59.1667 17.4093 58.5 17.7942L49.5 22.9904C48.8333 23.3753 48 22.8942 48 22.1244V11.7321C48 10.9622 48.8333 10.4811 49.5 10.866L58.5 16.0622Z" fill="#E2FFE1"/>
<path d="M36.5 15.9075C37.1667 16.2924 37.1667 17.2546 36.5 17.6395L29.5 21.681C28.8333 22.0659 28 21.5848 28 20.815V12.7321C28 11.9623 28.8333 11.4811 29.5 11.866L36.5 15.9075Z" fill="#E2FFE1"/>
<path d="M16.5 15.7528C17.1667 16.1377 17.1667 17.0999 16.5 17.4848L11.5 20.3716C10.8333 20.7565 10 20.2754 10 19.5056L10 13.732C10 12.9622 10.8333 12.4811 11.5 12.866L16.5 15.7528Z" fill="#E2FFE1"/>
</g>
<defs>
<filter id="filter0_di_1_28760" x="0" y="0.730469" width="69" height="32.3955" filterUnits="userSpaceOnUse" color-interpolation-filters="sRGB">
<feFlood flood-opacity="0" result="BackgroundImageFix"/>
<feColorMatrix in="SourceAlpha" type="matrix" values="0 0 0 0 0 0 0 0 0 0 0 0 0 0 0 0 0 0 127 0" result="hardAlpha"/>
<feOffset/>
<feGaussianBlur stdDeviation="5"/>
<feComposite in2="hardAlpha" operator="out"/>
<feColorMatrix type="matrix" values="0 0 0 0 0.105882 0 0 0 0 0.866667 0 0 0 0 0.0823529 0 0 0 1 0"/>
<feBlend mode="normal" in2="BackgroundImageFix" result="effect1_dropShadow_1_28760"/>
<feBlend mode="normal" in="SourceGraphic" in2="effect1_dropShadow_1_28760" result="shape"/>
<feColorMatrix in="SourceAlpha" type="matrix" values="0 0 0 0 0 0 0 0 0 0 0 0 0 0 0 0 0 0 127 0" result="hardAlpha"/>
<feOffset/>
<feGaussianBlur stdDeviation="2.5"/>
<feComposite in2="hardAlpha" operator="arithmetic" k2="-1" k3="1"/>
<feColorMatrix type="matrix" values="0 0 0 0 0.105882 0 0 0 0 0.866667 0 0 0 0 0.0823529 0 0 0 1 0"/>
<feBlend mode="normal" in2="shape" result="effect2_innerShadow_1_28760"/>
</filter>
</defs>
</svg>
