<svg width="18" height="18" viewBox="0 0 18 18" fill="none" xmlns="http://www.w3.org/2000/svg">
<g clip-path="url(#clip0_1_13134)">
<mask id="mask0_1_13134" style="mask-type:luminance" maskUnits="userSpaceOnUse" x="0" y="0" width="18" height="18">
<path d="M18 0H0V18H18V0Z" fill="white"/>
</mask>
<g mask="url(#mask0_1_13134)">
<path fill-rule="evenodd" clip-rule="evenodd" d="M17.8145 7.875H16.7857C16.2384 4.06013 12.9663 1.125 9.00012 1.125C5.93504 1.125 3.28568 2.88 1.98405 5.436L4.09624 6.24823C5.06037 4.53486 6.89354 3.375 9.00012 3.375C11.7215 3.375 13.9912 5.30775 14.512 7.875H13.1564C12.982 8.04433 12.8155 8.14841 13.0653 8.44142L15.1634 10.5756C15.3378 10.7443 15.6196 10.7443 15.7929 10.5756L17.9056 8.44142C18.0794 8.27216 17.9883 8.04433 17.8145 7.875ZM9.00012 14.625C6.48121 14.625 4.34993 12.9696 3.6333 10.6875H4.86404C5.03842 10.5188 5.12898 10.2904 4.95573 10.1217L2.84297 7.98692C2.66916 7.81817 2.38735 7.81817 2.21354 7.98692L0.114862 10.1217C-0.134325 10.4147 0.0321672 10.5188 0.20598 10.6875H1.23704C1.84736 14.0248 5.08567 16.875 9.00012 16.875C11.8649 16.875 14.3647 15.3399 15.7428 13.0528L13.6137 12.2124C12.5979 13.6698 10.9109 14.625 9.00012 14.625Z" fill="url(#paint0_linear_1_13134)"/>
<path fill-rule="evenodd" clip-rule="evenodd" d="M13.1564 7.875C13.1406 7.89036 13.1249 7.90515 13.1095 7.91961C12.9553 8.06471 12.8382 8.17496 13.0653 8.44142L15.1634 10.5756C15.3378 10.7443 15.6196 10.7443 15.7929 10.5756L17.9056 8.44142C18.0794 8.27216 17.9883 8.04433 17.8145 7.875H16.7857C16.2384 4.06013 12.9663 1.125 9.00012 1.125C6.16708 1.125 3.6892 2.62434 2.30243 4.86968C2.18885 5.05359 2.08259 5.2425 1.98405 5.436L4.09624 6.24823C5.06037 4.53486 6.89354 3.375 9.00012 3.375C11.4891 3.375 13.6003 4.99182 14.3412 7.23214C14.4103 7.44126 14.4676 7.65585 14.512 7.875H13.1564ZM3.83197 5.45786C4.96033 3.81444 6.85201 2.73214 9.00012 2.73214C12.0333 2.73214 14.5616 4.88622 15.1421 7.7472L15.2984 8.51786H14.0419L15.4786 9.9792L16.9254 8.51786H16.2285L16.1493 7.96629C15.6466 4.46212 12.6407 1.76786 9.00012 1.76786C6.44347 1.76786 4.20001 3.09783 2.91394 5.10483L3.83197 5.45786ZM2.75762 10.0446H3.97506L2.52874 8.5833L1.09205 10.0446H1.773L1.86942 10.5719C2.42243 13.5958 5.38799 16.2321 9.00012 16.2321C11.3541 16.2321 13.4413 15.1034 14.762 13.3568L13.8304 12.9891C12.6826 14.3788 10.9459 15.2679 9.00012 15.2679C6.19233 15.2679 3.8183 13.4223 3.01998 10.8801L2.75762 10.0446ZM13.6137 12.2124L15.7428 13.0528C15.6295 13.2408 15.5087 13.4237 15.3807 13.6011C13.9513 15.5819 11.6295 16.875 9.00012 16.875C5.08567 16.875 1.84736 14.0248 1.23704 10.6875H0.20598C0.190227 10.6722 0.174533 10.6574 0.159204 10.643C0.00540206 10.4983 -0.111741 10.3881 0.114862 10.1217L2.21354 7.98692C2.38735 7.81817 2.66916 7.81817 2.84297 7.98692L4.95573 10.1217C5.12898 10.2904 5.03842 10.5188 4.86404 10.6875H3.6333C3.70252 10.9079 3.78495 11.1225 3.87965 11.3304C4.7653 13.2739 6.72453 14.625 9.00012 14.625C10.9109 14.625 12.5979 13.6698 13.6137 12.2124Z" fill="#19C2EF" fill-opacity="0.55"/>
</g>
</g>
<defs>
<linearGradient id="paint0_linear_1_13134" x1="4.78972" y1="2.36681" x2="4.78972" y2="4.4961" gradientUnits="userSpaceOnUse">
<stop stop-color="#0974F8"/>
<stop offset="1" stop-color="#4FB2FE"/>
</linearGradient>
<clipPath id="clip0_1_13134">
<rect width="18" height="18" fill="white"/>
</clipPath>
</defs>
</svg>
