<svg width="22" height="22" viewBox="0 0 22 22" fill="none" xmlns="http://www.w3.org/2000/svg">
<path d="M18.4278 0H3.57074C0.839049 0 -0.892366 2.94668 0.481949 5.32881L9.6512 21.2217C10.2495 22.2594 11.749 22.2594 12.3474 21.2217L21.5185 5.32881C22.8909 2.95049 21.1595 0 18.4297 0H18.4278ZM9.64374 16.4557L7.64683 12.5909L2.82849 3.97322C2.51063 3.42165 2.90324 2.71483 3.56888 2.71483H9.64188V16.4575L9.64374 16.4557ZM19.1664 3.97136L14.3499 12.5928L12.353 16.4557V2.71297H18.426C19.0916 2.71297 19.4842 3.41978 19.1664 3.97136Z" fill="url(#paint0_linear_1_28942)"/>
<path d="M10.0844 20.9719L10.0843 20.9718L0.915042 5.07895C0.915041 5.07895 0.91504 5.07895 0.915039 5.07895C-0.26452 3.03438 1.21898 0.5 3.57074 0.5H18.4278H18.4297C20.7794 0.5 22.2632 3.03798 21.0854 5.07891L21.5185 5.32881L21.0854 5.07891L11.9143 20.9718L11.9142 20.9719C11.5083 21.676 10.4903 21.676 10.0844 20.9719ZM9.9972 16.8093L10.2557 16.5509L10.1419 16.3305V2.71483V2.21483H9.64188H3.56888C2.51838 2.21483 1.88748 3.33652 2.3935 4.21978L7.2064 12.8277L9.14188 16.5736V17.6642L9.99534 16.8112L9.9972 16.8093ZM11.853 16.4557L12.7971 16.6853L14.7903 12.8296L19.6014 4.21787C20.1073 3.33462 19.4765 2.21297 18.426 2.21297H12.353H11.853V2.71297V16.4557Z" stroke="#19C2EF" stroke-opacity="0.55"/>
<defs>
<linearGradient id="paint0_linear_1_28942" x1="10.9997" y1="0" x2="10.9997" y2="22" gradientUnits="userSpaceOnUse">
<stop stop-color="#0974F8"/>
<stop offset="1" stop-color="#4FB2FE"/>
</linearGradient>
</defs>
</svg>
