<svg width="332" height="120" viewBox="0 0 332 120" fill="none" xmlns="http://www.w3.org/2000/svg">
<path d="M99.6869 96.1546L78.1598 59.9446L99.6869 23.7346L110.064 59.9446L99.6869 96.1546ZM51.7758 92.6212L24.7281 65.7952H67.7823L89.3093 102.005L51.7758 92.6212ZM51.7758 27.1572L89.1997 17.7732L67.6727 53.9833H24.6185L51.7758 27.1572ZM106.753 0L57.8467 12.6959L50.5606 25.1701L35.8788 25.0593L0 59.9446L35.8788 94.8299L50.5606 94.7191L57.8467 107.193L106.753 120L119.889 72.4189L112.492 60.0554L119.889 47.6907L106.753 0ZM217.809 35.2165C211.296 35.2165 206.88 37.9756 203.568 43.0541H203.348V36.5412H191.867V84.4523H203.568V57.2951C203.568 50.7822 207.653 46.2552 213.284 46.2552C218.583 46.2552 222.557 49.4575 222.557 55.0876V84.5631H234.259V53.2101C234.369 42.7229 227.745 35.2165 217.809 35.2165ZM174.093 64.25C174.093 70.6533 170.45 75.0684 164.488 75.0684C159.08 75.0684 155.657 71.9781 155.657 66.3479V36.5412H143.955V68.5554C143.955 79.0426 149.916 85.8879 160.625 85.8879C167.36 85.8879 171.112 83.348 174.314 78.933H174.646V84.5631H185.906V36.5412H174.204V64.25H174.093ZM240.552 36.5412H252.253V84.4523H240.552V36.5412ZM240.552 21.6379H252.253V31.2422H240.552V21.6379ZM318.601 36.5412L311.646 58.1779C310.101 62.5941 308.885 68.6662 308.885 68.6662H308.554C308.554 68.6662 307.009 62.5941 305.464 58.1779L297.625 36.5412H285.04L297.956 70.6533C300.717 77.9394 301.599 81.0297 301.599 83.6792C301.599 87.6534 299.503 90.1933 294.535 90.1933H290.008V100.238H297.516C307.229 100.238 310.652 96.375 314.295 85.7771L331.186 36.6508H318.601V36.5412ZM274.111 70.4317V45.0413H281.619V36.6508H274.111V21.6379H262.41V36.5412H255.786V44.9305H262.41V73.0812C262.41 82.134 269.254 84.5631 275.436 84.5631C280.514 84.5631 281.839 84.3415 281.839 84.3415V75.0684H278.858C276.098 75.1791 274.111 73.9652 274.111 70.4317Z" fill="url(#paint0_linear_1_18187)"/>
<path d="M99.2571 96.4101L99.8486 97.4051L100.168 96.2924L110.545 60.0824L110.585 59.9446L110.545 59.8069L100.168 23.5968L99.8486 22.4841L99.2571 23.4791L77.73 59.6891L77.5781 59.9446L77.73 60.2001L99.2571 96.4101ZM51.4237 92.9762L51.5212 93.0729L51.6545 93.1063L89.188 102.49L90.3525 102.781L89.7391 101.75L68.2121 65.5396L68.0667 65.2952H67.7823H24.7281H23.514L24.376 66.1502L51.4237 92.9762ZM51.6542 26.6722L51.5216 26.7055L51.4244 26.8015L24.2672 53.6275L23.4009 54.4833H24.6185H67.6727H67.9571L68.1025 54.2388L89.6295 18.0287L90.2435 16.996L89.0781 17.2882L51.6542 26.6722ZM50.5568 25.6701L50.8463 25.6723L50.9924 25.4223L58.1736 13.1276L106.401 0.607748L119.35 47.6175L112.063 59.7987L111.91 60.0554L112.063 60.3121L119.35 72.492L106.402 119.391L58.1739 106.762L50.9924 94.4669L50.8463 94.2169L50.5568 94.2191L36.0803 94.3284L0.717247 59.9446L36.0803 25.5609L50.5568 25.6701ZM203.568 43.5541H203.839L203.987 43.3273C205.61 40.8389 207.487 38.9424 209.735 37.6656C211.982 36.3898 214.626 35.7165 217.809 35.7165C222.644 35.7165 226.646 37.5394 229.43 40.6161C232.218 43.6967 233.813 48.0674 233.759 53.2049V53.2101V84.0631H223.057V55.0876C223.057 52.1477 222.015 49.7994 220.243 48.19C218.478 46.5863 216.032 45.7552 213.284 45.7552C207.322 45.7552 203.068 50.5644 203.068 57.2951V83.9523H192.367V37.0412H202.848V43.0541V43.5541H203.348H203.568ZM174.704 64.25V37.0412H185.406V84.0631H175.146V78.933V78.433H174.646H174.314H174.059L173.91 78.6394C172.336 80.8089 170.65 82.4868 168.555 83.6269C166.463 84.7659 163.927 85.3879 160.625 85.3879C155.381 85.3879 151.356 83.715 148.639 80.8126C145.918 77.9056 144.455 73.7067 144.455 68.5554V37.0412H155.157V66.3479C155.157 69.2659 156.047 71.5882 157.698 73.1795C159.346 74.7679 161.691 75.5684 164.488 75.5684C167.601 75.5684 170.145 74.4109 171.903 72.3885C173.566 70.4765 174.495 67.8299 174.586 64.75H174.704V64.25ZM318.93 37.1508H330.485L313.822 85.6145C312.003 90.906 310.27 94.4131 307.846 96.6117C305.448 98.7866 302.307 99.7385 297.516 99.7385H290.508V90.6933H294.535C297.099 90.6933 299.012 90.0372 300.281 88.7822C301.552 87.5264 302.099 85.7499 302.099 83.6792C302.099 80.9223 301.178 77.7454 298.424 70.4763L285.764 37.0412H297.274L304.992 58.343C304.992 58.3435 304.992 58.344 304.993 58.3446C305.76 60.5373 306.529 63.1466 307.107 65.2129C307.396 66.2452 307.637 67.1399 307.805 67.7764C307.841 67.91 307.873 68.0322 307.902 68.1419C307.941 68.2935 307.975 68.4212 308.001 68.5221L308.052 68.7213L308.065 68.7725L308.069 68.7854L308.069 68.7886L308.07 68.7893L308.554 68.6662L308.07 68.7895L308.166 69.1662H308.554H308.885H309.295L309.376 68.7643L308.885 68.6662L309.376 68.7643L309.376 68.7634L309.377 68.7603L309.379 68.7476L309.389 68.6967C309.399 68.6518 309.412 68.585 309.43 68.4983C309.466 68.3249 309.519 68.0718 309.588 67.7542C309.726 67.1188 309.925 66.2255 310.172 65.1948C310.668 63.1302 311.353 60.5273 312.118 58.3431L312.122 58.3309L318.93 37.1508ZM274.111 44.5413H273.611V45.0413V70.4317C273.611 72.2902 274.136 73.6378 275.122 74.4941C276.095 75.3395 277.425 75.6247 278.868 75.5684H281.339V83.8943C281.145 83.9118 280.875 83.9324 280.513 83.9532C279.559 84.0079 277.968 84.0631 275.436 84.0631C272.397 84.0631 269.257 83.4638 266.891 81.8074C264.555 80.1717 262.91 77.4621 262.91 73.0812V44.9305V44.4305H262.41H256.286V37.0412H262.41H262.91V36.5412V22.1379H273.611V36.6508V37.1508H274.111H281.119V44.5413H274.111ZM241.052 37.0412H251.753V83.9523H241.052V37.0412ZM241.052 22.1379H251.753V30.7422H241.052V22.1379Z" stroke="#19C2EF" stroke-opacity="0.55"/>
<defs>
<linearGradient id="paint0_linear_1_18187" x1="165.593" y1="0" x2="165.593" y2="120" gradientUnits="userSpaceOnUse">
<stop stop-color="#0974F8"/>
<stop offset="1" stop-color="#4FB2FE"/>
</linearGradient>
</defs>
</svg>
