<svg width="24" height="24" viewBox="0 0 24 24" fill="none" xmlns="http://www.w3.org/2000/svg">
<path d="M24.0112 11.3941C24.0112 9.88656 19.9091 8.62876 14.4579 8.33857L14.4574 5.93653H21.264V0.9375H2.65213V5.93653H9.45811V8.35032C4.10614 8.6604 0.102661 9.90508 0.102661 11.3941C0.102661 12.8834 4.10614 14.1281 9.45811 14.4377V23.0633H14.4574V14.4495C19.9091 14.1599 24.0112 12.9017 24.0112 11.3941ZM12.0569 12.8792C6.20571 12.8792 1.46227 11.9736 1.46227 10.8559C1.46227 9.90941 4.86357 9.11484 9.45811 8.89376V9.46344H9.45864V11.798C10.287 11.8444 11.1575 11.8688 12.0569 11.8688C12.885 11.8688 13.6892 11.8477 14.458 11.8092V8.88508C19.1521 9.09261 22.6517 9.89555 22.6517 10.8559C22.6516 11.9736 17.9081 12.8792 12.0569 12.8792Z" fill="url(#paint0_linear_1_28947)"/>
<path d="M13.9579 8.33866L13.958 8.81266L13.958 8.81266V8.88508V11.3312C13.3431 11.3556 12.7075 11.3688 12.0569 11.3688C11.336 11.3688 10.6342 11.353 9.95864 11.3226V9.46344V8.96344H9.95811V8.89376V8.82219V8.36912V8.35032V5.93653V5.43653H9.45811H3.15213V1.4375H20.764V5.43653H14.4574H13.9574L13.9574 5.93661L13.9579 8.33866ZM0.962293 10.8493C0.962278 10.8515 0.96227 10.8537 0.96227 10.8559C0.96227 11.1862 1.13949 11.4455 1.33634 11.6292C1.53354 11.8133 1.79649 11.9672 2.08909 12.0993C2.67746 12.365 3.49744 12.5918 4.4716 12.7778C6.42817 13.1515 9.10971 13.3792 12.0569 13.3792C15.0041 13.3792 17.6856 13.1515 19.6422 12.7778C20.6164 12.5918 21.4364 12.365 22.0248 12.0993C22.3174 11.9672 22.5804 11.8133 22.7776 11.6293C22.9745 11.4455 23.1517 11.1862 23.1517 10.8559V10.8559C23.1517 10.8536 23.1517 10.8514 23.1517 10.8491C23.4421 11.0918 23.5112 11.2793 23.5112 11.3941C23.5112 11.5273 23.4183 11.7582 22.9951 12.0595C22.5857 12.351 21.9581 12.6396 21.1281 12.9018C19.4745 13.4241 17.1311 13.8067 14.4309 13.9502L13.9574 13.9753V14.4495V22.5633H9.95811V14.4377V13.9658L9.48698 13.9385C6.83635 13.7852 4.54256 13.4011 2.92622 12.8822C2.11487 12.6218 1.50289 12.3363 1.10428 12.0489C0.69289 11.7522 0.602661 11.5255 0.602661 11.3941C0.602661 11.2796 0.671353 11.0923 0.962293 10.8493Z" stroke="#19C2EF" stroke-opacity="0.55"/>
<defs>
<linearGradient id="paint0_linear_1_28947" x1="12.0569" y1="0.9375" x2="12.0569" y2="23.0633" gradientUnits="userSpaceOnUse">
<stop stop-color="#0974F8"/>
<stop offset="1" stop-color="#4FB2FE"/>
</linearGradient>
</defs>
</svg>
