<svg width="81" height="80" viewBox="0 0 81 80" fill="none" xmlns="http://www.w3.org/2000/svg">
<ellipse opacity="0.55" cx="40.4514" cy="40" rx="40.4514" ry="40" fill="url(#paint0_radial_1_27065)"/>
<path d="M70 40C70.0035 43.2776 69.4691 46.5336 68.418 49.6381L65.9996 48.8181C64.6404 52.7945 62.3907 56.4077 59.4223 59.3821C56.4538 62.3565 52.8451 64.6134 48.8715 65.9806L49.6968 68.398C43.4088 70.534 36.5914 70.534 30.3035 68.398L31.1285 65.9805C27.155 64.6134 23.5463 62.3565 20.5779 59.3822C17.6096 56.4079 15.36 52.7947 14.0008 48.8185L11.5823 49.6384C9.47258 43.386 9.47258 36.614 11.5823 30.3616L14.0008 31.1815C15.363 27.1961 17.6196 23.5756 20.5978 20.5974C23.5759 17.6193 27.1965 15.3626 31.1819 14.0004L30.362 11.582C36.6144 9.47261 43.3861 9.47266 49.6384 11.5821L48.8186 14.0007C52.804 15.3629 56.4245 17.6196 59.4027 20.5977C62.3808 23.5759 64.6375 27.1965 65.9996 31.1819L68.418 30.3619C69.4691 33.4664 70.0036 36.7224 70 40ZM40 13.5232C34.7634 13.5233 29.6444 15.0761 25.2904 17.9854C20.9363 20.8947 17.5427 25.0298 15.5388 29.8678C13.5348 34.7058 13.0105 40.0293 14.0321 45.1653C15.0537 50.3013 17.5754 55.019 21.2782 58.7218C24.981 62.4246 29.6987 64.9463 34.8347 65.9679C39.9707 66.9895 45.2942 66.4652 50.1322 64.4612C54.9702 62.4573 59.1053 59.0637 62.0146 54.7096C64.9239 50.3556 66.4767 45.2366 66.4767 40C66.4688 32.9804 63.6768 26.2505 58.7131 21.2868C53.7495 16.3232 47.0196 13.5312 40 13.5232Z" fill="url(#paint1_linear_1_27065)"/>
<path d="M52.5524 28.3905C53.0731 28.9112 53.0731 29.7554 52.5524 30.2761L30.2763 52.5523C29.7556 53.0729 28.9113 53.0729 28.3906 52.5523L27.4478 51.6095C26.9271 51.0887 26.9271 50.2445 27.4478 49.7237L49.724 27.4476C50.2447 26.927 51.0889 26.927 51.6096 27.4476L52.5524 28.3905Z" fill="url(#paint2_linear_1_27065)"/>
<path d="M50.0776 27.8012L50.0776 27.8012C50.403 27.4758 50.9307 27.4758 51.2561 27.8012L51.6093 27.448L51.2561 27.8012L52.1989 28.744C52.5243 29.0694 52.5243 29.5971 52.1989 29.9225C52.1989 29.9225 52.1989 29.9225 52.1989 29.9225L29.9227 52.1987C29.5973 52.5241 29.0696 52.5241 28.7442 52.1987L27.8014 51.2559C27.4759 50.9304 27.4759 50.4028 27.8014 50.0772L50.0776 27.8012Z" stroke="#19C2EF" stroke-opacity="0.55"/>
<path d="M34.0001 28C31.4228 28 29.3334 30.0893 29.3334 32.6667C29.3334 35.244 31.4228 37.3333 34.0001 37.3333C36.5774 37.3333 38.6668 35.244 38.6668 32.6667C38.6668 30.0893 36.5774 28 34.0001 28Z" fill="url(#paint3_linear_1_27065)"/>
<path d="M29.8334 32.6667C29.8334 30.3655 31.6989 28.5 34.0001 28.5C36.3013 28.5 38.1668 30.3655 38.1668 32.6667C38.1668 34.9679 36.3013 36.8333 34.0001 36.8333C31.6989 36.8333 29.8334 34.9679 29.8334 32.6667Z" stroke="#19C2EF" stroke-opacity="0.55"/>
<path d="M46.0002 42.6665C43.4228 42.6665 41.3335 44.7558 41.3335 47.3332C41.3335 49.9105 43.4228 51.9998 46.0002 51.9998C48.5775 51.9998 50.6668 49.9105 50.6668 47.3332C50.6668 44.7558 48.5775 42.6665 46.0002 42.6665Z" fill="url(#paint4_linear_1_27065)"/>
<path d="M41.8335 47.3332C41.8335 45.032 43.699 43.1665 46.0002 43.1665C48.3014 43.1665 50.1668 45.032 50.1668 47.3332C50.1668 49.6344 48.3014 51.4998 46.0002 51.4998C43.699 51.4998 41.8335 49.6344 41.8335 47.3332Z" stroke="#19C2EF" stroke-opacity="0.55"/>
<defs>
<radialGradient id="paint0_radial_1_27065" cx="0" cy="0" r="1" gradientUnits="userSpaceOnUse" gradientTransform="translate(40.4514 40) rotate(90) scale(40 40.4514)">
<stop stop-color="#19C2EF"/>
<stop offset="1" stop-color="#056CE9" stop-opacity="0"/>
</radialGradient>
<linearGradient id="paint1_linear_1_27065" x1="40" y1="70" x2="40" y2="10" gradientUnits="userSpaceOnUse">
<stop stop-color="#0974F8"/>
<stop offset="1" stop-color="#4FB2FE"/>
</linearGradient>
<linearGradient id="paint2_linear_1_27065" x1="40.0001" y1="27.0571" x2="40.0001" y2="52.9428" gradientUnits="userSpaceOnUse">
<stop stop-color="#0974F8"/>
<stop offset="1" stop-color="#4FB2FE"/>
</linearGradient>
<linearGradient id="paint3_linear_1_27065" x1="34.0001" y1="28" x2="34.0001" y2="37.3333" gradientUnits="userSpaceOnUse">
<stop stop-color="#0974F8"/>
<stop offset="1" stop-color="#4FB2FE"/>
</linearGradient>
<linearGradient id="paint4_linear_1_27065" x1="46.0002" y1="42.6665" x2="46.0002" y2="51.9998" gradientUnits="userSpaceOnUse">
<stop stop-color="#0974F8"/>
<stop offset="1" stop-color="#4FB2FE"/>
</linearGradient>
</defs>
</svg>
