<svg width="120" height="80" viewBox="0 0 120 80" fill="none" xmlns="http://www.w3.org/2000/svg">
<ellipse opacity="0.55" cx="60.1305" cy="40" rx="40.4514" ry="40" fill="url(#paint0_radial_1_12117)"/>
<path d="M89.649 40C89.6525 43.189 89.1266 46.357 88.0923 49.3776L85.7128 48.5798C84.3754 52.4487 82.1618 55.9643 79.241 58.8583C76.3202 61.7523 72.7694 63.9482 68.8595 65.2785L69.6716 67.6305C63.4845 69.7088 56.7765 69.7088 50.5895 67.6305L51.4013 65.2783C47.4915 63.9482 43.9408 61.7523 41.02 58.8584C38.0993 55.9645 35.8858 52.4489 34.5484 48.5801L32.1687 49.378C30.0929 43.2945 30.0929 36.7056 32.1687 30.6221L34.5484 31.4199C35.8887 27.5422 38.1092 24.0195 41.0395 21.1218C43.9699 18.2242 47.5323 16.0285 51.4538 14.7031L50.6471 12.3501C56.7991 10.2977 63.4622 10.2977 69.6142 12.3502L68.8075 14.7034C72.7289 16.0288 76.2914 18.2245 79.2217 21.1221C82.1521 24.0198 84.3725 27.5425 85.7128 31.4202L88.0923 30.6224C89.1266 33.643 89.6525 36.811 89.649 40ZM60.1304 14.2388C54.9778 14.2389 49.941 15.7497 45.6568 18.5804C41.3726 21.4111 38.0335 25.4344 36.0617 30.1416C34.0899 34.8489 33.574 40.0286 34.5792 45.0257C35.5844 50.0229 38.0656 54.6131 41.709 58.2158C45.3524 61.8186 49.9944 64.2721 55.048 65.2661C60.1015 66.2601 65.3397 65.7499 70.1 63.8001C74.8604 61.8503 78.9291 58.5485 81.7917 54.3121C84.6543 50.0757 86.1823 45.0951 86.1823 40C86.1745 33.1701 83.4272 26.6221 78.5432 21.7926C73.6593 16.9631 67.0374 14.2465 60.1304 14.2388Z" fill="url(#paint1_linear_1_12117)"/>
<path d="M19.2425 50.742C20.5798 54.6108 22.7934 58.1263 25.7141 61.0203L26.4031 60.3777C22.7597 56.7749 20.2785 52.1847 19.2733 47.1876C18.2681 42.1904 18.784 37.0107 20.7558 32.3035C22.7276 27.5963 26.0667 23.5729 30.3509 20.7423L28.4253 20.5403L25.7336 23.2837C22.8033 26.1814 20.5828 29.7041 19.2425 33.5817L16.8628 32.7839C14.7869 38.8674 14.7869 45.4564 16.8628 51.5398L19.2425 50.742Z" fill="#19C2EF" fill-opacity="0.3"/>
<path d="M2.86063 49.0792C3.83244 51.7655 5.44095 54.2066 7.56338 56.2161L8.06407 55.7699C5.4165 53.2682 3.61348 50.0809 2.88301 46.6111C2.15255 43.1412 2.52744 39.5446 3.9603 36.276C5.39315 33.0074 7.8196 30.2138 10.9328 28.2482L9.53351 28.108L7.57755 30.0129C5.44813 32.025 3.83459 34.471 2.86063 37.1636L1.13134 36.6096C-0.377114 40.8338 -0.377114 45.4089 1.13134 49.6331L2.86063 49.0792Z" fill="#19C2EF" fill-opacity="0.15"/>
<path d="M100.757 50.742C99.4201 54.6108 97.2066 58.1263 94.2858 61.0203L93.5968 60.3777C97.2402 56.7749 99.7214 52.1847 100.727 47.1876C101.732 42.1904 101.216 37.0107 99.2441 32.3035C97.2723 27.5963 93.9332 23.5729 89.649 20.7423L91.5747 20.5403L94.2663 23.2837C97.1967 26.1814 99.4171 29.7041 100.757 33.5817L103.137 32.7839C105.213 38.8674 105.213 45.4564 103.137 51.5398L100.757 50.742Z" fill="#19C2EF" fill-opacity="0.3"/>
<path d="M117.139 49.0792C116.168 51.7655 114.559 54.2066 112.437 56.2161L111.936 55.7699C114.584 53.2682 116.387 50.0809 117.117 46.6111C117.847 43.1412 117.473 39.5446 116.04 36.276C114.607 33.0074 112.18 30.2138 109.067 28.2482L110.466 28.108L112.422 30.0129C114.552 32.025 116.165 34.471 117.139 37.1636L118.869 36.6096C120.377 40.8338 120.377 45.4089 118.869 49.6331L117.139 49.0792Z" fill="#19C2EF" fill-opacity="0.15"/>
<path d="M76 51.8387H69.4231L67.1923 46.9693H52.8461L50.6154 51.8387H44L55.9615 27.5688L58.8461 33.8184L55.2308 41.7933H64.7692L57.0769 25H62.7692L76 51.8387Z" fill="url(#paint2_linear_1_12117)"/>
<path d="M65.2238 41.5851L57.8559 25.5H62.4583L75.1961 51.3387H69.7441L67.6469 46.7611L67.5132 46.4693H67.1923H52.8461H52.5252L52.3916 46.7611L50.2945 51.3387H44.8039L55.9467 28.7299L58.2963 33.8203L54.7754 41.5869L54.4551 42.2933H55.2308H64.7692H65.5482L65.2238 41.5851Z" stroke="#19C2EF" stroke-opacity="0.55"/>
<defs>
<radialGradient id="paint0_radial_1_12117" cx="0" cy="0" r="1" gradientUnits="userSpaceOnUse" gradientTransform="translate(60.1305 40) rotate(90) scale(40 40.4514)">
<stop stop-color="#19C2EF"/>
<stop offset="1" stop-color="#056CE9" stop-opacity="0"/>
</radialGradient>
<linearGradient id="paint1_linear_1_12117" x1="60.1304" y1="69.1892" x2="60.1304" y2="10.8108" gradientUnits="userSpaceOnUse">
<stop stop-color="#0974F8"/>
<stop offset="1" stop-color="#4FB2FE"/>
</linearGradient>
<linearGradient id="paint2_linear_1_12117" x1="60" y1="25" x2="60" y2="51.8387" gradientUnits="userSpaceOnUse">
<stop stop-color="#0974F8"/>
<stop offset="1" stop-color="#4FB2FE"/>
</linearGradient>
</defs>
</svg>
