<svg width="120" height="80" viewBox="0 0 120 80" fill="none" xmlns="http://www.w3.org/2000/svg">
<ellipse opacity="0.55" cx="60.1305" cy="40" rx="40.4514" ry="40" fill="url(#paint0_radial_1_12117)"/>
<path d="M89.649 40C89.6525 43.189 89.1266 46.357 88.0923 49.3776L85.7128 48.5798C84.3754 52.4487 82.1618 55.9643 79.241 58.8583C76.3202 61.7523 72.7694 63.9482 68.8595 65.2785L69.6716 67.6305C63.4845 69.7088 56.7765 69.7088 50.5895 67.6305L51.4013 65.2783C47.4915 63.9482 43.9408 61.7523 41.02 58.8584C38.0993 55.9645 35.8858 52.4489 34.5484 48.5801L32.1687 49.378C30.0929 43.2945 30.0929 36.7056 32.1687 30.6221L34.5484 31.4199C35.8887 27.5422 38.1092 24.0195 41.0395 21.1218C43.9699 18.2242 47.5323 16.0285 51.4538 14.7031L50.6471 12.3501C56.7991 10.2977 63.4622 10.2977 69.6142 12.3502L68.8075 14.7034C72.7289 16.0288 76.2914 18.2245 79.2217 21.1221C82.1521 24.0198 84.3725 27.5425 85.7128 31.4202L88.0923 30.6224C89.1266 33.643 89.6525 36.811 89.649 40ZM60.1304 14.2388C54.9778 14.2389 49.941 15.7497 45.6568 18.5804C41.3726 21.4111 38.0335 25.4344 36.0617 30.1416C34.0899 34.8489 33.574 40.0286 34.5792 45.0257C35.5844 50.0229 38.0656 54.6131 41.709 58.2158C45.3524 61.8186 49.9944 64.2721 55.048 65.2661C60.1015 66.2601 65.3397 65.7499 70.1 63.8001C74.8604 61.8503 78.9291 58.5485 81.7917 54.3121C84.6543 50.0757 86.1823 45.0951 86.1823 40C86.1745 33.1701 83.4272 26.6221 78.5432 21.7926C73.6593 16.9631 67.0374 14.2465 60.1304 14.2388Z" fill="url(#paint1_linear_1_12117)"/>
<path d="M19.2425 50.742C20.5798 54.6108 22.7934 58.1263 25.7141 61.0203L26.4031 60.3777C22.7597 56.7749 20.2785 52.1847 19.2733 47.1876C18.2681 42.1904 18.784 37.0107 20.7558 32.3035C22.7276 27.5963 26.0667 23.5729 30.3509 20.7423L28.4253 20.5403L25.7336 23.2837C22.8033 26.1814 20.5828 29.7041 19.2425 33.5817L16.8628 32.7839C14.7869 38.8674 14.7869 45.4564 16.8628 51.5398L19.2425 50.742Z" fill="#19C2EF" fill-opacity="0.3"/>
<path d="M2.86063 49.0792C3.83244 51.7655 5.44095 54.2066 7.56338 56.2161L8.06407 55.7699C5.4165 53.2682 3.61348 50.0809 2.88301 46.6111C2.15255 43.1412 2.52744 39.5446 3.9603 36.276C5.39315 33.0074 7.8196 30.2138 10.9328 28.2482L9.53351 28.108L7.57755 30.0129C5.44813 32.025 3.83459 34.471 2.86063 37.1636L1.13134 36.6096C-0.377114 40.8338 -0.377114 45.4089 1.13134 49.6331L2.86063 49.0792Z" fill="#19C2EF" fill-opacity="0.15"/>
<path d="M100.757 50.742C99.4201 54.6108 97.2066 58.1263 94.2858 61.0203L93.5968 60.3777C97.2402 56.7749 99.7214 52.1847 100.727 47.1876C101.732 42.1904 101.216 37.0107 99.2441 32.3035C97.2723 27.5963 93.9332 23.5729 89.649 20.7423L91.5747 20.5403L94.2663 23.2837C97.1967 26.1814 99.4171 29.7041 100.757 33.5817L103.137 32.7839C105.213 38.8674 105.213 45.4564 103.137 51.5398L100.757 50.742Z" fill="#19C2EF" fill-opacity="0.3"/>
<path d="M117.139 49.0792C116.168 51.7655 114.559 54.2066 112.437 56.2161L111.936 55.7699C114.584 53.2682 116.387 50.0809 117.117 46.6111C117.847 43.1412 117.473 39.5446 116.04 36.276C114.607 33.0074 112.18 30.2138 109.067 28.2482L110.466 28.108L112.422 30.0129C114.552 32.025 116.165 34.471 117.139 37.1636L118.869 36.6096C120.377 40.8338 120.377 45.4089 118.869 49.6331L117.139 49.0792Z" fill="#19C2EF" fill-opacity="0.15"/>
<path d="M60.5 24C64.0648 24 67.3659 24.6877 69.8334 25.8677C71.0647 26.4567 72.158 27.2014 72.9651 28.1138C73.7114 28.9576 74.2672 30.014 74.3547 31.2403L74.3667 31.5789V48.4211C74.3667 49.7922 73.7792 50.9657 72.9651 51.8861C72.158 52.7987 71.0647 53.5434 69.8334 54.1322C67.3659 55.3123 64.0648 56 60.5 56C56.9352 56 53.6342 55.3123 51.1667 54.1322C49.9353 53.5434 48.842 52.7987 48.035 51.8861C47.2887 51.0424 46.7329 49.986 46.6454 48.7597L46.6334 48.4211V31.5789C46.6334 30.2078 47.2209 29.0343 48.035 28.1138C48.842 27.2014 49.9353 26.4567 51.1667 25.8677C53.6342 24.6877 56.9352 24 60.5 24ZM71.2852 44.8962C70.8321 45.1953 70.3446 45.4666 69.8334 45.7112C67.3659 46.8913 64.0648 47.5789 60.5 47.5789C56.9352 47.5789 53.6342 46.8913 51.1667 45.7112C50.6554 45.4666 50.1679 45.1953 49.7148 44.8962V48.4211C49.7148 48.6777 49.8171 49.055 50.2505 49.5449C50.6909 50.0429 51.4027 50.5684 52.4018 51.0462C54.3955 51.9997 57.2574 52.6316 60.5 52.6316C63.7427 52.6316 66.6046 51.9997 68.5982 51.0462C69.5973 50.5684 70.3092 50.0429 70.7497 49.5449C71.1829 49.055 71.2852 48.6777 71.2852 48.4211V44.8962ZM71.2852 36.4751C70.8321 36.7742 70.3446 37.0456 69.8334 37.2901C67.3659 38.4702 64.0648 39.1579 60.5 39.1579C56.9352 39.1579 53.6342 38.4702 51.1667 37.2901C50.6554 37.0456 50.1679 36.7742 49.7148 36.4751V40C49.7148 40.2567 49.8171 40.6339 50.2505 41.1239C50.6909 41.6219 51.4027 42.1474 52.4018 42.6252C54.3955 43.5786 57.2574 44.2105 60.5 44.2105C63.7427 44.2105 66.6046 43.5786 68.5982 42.6252C69.5973 42.1474 70.3092 41.6219 70.7497 41.1239C71.1829 40.6339 71.2852 40.2567 71.2852 40V36.4751ZM60.5 27.3684C57.2574 27.3684 54.3955 28.0003 52.4018 28.9537C51.4027 29.4315 50.6909 29.957 50.2505 30.4551C49.8171 30.945 49.7148 31.3223 49.7148 31.5789C49.7148 31.8356 49.8171 32.2129 50.2505 32.7028C50.6909 33.2009 51.4027 33.7263 52.4018 34.2042C54.3955 35.1576 57.2574 35.7895 60.5 35.7895C63.7427 35.7895 66.6046 35.1576 68.5982 34.2042C69.5973 33.7263 70.3092 33.2009 70.7497 32.7028C71.1829 32.2129 71.2852 31.8356 71.2852 31.5789C71.2852 31.3223 71.1829 30.945 70.7497 30.4551C70.3092 29.957 69.5973 29.4315 68.5982 28.9537C66.6046 28.0003 63.7427 27.3684 60.5 27.3684Z" fill="url(#paint2_linear_1_12117)"/>
<path d="M72.5906 51.5549L72.5905 51.5549C71.8405 52.4029 70.8086 53.1117 69.6177 53.6811L69.6176 53.6811C67.2312 54.8225 64.0071 55.5 60.5 55.5C56.993 55.5 53.7688 54.8225 51.3825 53.6811L51.3824 53.6811C50.1914 53.1117 49.1595 52.4029 48.4096 51.5549L48.4095 51.5549C47.7193 50.7745 47.2246 49.821 47.1448 48.7328L47.1334 48.4122V31.5789C47.1334 30.3588 47.6548 29.2985 48.4096 28.4451C49.1595 27.5971 50.1914 26.8884 51.3824 26.3188L51.3824 26.3188C53.7688 25.1775 56.993 24.5 60.5 24.5C64.0071 24.5 67.2312 25.1775 69.6176 26.3188C70.8086 26.8884 71.8406 27.5971 72.5906 28.4451C73.2808 29.2255 73.7754 30.179 73.8553 31.2672L73.8667 31.5878V48.4211C73.8667 49.6412 73.3453 50.7016 72.5906 51.5549ZM71.7852 44.8962V43.967L71.0098 44.4789C70.578 44.7639 70.1108 45.0242 69.6176 45.2601C67.2312 46.4014 64.007 47.0789 60.5 47.0789C56.993 47.0789 53.7688 46.4014 51.3825 45.2601C50.8892 45.0242 50.422 44.7639 49.9903 44.4789L49.2148 43.9669V44.8962V48.4211C49.2148 48.8266 49.3815 49.3172 49.8759 49.8762L50.2505 49.5449L49.8759 49.8762C50.3735 50.4387 51.1466 51.0002 52.1861 51.4973C54.2608 52.4895 57.1996 53.1316 60.5 53.1316C63.8005 53.1316 66.7393 52.4895 68.8139 51.4973C69.8535 51.0002 70.6266 50.4387 71.1242 49.8762L71.1242 49.8761C71.6185 49.3172 71.7852 48.8266 71.7852 48.4211V44.8962ZM71.7852 36.4751V35.546L71.0098 36.0578C70.578 36.3428 70.1108 36.6031 69.6176 36.8391C67.2312 37.9804 64.007 38.6579 60.5 38.6579C56.993 38.6579 53.7688 37.9804 51.3825 36.839L51.1667 37.2901L51.3825 36.839C50.8892 36.6031 50.422 36.3428 49.9903 36.0578L49.2148 35.5459V36.4751V40C49.2148 40.4055 49.3815 40.8961 49.8759 41.4551L50.2505 41.1239L49.8759 41.4551C50.3735 42.0176 51.1466 42.5791 52.1861 43.0763C54.2608 44.0684 57.1996 44.7105 60.5 44.7105C63.8005 44.7105 66.7393 44.0684 68.8139 43.0762C69.8535 42.5791 70.6266 42.0176 71.1242 41.4551L71.1242 41.4551C71.6185 40.8961 71.7852 40.4055 71.7852 40V36.4751ZM49.8759 30.1238L49.8759 30.1238C49.3815 30.6829 49.2148 31.1734 49.2148 31.5789C49.2148 31.9845 49.3815 32.475 49.8759 33.0341L49.8759 33.0341C50.3735 33.5966 51.1466 34.1581 52.1861 34.6552L52.4018 34.2042L52.1861 34.6552C54.2608 35.6474 57.1996 36.2895 60.5 36.2895C63.8005 36.2895 66.7392 35.6474 68.8139 34.6552C69.8534 34.1581 70.6266 33.5966 71.1242 33.0341L71.1242 33.034C71.6185 32.475 71.7852 31.9845 71.7852 31.5789C71.7852 31.1734 71.6185 30.6829 71.1242 30.1239L71.1242 30.1238C70.6266 29.5613 69.8535 28.9998 68.8139 28.5027C66.7393 27.5105 63.8005 26.8684 60.5 26.8684C57.1996 26.8684 54.2608 27.5105 52.1861 28.5027L52.4018 28.9537L52.1861 28.5027C51.1466 28.9998 50.3735 29.5613 49.8759 30.1238Z" stroke="#19C2EF" stroke-opacity="0.55"/>
<defs>
<radialGradient id="paint0_radial_1_12117" cx="0" cy="0" r="1" gradientUnits="userSpaceOnUse" gradientTransform="translate(60.1305 40) rotate(90) scale(40 40.4514)">
<stop stop-color="#19C2EF"/>
<stop offset="1" stop-color="#056CE9" stop-opacity="0"/>
</radialGradient>
<linearGradient id="paint1_linear_1_12117" x1="60.1304" y1="69.1892" x2="60.1304" y2="10.8108" gradientUnits="userSpaceOnUse">
<stop stop-color="#0974F8"/>
<stop offset="1" stop-color="#4FB2FE"/>
</linearGradient>
<linearGradient id="paint2_linear_1_12117" x1="60.5" y1="24" x2="60.5" y2="56" gradientUnits="userSpaceOnUse">
<stop stop-color="#0974F8"/>
<stop offset="1" stop-color="#4FB2FE"/>
</linearGradient>
</defs>
</svg>
