<svg width="121" height="46" viewBox="0 0 121 46" fill="none" xmlns="http://www.w3.org/2000/svg">
<g opacity="0.8">
<path d="M47.8189 45.5696H-1V0H120.403L108.794 11.5686C108.419 11.9421 107.911 12.1519 107.382 12.1519H83.0058C82.4765 12.1519 81.9689 12.3617 81.594 12.7352L49.2307 44.9863C48.8558 45.3599 48.3482 45.5696 47.8189 45.5696Z" fill="url(#paint0_linear_10_16)"/>
<path d="M47.8189 45.0696H-0.5V0.5H119.193L108.441 11.2144C108.16 11.4946 107.779 11.6519 107.382 11.6519H83.0058C82.3442 11.6519 81.7097 11.9141 81.2411 12.3811L48.8778 44.6321C48.5966 44.9123 48.2159 45.0696 47.8189 45.0696Z" stroke="url(#paint1_linear_10_16)" stroke-opacity="0.9"/>
</g>
<g opacity="0.2">
<path d="M0 0H48V1H0V0Z" fill="url(#paint2_linear_10_16)"/>
<path d="M0 3H48V4H0V3Z" fill="url(#paint3_linear_10_16)"/>
<path d="M0 6H48V7H0V6Z" fill="url(#paint4_linear_10_16)"/>
<path d="M0 9H48V10H0V9Z" fill="url(#paint5_linear_10_16)"/>
<path d="M0 12H48V13H0V12Z" fill="url(#paint6_linear_10_16)"/>
<path d="M0 15H48V16H0V15Z" fill="url(#paint7_linear_10_16)"/>
<path d="M0 18H48V19H0V18Z" fill="url(#paint8_linear_10_16)"/>
<path d="M0 21H48V22H0V21Z" fill="url(#paint9_linear_10_16)"/>
<path d="M0 24H48V25H0V24Z" fill="url(#paint10_linear_10_16)"/>
<path d="M0 27H48V28H0V27Z" fill="url(#paint11_linear_10_16)"/>
<path d="M0 30H48V31H0V30Z" fill="url(#paint12_linear_10_16)"/>
<path d="M0 33H48V34H0V33Z" fill="url(#paint13_linear_10_16)"/>
<path d="M0 36H48V37H0V36Z" fill="url(#paint14_linear_10_16)"/>
<path d="M0 39H48V40H0V39Z" fill="url(#paint15_linear_10_16)"/>
<path d="M0 42H48V43H0V42Z" fill="url(#paint16_linear_10_16)"/>
</g>
<defs>
<linearGradient id="paint0_linear_10_16" x1="3.00935" y1="15.5696" x2="235" y2="15.5696" gradientUnits="userSpaceOnUse">
<stop stop-color="#076CE9" stop-opacity="0.6"/>
<stop offset="1" stop-color="#0E0B26" stop-opacity="0.51"/>
</linearGradient>
<linearGradient id="paint1_linear_10_16" x1="142" y1="-9.43038" x2="142" y2="45.5696" gradientUnits="userSpaceOnUse">
<stop stop-opacity="0"/>
<stop offset="0.55" stop-color="#19C2EF" stop-opacity="0.33"/>
</linearGradient>
<linearGradient id="paint2_linear_10_16" x1="48" y1="43" x2="0" y2="43" gradientUnits="userSpaceOnUse">
<stop stop-color="#19C2EF" stop-opacity="0"/>
<stop offset="1" stop-color="#19C2EF"/>
</linearGradient>
<linearGradient id="paint3_linear_10_16" x1="48" y1="43" x2="0" y2="43" gradientUnits="userSpaceOnUse">
<stop stop-color="#19C2EF" stop-opacity="0"/>
<stop offset="1" stop-color="#19C2EF"/>
</linearGradient>
<linearGradient id="paint4_linear_10_16" x1="48" y1="43" x2="0" y2="43" gradientUnits="userSpaceOnUse">
<stop stop-color="#19C2EF" stop-opacity="0"/>
<stop offset="1" stop-color="#19C2EF"/>
</linearGradient>
<linearGradient id="paint5_linear_10_16" x1="48" y1="43" x2="0" y2="43" gradientUnits="userSpaceOnUse">
<stop stop-color="#19C2EF" stop-opacity="0"/>
<stop offset="1" stop-color="#19C2EF"/>
</linearGradient>
<linearGradient id="paint6_linear_10_16" x1="48" y1="43" x2="0" y2="43" gradientUnits="userSpaceOnUse">
<stop stop-color="#19C2EF" stop-opacity="0"/>
<stop offset="1" stop-color="#19C2EF"/>
</linearGradient>
<linearGradient id="paint7_linear_10_16" x1="48" y1="43" x2="0" y2="43" gradientUnits="userSpaceOnUse">
<stop stop-color="#19C2EF" stop-opacity="0"/>
<stop offset="1" stop-color="#19C2EF"/>
</linearGradient>
<linearGradient id="paint8_linear_10_16" x1="48" y1="43" x2="0" y2="43" gradientUnits="userSpaceOnUse">
<stop stop-color="#19C2EF" stop-opacity="0"/>
<stop offset="1" stop-color="#19C2EF"/>
</linearGradient>
<linearGradient id="paint9_linear_10_16" x1="48" y1="43" x2="0" y2="43" gradientUnits="userSpaceOnUse">
<stop stop-color="#19C2EF" stop-opacity="0"/>
<stop offset="1" stop-color="#19C2EF"/>
</linearGradient>
<linearGradient id="paint10_linear_10_16" x1="48" y1="43" x2="0" y2="43" gradientUnits="userSpaceOnUse">
<stop stop-color="#19C2EF" stop-opacity="0"/>
<stop offset="1" stop-color="#19C2EF"/>
</linearGradient>
<linearGradient id="paint11_linear_10_16" x1="48" y1="43" x2="0" y2="43" gradientUnits="userSpaceOnUse">
<stop stop-color="#19C2EF" stop-opacity="0"/>
<stop offset="1" stop-color="#19C2EF"/>
</linearGradient>
<linearGradient id="paint12_linear_10_16" x1="48" y1="43" x2="0" y2="43" gradientUnits="userSpaceOnUse">
<stop stop-color="#19C2EF" stop-opacity="0"/>
<stop offset="1" stop-color="#19C2EF"/>
</linearGradient>
<linearGradient id="paint13_linear_10_16" x1="48" y1="43" x2="0" y2="43" gradientUnits="userSpaceOnUse">
<stop stop-color="#19C2EF" stop-opacity="0"/>
<stop offset="1" stop-color="#19C2EF"/>
</linearGradient>
<linearGradient id="paint14_linear_10_16" x1="48" y1="43" x2="0" y2="43" gradientUnits="userSpaceOnUse">
<stop stop-color="#19C2EF" stop-opacity="0"/>
<stop offset="1" stop-color="#19C2EF"/>
</linearGradient>
<linearGradient id="paint15_linear_10_16" x1="48" y1="43" x2="0" y2="43" gradientUnits="userSpaceOnUse">
<stop stop-color="#19C2EF" stop-opacity="0"/>
<stop offset="1" stop-color="#19C2EF"/>
</linearGradient>
<linearGradient id="paint16_linear_10_16" x1="48" y1="43" x2="0" y2="43" gradientUnits="userSpaceOnUse">
<stop stop-color="#19C2EF" stop-opacity="0"/>
<stop offset="1" stop-color="#19C2EF"/>
</linearGradient>
</defs>
</svg>
