<svg width="142" height="142" viewBox="0 0 142 142" fill="none" xmlns="http://www.w3.org/2000/svg">
<path fill-rule="evenodd" clip-rule="evenodd" d="M117.662 89.0005L112.064 86.8398C113.959 81.9329 115 76.5952 115 71C115 65.4049 113.959 60.0671 112.064 55.1602L117.662 52.9995C119.818 58.5848 121 64.6543 121 71C121 77.3457 119.818 83.4152 117.662 89.0005ZM116.722 50.7324L111.238 53.1669C106.815 43.2051 98.7949 35.1846 88.8331 30.7622L91.2677 25.2783C102.589 30.3042 111.696 39.4114 116.722 50.7324ZM89.0006 24.3382L86.8399 29.9356C81.933 28.0414 76.5952 27 71.0001 27C65.4049 27 60.0672 28.0414 55.1603 29.9356L52.9995 24.3382C58.5848 22.1821 64.6544 21 71.0001 21C77.3457 21 83.4153 22.1821 89.0006 24.3382ZM50.7325 25.2783L53.167 30.7622C43.2052 35.1846 35.1847 43.2051 30.7622 53.1669L25.2784 50.7324C30.3042 39.4114 39.4114 30.3042 50.7325 25.2783ZM24.3382 52.9995C22.1822 58.5848 21.0001 64.6543 21.0001 71C21.0001 77.3457 22.1822 83.4152 24.3382 89.0005L29.9356 86.8398C28.0415 81.9329 27.0001 76.5951 27.0001 71C27.0001 65.4048 28.0415 60.0671 29.9356 55.1602L24.3382 52.9995ZM25.2783 91.2676L30.7622 88.8331C35.1847 98.7949 43.2052 106.815 53.167 111.238L50.7325 116.722C39.4114 111.696 30.3042 102.589 25.2783 91.2676ZM52.9995 117.662L55.1603 112.064C60.0672 113.959 65.4049 115 71.0001 115C76.5952 115 81.9329 113.959 86.8398 112.064L89.0006 117.662C83.4153 119.818 77.3457 121 71.0001 121C64.6544 121 58.5848 119.818 52.9995 117.662ZM91.2676 116.722L88.8331 111.238C98.7949 106.815 106.815 98.7949 111.238 88.8331L116.722 91.2676C111.696 102.589 102.589 111.696 91.2676 116.722Z" fill="url(#paint0_linear_1_6399)"/>
<circle cx="71.0001" cy="71" r="40" fill="url(#paint1_radial_1_6399)" fill-opacity="0.8"/>
<g style="mix-blend-mode:overlay" opacity="0.9">
<path fill-rule="evenodd" clip-rule="evenodd" d="M137.935 94.7571L138.256 93.8095C140.743 86.4624 142.008 78.7568 142 71C142.008 63.2432 140.743 55.5376 138.256 48.1905L137.935 47.2429L132.282 49.1595C129.026 40.087 123.802 31.8427 116.98 25.021C110.158 18.1991 101.914 12.9749 92.8416 9.71849L94.7583 4.0643L93.8094 3.74416C79.0133 -1.24796 62.988 -1.24805 48.1918 3.74387L47.2429 4.064L49.1596 9.71793C40.087 12.9742 31.8428 18.1984 25.0211 25.0202C18.1993 31.8419 12.9751 40.0861 9.71884 49.1586L4.06467 47.2417L3.7445 48.1906C-1.24809 62.9871 -1.24809 79.0129 3.7445 93.8094L4.06468 94.7583L9.71887 92.8413C12.9677 101.892 18.1753 110.119 24.9741 116.932C31.773 123.744 39.9893 128.968 49.0338 132.235L47.1049 137.887L48.0531 138.209C62.9337 143.264 79.067 143.264 93.9475 138.209L94.8958 137.887L92.9664 132.235C102.011 128.968 110.228 123.744 117.027 116.931C123.825 110.119 129.033 101.892 132.282 92.8405L137.935 94.7571ZM131.666 91.5756C128.494 100.854 123.245 109.285 116.319 116.225C109.392 123.165 100.972 128.431 91.7002 131.621L93.6259 137.262C93.31 137.369 92.9936 137.474 92.6767 137.577C78.5866 142.141 63.4141 142.141 49.3239 137.577C49.0072 137.474 48.691 137.369 48.3754 137.262L50.3 131.621C41.0284 128.431 32.6082 123.165 25.6819 116.225C18.7558 109.285 13.5067 100.854 10.3353 91.5766L4.69202 93.4897C4.58544 93.1738 4.48101 92.8569 4.37904 92.5399C-0.126265 78.5337 -0.126265 63.4663 4.37904 49.4601C4.48106 49.143 4.58538 48.8264 4.69202 48.5103L10.3353 50.4235C13.5136 41.1243 18.7792 32.6763 25.7282 25.7273C32.6765 18.779 41.1234 13.5138 50.4215 10.3354L50.4244 10.3344L48.5115 4.69139C48.8274 4.58481 49.1443 4.48041 49.4613 4.37845C63.4672 -0.126236 78.5341 -0.126129 92.5399 4.37872C92.8571 4.48073 93.1737 4.58505 93.4897 4.69168L91.5768 10.3349C100.876 13.5134 109.324 18.779 116.273 25.7281C123.222 32.6771 128.488 41.1251 131.666 50.4244L137.309 48.5112C137.416 48.827 137.52 49.1435 137.623 49.4606C139.868 56.4175 141.008 63.6857 141 71C141.008 78.3143 139.868 85.5824 137.623 92.5394C137.52 92.8565 137.416 93.173 137.309 93.4888L131.666 91.5756Z" fill="white"/>
</g>
<g clip-path="url(#clip0_1_6399)">
<path fill-rule="evenodd" clip-rule="evenodd" d="M85.3907 69.1409L60.966 53.3999C59.517 52.6195 57.8571 52.7005 57.8571 55.502V86.4981C57.8571 89.0592 59.6378 89.463 60.966 88.6002L85.3907 72.8592C86.3961 71.8319 86.3961 70.1682 85.3907 69.1409Z" fill="url(#paint2_linear_1_6399)"/>
<path d="M60.6951 88.18L60.6936 88.1809C60.1311 88.5463 59.5477 88.5963 59.1415 88.3881C58.7578 88.1915 58.3571 87.6705 58.3571 86.4981V55.502C58.3571 54.1729 58.7484 53.7125 59.0763 53.5623C59.4512 53.3907 60.0376 53.4716 60.7121 53.8311L85.0701 69.5292C85.8363 70.3518 85.8363 71.6483 85.0701 72.4709L60.6951 88.18Z" stroke="#19C2EF" stroke-opacity="0.55"/>
</g>
<defs>
<linearGradient id="paint0_linear_1_6399" x1="42.0744" y1="21" x2="42.0744" y2="101.769" gradientUnits="userSpaceOnUse">
<stop stop-color="#14B4DE"/>
<stop offset="1" stop-color="#14B4DE"/>
</linearGradient>
<radialGradient id="paint1_radial_1_6399" cx="0" cy="0" r="1" gradientUnits="userSpaceOnUse" gradientTransform="translate(71.0001 71) rotate(90) scale(40)">
<stop stop-color="#054492" stop-opacity="0"/>
<stop offset="1" stop-color="#0974F8"/>
</radialGradient>
<linearGradient id="paint2_linear_1_6399" x1="72.0009" y1="52.9755" x2="72.0009" y2="89.0109" gradientUnits="userSpaceOnUse">
<stop stop-color="#0974F8"/>
<stop offset="1" stop-color="#4FB2FE"/>
</linearGradient>
<clipPath id="clip0_1_6399">
<rect width="36" height="36" fill="white" transform="translate(54 53)"/>
</clipPath>
</defs>
</svg>
