<svg width="91" height="63" viewBox="0 0 91 63" fill="none" xmlns="http://www.w3.org/2000/svg">
<g opacity="0.25">
<path d="M90 1C90 0.723857 90.2239 0.5 90.5 0.5C90.7761 0.5 91 0.723858 91 1V62C91 62.2761 90.7761 62.5 90.5 62.5C90.2239 62.5 90 62.2761 90 62V1Z" fill="url(#paint0_linear_1_28950)"/>
<path d="M87 1C87 0.723857 87.2239 0.5 87.5 0.5C87.7761 0.5 88 0.723858 88 1V62C88 62.2761 87.7761 62.5 87.5 62.5C87.2239 62.5 87 62.2761 87 62V1Z" fill="url(#paint1_linear_1_28950)"/>
<path d="M84 1C84 0.723857 84.2239 0.5 84.5 0.5C84.7761 0.5 85 0.723858 85 1V62C85 62.2761 84.7761 62.5 84.5 62.5C84.2239 62.5 84 62.2761 84 62V1Z" fill="url(#paint2_linear_1_28950)"/>
<path d="M81 1C81 0.723857 81.2239 0.5 81.5 0.5C81.7761 0.5 82 0.723858 82 1V62C82 62.2761 81.7761 62.5 81.5 62.5C81.2239 62.5 81 62.2761 81 62V1Z" fill="url(#paint3_linear_1_28950)"/>
<path d="M78 1C78 0.723857 78.2239 0.5 78.5 0.5C78.7761 0.5 79 0.723858 79 1V62C79 62.2761 78.7761 62.5 78.5 62.5C78.2239 62.5 78 62.2761 78 62V1Z" fill="url(#paint4_linear_1_28950)"/>
<path d="M75 1C75 0.723857 75.2239 0.5 75.5 0.5C75.7761 0.5 76 0.723858 76 1V62C76 62.2761 75.7761 62.5 75.5 62.5C75.2239 62.5 75 62.2761 75 62V1Z" fill="url(#paint5_linear_1_28950)"/>
<path d="M72 1C72 0.723857 72.2239 0.5 72.5 0.5C72.7761 0.5 73 0.723858 73 1V62C73 62.2761 72.7761 62.5 72.5 62.5C72.2239 62.5 72 62.2761 72 62V1Z" fill="url(#paint6_linear_1_28950)"/>
<path d="M69 1C69 0.723857 69.2239 0.5 69.5 0.5C69.7761 0.5 70 0.723858 70 1V62C70 62.2761 69.7761 62.5 69.5 62.5C69.2239 62.5 69 62.2761 69 62V1Z" fill="url(#paint7_linear_1_28950)"/>
<path d="M66 1C66 0.723857 66.2239 0.5 66.5 0.5C66.7761 0.5 67 0.723858 67 1V62C67 62.2761 66.7761 62.5 66.5 62.5C66.2239 62.5 66 62.2761 66 62V1Z" fill="url(#paint8_linear_1_28950)"/>
<path d="M63 1C63 0.723857 63.2239 0.5 63.5 0.5C63.7761 0.5 64 0.723858 64 1V62C64 62.2761 63.7761 62.5 63.5 62.5C63.2239 62.5 63 62.2761 63 62V1Z" fill="url(#paint9_linear_1_28950)"/>
<path d="M60 1C60 0.723857 60.2239 0.5 60.5 0.5C60.7761 0.5 61 0.723858 61 1V62C61 62.2761 60.7761 62.5 60.5 62.5C60.2239 62.5 60 62.2761 60 62V1Z" fill="url(#paint10_linear_1_28950)"/>
<path d="M57 1C57 0.723857 57.2239 0.5 57.5 0.5C57.7761 0.5 58 0.723858 58 1V62C58 62.2761 57.7761 62.5 57.5 62.5C57.2239 62.5 57 62.2761 57 62V1Z" fill="url(#paint11_linear_1_28950)"/>
<path d="M54 1C54 0.723857 54.2239 0.5 54.5 0.5C54.7761 0.5 55 0.723858 55 1V62C55 62.2761 54.7761 62.5 54.5 62.5C54.2239 62.5 54 62.2761 54 62V1Z" fill="url(#paint12_linear_1_28950)"/>
<path d="M51 1C51 0.723857 51.2239 0.5 51.5 0.5C51.7761 0.5 52 0.723858 52 1V62C52 62.2761 51.7761 62.5 51.5 62.5C51.2239 62.5 51 62.2761 51 62V1Z" fill="url(#paint13_linear_1_28950)"/>
<path d="M48 1C48 0.723857 48.2239 0.5 48.5 0.5C48.7761 0.5 49 0.723858 49 1V62C49 62.2761 48.7761 62.5 48.5 62.5C48.2239 62.5 48 62.2761 48 62V1Z" fill="url(#paint14_linear_1_28950)"/>
<path d="M45 1C45 0.723857 45.2239 0.5 45.5 0.5C45.7761 0.5 46 0.723858 46 1V62C46 62.2761 45.7761 62.5 45.5 62.5C45.2239 62.5 45 62.2761 45 62V1Z" fill="url(#paint15_linear_1_28950)"/>
<path d="M42 1C42 0.723857 42.2239 0.5 42.5 0.5C42.7761 0.5 43 0.723858 43 1V62C43 62.2761 42.7761 62.5 42.5 62.5C42.2239 62.5 42 62.2761 42 62V1Z" fill="url(#paint16_linear_1_28950)"/>
<path d="M39 1C39 0.723857 39.2239 0.5 39.5 0.5C39.7761 0.5 40 0.723858 40 1V62C40 62.2761 39.7761 62.5 39.5 62.5C39.2239 62.5 39 62.2761 39 62V1Z" fill="url(#paint17_linear_1_28950)"/>
<path d="M36 1C36 0.723857 36.2239 0.5 36.5 0.5C36.7761 0.5 37 0.723858 37 1V62C37 62.2761 36.7761 62.5 36.5 62.5C36.2239 62.5 36 62.2761 36 62V1Z" fill="url(#paint18_linear_1_28950)"/>
<path d="M33 1C33 0.723857 33.2239 0.5 33.5 0.5C33.7761 0.5 34 0.723858 34 1V62C34 62.2761 33.7761 62.5 33.5 62.5C33.2239 62.5 33 62.2761 33 62V1Z" fill="url(#paint19_linear_1_28950)"/>
<path d="M30 1C30 0.723857 30.2239 0.5 30.5 0.5C30.7761 0.5 31 0.723858 31 1V62C31 62.2761 30.7761 62.5 30.5 62.5C30.2239 62.5 30 62.2761 30 62V1Z" fill="url(#paint20_linear_1_28950)"/>
<path d="M27 1C27 0.723857 27.2239 0.5 27.5 0.5C27.7761 0.5 28 0.723858 28 1V62C28 62.2761 27.7761 62.5 27.5 62.5C27.2239 62.5 27 62.2761 27 62V1Z" fill="url(#paint21_linear_1_28950)"/>
<path d="M24 1C24 0.723857 24.2239 0.5 24.5 0.5C24.7761 0.5 25 0.723858 25 1V62C25 62.2761 24.7761 62.5 24.5 62.5C24.2239 62.5 24 62.2761 24 62V1Z" fill="url(#paint22_linear_1_28950)"/>
<path d="M21 1C21 0.723857 21.2239 0.5 21.5 0.5C21.7761 0.5 22 0.723858 22 1V62C22 62.2761 21.7761 62.5 21.5 62.5C21.2239 62.5 21 62.2761 21 62V1Z" fill="url(#paint23_linear_1_28950)"/>
<path d="M18 1C18 0.723857 18.2239 0.5 18.5 0.5C18.7761 0.5 19 0.723858 19 1V62C19 62.2761 18.7761 62.5 18.5 62.5C18.2239 62.5 18 62.2761 18 62V1Z" fill="url(#paint24_linear_1_28950)"/>
<path d="M15 1C15 0.723857 15.2239 0.5 15.5 0.5C15.7761 0.5 16 0.723858 16 1V62C16 62.2761 15.7761 62.5 15.5 62.5C15.2239 62.5 15 62.2761 15 62V1Z" fill="url(#paint25_linear_1_28950)"/>
<path d="M12 1C12 0.723857 12.2239 0.5 12.5 0.5C12.7761 0.5 13 0.723858 13 1V62C13 62.2761 12.7761 62.5 12.5 62.5C12.2239 62.5 12 62.2761 12 62V1Z" fill="url(#paint26_linear_1_28950)"/>
<path d="M9 1C9 0.723857 9.22386 0.5 9.5 0.5C9.77614 0.5 10 0.723858 10 1V62C10 62.2761 9.77614 62.5 9.5 62.5C9.22386 62.5 9 62.2761 9 62V1Z" fill="url(#paint27_linear_1_28950)"/>
<path d="M6 1C6 0.723857 6.22386 0.5 6.5 0.5C6.77614 0.5 7 0.723858 7 1V62C7 62.2761 6.77614 62.5 6.5 62.5C6.22386 62.5 6 62.2761 6 62V1Z" fill="url(#paint28_linear_1_28950)"/>
<path d="M3 1C3 0.723857 3.22386 0.5 3.5 0.5C3.77614 0.5 4 0.723858 4 1V62C4 62.2761 3.77614 62.5 3.5 62.5C3.22386 62.5 3 62.2761 3 62V1Z" fill="url(#paint29_linear_1_28950)"/>
<path d="M0 1C0 0.723857 0.223858 0.5 0.5 0.5C0.776142 0.5 1 0.723858 1 1V62C1 62.2761 0.776142 62.5 0.5 62.5C0.223858 62.5 0 62.2761 0 62V1Z" fill="url(#paint30_linear_1_28950)"/>
</g>
<defs>
<linearGradient id="paint0_linear_1_28950" x1="0.363014" y1="2.08974" x2="0.359772" y2="62.5" gradientUnits="userSpaceOnUse">
<stop stop-color="#076CE9" stop-opacity="0"/>
<stop offset="1" stop-color="#19C2EF"/>
</linearGradient>
<linearGradient id="paint1_linear_1_28950" x1="0.363014" y1="2.08974" x2="0.359772" y2="62.5" gradientUnits="userSpaceOnUse">
<stop stop-color="#076CE9" stop-opacity="0"/>
<stop offset="1" stop-color="#19C2EF"/>
</linearGradient>
<linearGradient id="paint2_linear_1_28950" x1="0.363014" y1="2.08974" x2="0.359772" y2="62.5" gradientUnits="userSpaceOnUse">
<stop stop-color="#076CE9" stop-opacity="0"/>
<stop offset="1" stop-color="#19C2EF"/>
</linearGradient>
<linearGradient id="paint3_linear_1_28950" x1="0.363014" y1="2.08974" x2="0.359772" y2="62.5" gradientUnits="userSpaceOnUse">
<stop stop-color="#076CE9" stop-opacity="0"/>
<stop offset="1" stop-color="#19C2EF"/>
</linearGradient>
<linearGradient id="paint4_linear_1_28950" x1="0.363014" y1="2.08974" x2="0.359772" y2="62.5" gradientUnits="userSpaceOnUse">
<stop stop-color="#076CE9" stop-opacity="0"/>
<stop offset="1" stop-color="#19C2EF"/>
</linearGradient>
<linearGradient id="paint5_linear_1_28950" x1="0.363014" y1="2.08974" x2="0.359772" y2="62.5" gradientUnits="userSpaceOnUse">
<stop stop-color="#076CE9" stop-opacity="0"/>
<stop offset="1" stop-color="#19C2EF"/>
</linearGradient>
<linearGradient id="paint6_linear_1_28950" x1="0.363014" y1="2.08974" x2="0.359772" y2="62.5" gradientUnits="userSpaceOnUse">
<stop stop-color="#076CE9" stop-opacity="0"/>
<stop offset="1" stop-color="#19C2EF"/>
</linearGradient>
<linearGradient id="paint7_linear_1_28950" x1="0.363014" y1="2.08974" x2="0.359772" y2="62.5" gradientUnits="userSpaceOnUse">
<stop stop-color="#076CE9" stop-opacity="0"/>
<stop offset="1" stop-color="#19C2EF"/>
</linearGradient>
<linearGradient id="paint8_linear_1_28950" x1="0.363014" y1="2.08974" x2="0.359772" y2="62.5" gradientUnits="userSpaceOnUse">
<stop stop-color="#076CE9" stop-opacity="0"/>
<stop offset="1" stop-color="#19C2EF"/>
</linearGradient>
<linearGradient id="paint9_linear_1_28950" x1="0.363014" y1="2.08974" x2="0.359772" y2="62.5" gradientUnits="userSpaceOnUse">
<stop stop-color="#076CE9" stop-opacity="0"/>
<stop offset="1" stop-color="#19C2EF"/>
</linearGradient>
<linearGradient id="paint10_linear_1_28950" x1="0.363014" y1="2.08974" x2="0.359772" y2="62.5" gradientUnits="userSpaceOnUse">
<stop stop-color="#076CE9" stop-opacity="0"/>
<stop offset="1" stop-color="#19C2EF"/>
</linearGradient>
<linearGradient id="paint11_linear_1_28950" x1="0.363014" y1="2.08974" x2="0.359772" y2="62.5" gradientUnits="userSpaceOnUse">
<stop stop-color="#076CE9" stop-opacity="0"/>
<stop offset="1" stop-color="#19C2EF"/>
</linearGradient>
<linearGradient id="paint12_linear_1_28950" x1="0.363014" y1="2.08974" x2="0.359772" y2="62.5" gradientUnits="userSpaceOnUse">
<stop stop-color="#076CE9" stop-opacity="0"/>
<stop offset="1" stop-color="#19C2EF"/>
</linearGradient>
<linearGradient id="paint13_linear_1_28950" x1="0.363014" y1="2.08974" x2="0.359772" y2="62.5" gradientUnits="userSpaceOnUse">
<stop stop-color="#076CE9" stop-opacity="0"/>
<stop offset="1" stop-color="#19C2EF"/>
</linearGradient>
<linearGradient id="paint14_linear_1_28950" x1="0.363014" y1="2.08974" x2="0.359772" y2="62.5" gradientUnits="userSpaceOnUse">
<stop stop-color="#076CE9" stop-opacity="0"/>
<stop offset="1" stop-color="#19C2EF"/>
</linearGradient>
<linearGradient id="paint15_linear_1_28950" x1="0.363014" y1="2.08974" x2="0.359772" y2="62.5" gradientUnits="userSpaceOnUse">
<stop stop-color="#076CE9" stop-opacity="0"/>
<stop offset="1" stop-color="#19C2EF"/>
</linearGradient>
<linearGradient id="paint16_linear_1_28950" x1="0.363014" y1="2.08974" x2="0.359772" y2="62.5" gradientUnits="userSpaceOnUse">
<stop stop-color="#076CE9" stop-opacity="0"/>
<stop offset="1" stop-color="#19C2EF"/>
</linearGradient>
<linearGradient id="paint17_linear_1_28950" x1="0.363014" y1="2.08974" x2="0.359772" y2="62.5" gradientUnits="userSpaceOnUse">
<stop stop-color="#076CE9" stop-opacity="0"/>
<stop offset="1" stop-color="#19C2EF"/>
</linearGradient>
<linearGradient id="paint18_linear_1_28950" x1="0.363014" y1="2.08974" x2="0.359772" y2="62.5" gradientUnits="userSpaceOnUse">
<stop stop-color="#076CE9" stop-opacity="0"/>
<stop offset="1" stop-color="#19C2EF"/>
</linearGradient>
<linearGradient id="paint19_linear_1_28950" x1="0.363014" y1="2.08974" x2="0.359772" y2="62.5" gradientUnits="userSpaceOnUse">
<stop stop-color="#076CE9" stop-opacity="0"/>
<stop offset="1" stop-color="#19C2EF"/>
</linearGradient>
<linearGradient id="paint20_linear_1_28950" x1="0.363014" y1="2.08974" x2="0.359772" y2="62.5" gradientUnits="userSpaceOnUse">
<stop stop-color="#076CE9" stop-opacity="0"/>
<stop offset="1" stop-color="#19C2EF"/>
</linearGradient>
<linearGradient id="paint21_linear_1_28950" x1="0.363014" y1="2.08974" x2="0.359772" y2="62.5" gradientUnits="userSpaceOnUse">
<stop stop-color="#076CE9" stop-opacity="0"/>
<stop offset="1" stop-color="#19C2EF"/>
</linearGradient>
<linearGradient id="paint22_linear_1_28950" x1="0.363014" y1="2.08974" x2="0.359772" y2="62.5" gradientUnits="userSpaceOnUse">
<stop stop-color="#076CE9" stop-opacity="0"/>
<stop offset="1" stop-color="#19C2EF"/>
</linearGradient>
<linearGradient id="paint23_linear_1_28950" x1="0.363014" y1="2.08974" x2="0.359772" y2="62.5" gradientUnits="userSpaceOnUse">
<stop stop-color="#076CE9" stop-opacity="0"/>
<stop offset="1" stop-color="#19C2EF"/>
</linearGradient>
<linearGradient id="paint24_linear_1_28950" x1="0.363014" y1="2.08974" x2="0.359772" y2="62.5" gradientUnits="userSpaceOnUse">
<stop stop-color="#076CE9" stop-opacity="0"/>
<stop offset="1" stop-color="#19C2EF"/>
</linearGradient>
<linearGradient id="paint25_linear_1_28950" x1="0.363014" y1="2.08974" x2="0.359772" y2="62.5" gradientUnits="userSpaceOnUse">
<stop stop-color="#076CE9" stop-opacity="0"/>
<stop offset="1" stop-color="#19C2EF"/>
</linearGradient>
<linearGradient id="paint26_linear_1_28950" x1="0.363014" y1="2.08974" x2="0.359772" y2="62.5" gradientUnits="userSpaceOnUse">
<stop stop-color="#076CE9" stop-opacity="0"/>
<stop offset="1" stop-color="#19C2EF"/>
</linearGradient>
<linearGradient id="paint27_linear_1_28950" x1="0.363014" y1="2.08974" x2="0.359772" y2="62.5" gradientUnits="userSpaceOnUse">
<stop stop-color="#076CE9" stop-opacity="0"/>
<stop offset="1" stop-color="#19C2EF"/>
</linearGradient>
<linearGradient id="paint28_linear_1_28950" x1="0.363014" y1="2.08974" x2="0.359772" y2="62.5" gradientUnits="userSpaceOnUse">
<stop stop-color="#076CE9" stop-opacity="0"/>
<stop offset="1" stop-color="#19C2EF"/>
</linearGradient>
<linearGradient id="paint29_linear_1_28950" x1="0.363014" y1="2.08974" x2="0.359772" y2="62.5" gradientUnits="userSpaceOnUse">
<stop stop-color="#076CE9" stop-opacity="0"/>
<stop offset="1" stop-color="#19C2EF"/>
</linearGradient>
<linearGradient id="paint30_linear_1_28950" x1="0.363014" y1="2.08974" x2="0.359772" y2="62.5" gradientUnits="userSpaceOnUse">
<stop stop-color="#076CE9" stop-opacity="0"/>
<stop offset="1" stop-color="#19C2EF"/>
</linearGradient>
</defs>
</svg>
