<svg width="81" height="80" viewBox="0 0 81 80" fill="none" xmlns="http://www.w3.org/2000/svg">
<ellipse opacity="0.55" cx="40.4514" cy="40" rx="40.4514" ry="40" fill="url(#paint0_radial_1_26507)"/>
<path d="M70 40C70.0035 43.2776 69.4691 46.5336 68.418 49.6381L65.9996 48.8181C64.6404 52.7945 62.3907 56.4077 59.4223 59.3821C56.4538 62.3565 52.8451 64.6134 48.8715 65.9806L49.6968 68.398C43.4088 70.534 36.5914 70.534 30.3035 68.398L31.1285 65.9805C27.155 64.6134 23.5463 62.3565 20.5779 59.3822C17.6096 56.4079 15.36 52.7947 14.0008 48.8185L11.5823 49.6384C9.47258 43.386 9.47258 36.614 11.5823 30.3616L14.0008 31.1815C15.363 27.1961 17.6196 23.5756 20.5978 20.5974C23.5759 17.6193 27.1965 15.3626 31.1819 14.0004L30.362 11.582C36.6144 9.47261 43.3861 9.47266 49.6384 11.5821L48.8186 14.0007C52.804 15.3629 56.4245 17.6196 59.4027 20.5977C62.3808 23.5759 64.6375 27.1965 65.9996 31.1819L68.418 30.3619C69.4691 33.4664 70.0036 36.7224 70 40ZM40 13.5232C34.7634 13.5233 29.6444 15.0761 25.2904 17.9854C20.9363 20.8947 17.5427 25.0298 15.5388 29.8678C13.5348 34.7058 13.0105 40.0293 14.0321 45.1653C15.0537 50.3013 17.5754 55.019 21.2782 58.7218C24.981 62.4246 29.6987 64.9463 34.8347 65.9679C39.9707 66.9895 45.2942 66.4652 50.1322 64.4612C54.9702 62.4573 59.1053 59.0637 62.0146 54.7096C64.9239 50.3556 66.4767 45.2366 66.4767 40C66.4688 32.9804 63.6768 26.2505 58.7131 21.2868C53.7495 16.3232 47.0196 13.5312 40 13.5232Z" fill="url(#paint1_linear_1_26507)"/>
<mask id="path-3-inside-1_1_26507" fill="white">
<path fill-rule="evenodd" clip-rule="evenodd" d="M40 28.0407C39.11 28.0407 38.2257 28.3144 35.7877 29.124L34.9328 29.4079C34.9328 29.4079 34.9328 29.4079 34.9328 29.4079C32.6696 30.1594 31.0377 30.702 29.8963 31.1519C29.3269 31.3762 28.9311 31.5579 28.6641 31.7084C28.5309 31.7834 28.456 31.8364 28.4191 31.8646C28.4032 31.9091 28.3747 31.9996 28.3437 32.1556C28.2842 32.4555 28.2361 32.8837 28.2024 33.484C28.1349 34.6873 28.1343 36.3731 28.1343 38.7074V40.9875C28.1343 48.2127 33.69 51.7912 37.4909 53.402C38.0518 53.6396 38.3384 53.7573 38.6537 53.8356C38.9465 53.9084 39.3222 53.9593 40 53.9593C40.6778 53.9593 41.0535 53.9084 41.3463 53.8356C41.6615 53.7573 41.9482 53.6396 42.5091 53.402C46.31 51.7912 51.8657 48.2126 51.8657 40.9875V38.7074C51.8657 36.3731 51.8651 34.6873 51.7976 33.484C51.7639 32.8837 51.7158 32.4554 51.6563 32.1556C51.6253 31.9996 51.5968 31.9091 51.581 31.8646C51.544 31.8364 51.4691 31.7834 51.3359 31.7084C51.069 31.5579 50.6731 31.3762 50.1038 31.1519C48.9623 30.702 47.3304 30.1594 45.0672 29.4079L44.2123 29.124C41.7743 28.3144 40.89 28.0407 40 28.0407ZM35.0179 26.1657C37.1207 25.4666 38.5245 25 40 25C41.4755 25 42.8793 25.4666 44.9821 26.1656C45.0628 26.1925 45.1446 26.2196 45.2274 26.2471L46.0823 26.531L46.136 26.5489C48.3345 27.279 50.0503 27.8487 51.2834 28.3347C51.9064 28.5802 52.4576 28.824 52.91 29.0789C53.34 29.3212 53.8174 29.6474 54.1522 30.1102C54.4824 30.5667 54.6401 31.1074 54.734 31.5802C54.8329 32.0781 54.8905 32.664 54.9273 33.3186C55 34.615 55 36.3842 55 38.6544V40.9875C55 50.0897 47.9019 54.4347 43.7638 56.1884L43.7637 56.1884L43.7122 56.2103C43.2131 56.4219 42.7069 56.6365 42.1236 56.7814C41.4977 56.9368 40.8435 57 40 57C39.1565 57 38.5023 56.9368 37.8764 56.7814C37.2931 56.6365 36.787 56.4219 36.2879 56.2103L36.2362 56.1884C32.098 54.4347 25 50.0897 25 40.9875V38.6542C25 36.3841 25 34.6149 25.0728 33.3186C25.1095 32.664 25.1671 32.0781 25.266 31.5802C25.36 31.1073 25.5176 30.5667 25.8479 30.1102M35.0179 26.1657C34.9372 26.1925 34.8555 26.2196 34.7727 26.2471L35.0179 26.1657ZM34.7727 26.2471C34.7727 26.2471 34.7727 26.2471 34.7727 26.2471V26.2471ZM34.7727 26.2471L33.9177 26.531L33.8641 26.5488C31.6656 27.2789 29.9497 27.8487 28.7166 28.3347C28.0936 28.5802 27.5425 28.824 27.09 29.0789C26.66 29.3211 26.1827 29.6474 25.8479 30.1102"/>
</mask>
<path fill-rule="evenodd" clip-rule="evenodd" d="M40 28.0407C39.11 28.0407 38.2257 28.3144 35.7877 29.124L34.9328 29.4079C34.9328 29.4079 34.9328 29.4079 34.9328 29.4079C32.6696 30.1594 31.0377 30.702 29.8963 31.1519C29.3269 31.3762 28.9311 31.5579 28.6641 31.7084C28.5309 31.7834 28.456 31.8364 28.4191 31.8646C28.4032 31.9091 28.3747 31.9996 28.3437 32.1556C28.2842 32.4555 28.2361 32.8837 28.2024 33.484C28.1349 34.6873 28.1343 36.3731 28.1343 38.7074V40.9875C28.1343 48.2127 33.69 51.7912 37.4909 53.402C38.0518 53.6396 38.3384 53.7573 38.6537 53.8356C38.9465 53.9084 39.3222 53.9593 40 53.9593C40.6778 53.9593 41.0535 53.9084 41.3463 53.8356C41.6615 53.7573 41.9482 53.6396 42.5091 53.402C46.31 51.7912 51.8657 48.2126 51.8657 40.9875V38.7074C51.8657 36.3731 51.8651 34.6873 51.7976 33.484C51.7639 32.8837 51.7158 32.4554 51.6563 32.1556C51.6253 31.9996 51.5968 31.9091 51.581 31.8646C51.544 31.8364 51.4691 31.7834 51.3359 31.7084C51.069 31.5579 50.6731 31.3762 50.1038 31.1519C48.9623 30.702 47.3304 30.1594 45.0672 29.4079L44.2123 29.124C41.7743 28.3144 40.89 28.0407 40 28.0407ZM35.0179 26.1657C37.1207 25.4666 38.5245 25 40 25C41.4755 25 42.8793 25.4666 44.9821 26.1656C45.0628 26.1925 45.1446 26.2196 45.2274 26.2471L46.0823 26.531L46.136 26.5489C48.3345 27.279 50.0503 27.8487 51.2834 28.3347C51.9064 28.5802 52.4576 28.824 52.91 29.0789C53.34 29.3212 53.8174 29.6474 54.1522 30.1102C54.4824 30.5667 54.6401 31.1074 54.734 31.5802C54.8329 32.0781 54.8905 32.664 54.9273 33.3186C55 34.615 55 36.3842 55 38.6544V40.9875C55 50.0897 47.9019 54.4347 43.7638 56.1884L43.7637 56.1884L43.7122 56.2103C43.2131 56.4219 42.7069 56.6365 42.1236 56.7814C41.4977 56.9368 40.8435 57 40 57C39.1565 57 38.5023 56.9368 37.8764 56.7814C37.2931 56.6365 36.787 56.4219 36.2879 56.2103L36.2362 56.1884C32.098 54.4347 25 50.0897 25 40.9875V38.6542C25 36.3841 25 34.6149 25.0728 33.3186C25.1095 32.664 25.1671 32.0781 25.266 31.5802C25.36 31.1073 25.5176 30.5667 25.8479 30.1102M35.0179 26.1657C34.9372 26.1925 34.8555 26.2196 34.7727 26.2471L35.0179 26.1657ZM34.7727 26.2471C34.7727 26.2471 34.7727 26.2471 34.7727 26.2471V26.2471ZM34.7727 26.2471L33.9177 26.531L33.8641 26.5488C31.6656 27.2789 29.9497 27.8487 28.7166 28.3347C28.0936 28.5802 27.5425 28.824 27.09 29.0789C26.66 29.3211 26.1827 29.6474 25.8479 30.1102" fill="url(#paint2_linear_1_26507)"/>
<path d="M35.0179 26.1657L35.2155 26.625L34.8602 25.6912L35.0179 26.1657ZM25.8479 30.1102L25.6493 29.6513L26.0455 30.5695L25.8479 30.1102ZM34.7727 26.2471L34.615 25.7727L34.5942 25.7796L34.574 25.7883L34.7727 26.2471ZM44.2483 27.5192L43.7408 28.9576L44.6838 29.2904L45.1914 27.8519L44.2483 27.5192ZM45.2277 27.749L45.6989 26.4135L44.7559 26.0808L44.2846 27.4163L45.2277 27.749ZM26.0455 30.5695L35.2155 26.625L34.8203 25.7063L25.6503 29.6508L26.0455 30.5695ZM34.8602 25.6912L34.615 25.7727L34.9303 26.7216L35.1756 26.6401L34.8602 25.6912ZM26.0465 30.569L34.9713 26.706L34.574 25.7883L25.6493 29.6513L26.0465 30.569ZM34.8082 27.8505L34.8087 27.852L35.7517 27.5191L35.7511 27.5176L34.8082 27.8505ZM35.7877 29.124L36.1029 30.073L36.1029 30.073L35.7877 29.124ZM29.8963 31.1519L29.5296 30.2215H29.5296L29.8963 31.1519ZM28.6641 31.7084L29.155 32.5796L29.155 32.5796L28.6641 31.7084ZM28.4191 31.8646L27.8122 31.0698L27.5766 31.2496L27.4771 31.5289L28.4191 31.8646ZM28.3437 32.1556L29.3246 32.3504V32.3504L28.3437 32.1556ZM28.2024 33.484L27.204 33.4279L28.2024 33.484ZM37.4909 53.402L37.1007 54.3227L37.1007 54.3227L37.4909 53.402ZM38.6537 53.8356L38.4127 54.8062H38.4127L38.6537 53.8356ZM41.3463 53.8356L41.5873 54.8062H41.5873L41.3463 53.8356ZM42.5091 53.402L42.8992 54.3227L42.8993 54.3227L42.5091 53.402ZM51.7976 33.484L50.7991 33.54V33.54L51.7976 33.484ZM51.6563 32.1556L50.6754 32.3504L50.6754 32.3504L51.6563 32.1556ZM51.581 31.8646L52.5229 31.5288L52.4234 31.2496L52.1878 31.0697L51.581 31.8646ZM51.3359 31.7084L50.8451 32.5796L50.8451 32.5796L51.3359 31.7084ZM50.1038 31.1519L50.4704 30.2215L50.1038 31.1519ZM45.0672 29.4079L45.3824 28.4589L45.3824 28.4589L45.0672 29.4079ZM44.2123 29.124L44.5275 28.175L44.5275 28.175L44.2123 29.124ZM35.0179 26.1657L35.3333 27.1146L35.0179 26.1657ZM44.9821 26.1656L45.2975 25.2167L45.2975 25.2167L44.9821 26.1656ZM45.2274 26.2471L45.5425 25.2981L45.5425 25.2981L45.2274 26.2471ZM46.0823 26.531L45.7672 27.4801L45.7672 27.4801L46.0823 26.531ZM46.136 26.5489L46.4511 25.5998L46.4511 25.5998L46.136 26.5489ZM51.2834 28.3347L50.9168 29.2651L51.2834 28.3347ZM52.91 29.0789L52.4191 29.9501L52.4191 29.9501L52.91 29.0789ZM54.1522 30.1102L54.9624 29.524L54.9624 29.524L54.1522 30.1102ZM54.734 31.5802L53.7531 31.775L53.7532 31.775L54.734 31.5802ZM54.9273 33.3186L55.9257 33.2626L55.9257 33.2626L54.9273 33.3186ZM55 38.6544L54 38.6544V38.6544H55ZM43.7638 56.1884L44.1419 57.1142L44.154 57.1091L43.7638 56.1884ZM43.7637 56.1884L43.3855 55.2626L43.3734 55.2677L43.7637 56.1884ZM43.7122 56.2103L43.3219 55.2896L43.3218 55.2896L43.7122 56.2103ZM42.1236 56.7814L41.8826 55.8109H41.8826L42.1236 56.7814ZM37.8764 56.7814L38.1174 55.8109L37.8764 56.7814ZM36.2879 56.2103L36.6782 55.2897L36.6781 55.2896L36.2879 56.2103ZM36.2362 56.1884L36.6264 55.2677L36.6264 55.2677L36.2362 56.1884ZM25 38.6542H26V38.6542L25 38.6542ZM25.0728 33.3186L24.0743 33.2626L25.0728 33.3186ZM25.266 31.5802L24.2852 31.3854L24.2852 31.3854L25.266 31.5802ZM25.8479 30.1102L25.0377 29.524L25.0377 29.524L25.8479 30.1102ZM33.9177 26.531L33.6026 25.582L33.6026 25.582L33.9177 26.531ZM33.8641 26.5488L34.1793 27.4979L34.1793 27.4979L33.8641 26.5488ZM28.7166 28.3347L29.0833 29.2651L28.7166 28.3347ZM27.09 29.0789L26.5992 28.2077L27.09 29.0789ZM36.1029 30.073C38.6066 29.2416 39.3102 29.0407 40 29.0407V27.0407C38.9099 27.0407 37.8449 27.3872 35.4726 28.175L36.1029 30.073ZM35.2479 30.3569L36.1029 30.073L35.4726 28.175L34.6176 28.4589L35.2479 30.3569ZM35.2405 30.3594H35.2405C35.2405 30.3594 35.2405 30.3594 35.2405 30.3594C35.2405 30.3594 35.2405 30.3594 35.2405 30.3594C35.2405 30.3594 35.2405 30.3594 35.2405 30.3594C35.2405 30.3594 35.2405 30.3594 35.2405 30.3594C35.2405 30.3594 35.2405 30.3594 35.2405 30.3594C35.2405 30.3594 35.2405 30.3594 35.2405 30.3594C35.2405 30.3594 35.2405 30.3594 35.2405 30.3594C35.2405 30.3594 35.2405 30.3594 35.2405 30.3594C33.9813 29.7156 34.6251 28.4564 34.6251 28.4564C34.6251 28.4564 34.6251 28.4564 34.6251 28.4564C34.6251 28.4564 34.6251 28.4564 34.6251 28.4564C34.6251 28.4564 34.6251 28.4564 34.6251 28.4564C34.6251 28.4564 34.6251 28.4564 34.6251 28.4564C34.6251 28.4564 34.6251 28.4564 34.6251 28.4564C34.6251 28.4564 34.6251 28.4564 34.6251 28.4564C34.6251 28.4564 34.6251 28.4564 34.6251 28.4564C34.6251 28.4564 34.6251 28.4564 34.6251 28.4564C34.6251 28.4564 34.6251 28.4564 34.6251 28.4564C34.6251 28.4564 34.6251 28.4564 34.6251 28.4564C34.6251 28.4564 34.6251 28.4564 34.6251 28.4564C34.6251 28.4564 33.9813 29.7156 35.2405 30.3594C35.2405 30.3594 35.2405 30.3594 35.2405 30.3594C35.2405 30.3594 35.2405 30.3594 35.2405 30.3594C35.2405 30.3594 35.2405 30.3594 35.2405 30.3594C35.2405 30.3594 35.2405 30.3594 35.2405 30.3594C35.2405 30.3594 35.2405 30.3594 35.2405 30.3594C35.2405 30.3594 35.2405 30.3594 35.2405 30.3594C35.2405 30.3594 35.2405 30.3594 35.2405 30.3594C35.2405 30.3594 35.2405 30.3594 35.2405 30.3594C35.2405 30.3594 35.2405 30.3594 35.2405 30.3594C35.2405 30.3594 35.2405 30.3594 35.2405 30.3594L34.6251 28.4564C34.6251 28.4564 34.6251 28.4564 34.6251 28.4564C34.6251 28.4564 34.6251 28.4564 34.6251 28.4564C34.6251 28.4564 34.6251 28.4564 34.6251 28.4564C34.6251 28.4564 34.6251 28.4564 34.6251 28.4564C34.6251 28.4564 34.6251 28.4564 34.6251 28.4564C34.6251 28.4564 34.6251 28.4564 34.6251 28.4564C34.6251 28.4564 34.6251 28.4564 34.6251 28.4564C34.6251 28.4564 34.6251 28.4564 34.6251 28.4564C34.6251 28.4564 34.6251 28.4564 34.6251 28.4564C35.8843 29.1002 35.2405 30.3594 35.2405 30.3594C35.2405 30.3594 35.2405 30.3594 35.2405 30.3594C35.2405 30.3594 35.2405 30.3594 35.2405 30.3594C35.2405 30.3594 35.2405 30.3594 35.2405 30.3594C35.2405 30.3594 35.2405 30.3594 35.2405 30.3594C35.2405 30.3594 35.2405 30.3594 35.2405 30.3594C35.2405 30.3594 35.2405 30.3594 35.2405 30.3594C35.2405 30.3594 35.2405 30.3594 35.2405 30.3594C35.2405 30.3594 35.2405 30.3594 35.2405 30.3594C35.2405 30.3594 35.2405 30.3594 35.2405 30.3594C35.2405 30.3594 35.2405 30.3594 35.2405 30.3594C35.2405 30.3594 35.2405 30.3594 35.2405 30.3594C35.2405 30.3594 35.8843 29.1002 34.6251 28.4564C34.6251 28.4564 34.6251 28.4564 34.6251 28.4564C34.6251 28.4564 34.6251 28.4564 34.6251 28.4564C34.6251 28.4564 34.6251 28.4564 34.6251 28.4564C34.6251 28.4564 34.6251 28.4564 34.6251 28.4564C34.6251 28.4564 34.6251 28.4564 34.6251 28.4564C34.6251 28.4564 34.6251 28.4564 34.6251 28.4564C34.6251 28.4564 34.6251 28.4564 34.6251 28.4564C34.6251 28.4564 34.6251 28.4564 34.6251 28.4564C34.6251 28.4564 34.6251 28.4564 34.6251 28.4564C34.6251 28.4564 34.6251 28.4564 34.6251 28.4564C34.6251 28.4564 34.6251 28.4564 34.6251 28.4564C34.6251 28.4564 34.6251 28.4564 34.6251 28.4564C34.6251 28.4564 34.6251 28.4564 34.6251 28.4564L35.2405 30.3594ZM30.2629 32.0822C31.3725 31.6449 32.9725 31.1126 35.2479 30.3569L34.6176 28.4589C32.3668 29.2063 30.7029 29.7591 29.5296 30.2215L30.2629 32.0822ZM29.155 32.5796C29.3632 32.4623 29.7101 32.3001 30.2629 32.0822L29.5296 30.2215C28.9437 30.4524 28.4989 30.6536 28.1732 30.8371L29.155 32.5796ZM29.0259 32.6594C29.0223 32.6621 29.0579 32.6343 29.155 32.5796L28.1732 30.8371C28.0039 30.9325 27.8896 31.0106 27.8122 31.0698L29.0259 32.6594ZM29.3246 32.3504C29.347 32.2375 29.3631 32.1945 29.361 32.2003L27.4771 31.5289C27.4433 31.6237 27.4024 31.7617 27.3629 31.9608L29.3246 32.3504ZM29.2009 33.54C29.2335 32.9581 29.2783 32.5832 29.3246 32.3504L27.3629 31.9608C27.29 32.3277 27.2387 32.8094 27.204 33.4279L29.2009 33.54ZM29.1343 38.7074C29.1343 36.3599 29.1353 34.7083 29.2009 33.54L27.204 33.4279C27.1345 34.6662 27.1343 36.3863 27.1343 38.7074H29.1343ZM37.8811 52.4812C34.1769 50.9115 29.1343 47.5807 29.1343 40.9875H27.1343C27.1343 48.8446 33.203 52.6709 37.1007 54.3227L37.8811 52.4812ZM38.8947 52.8651C38.67 52.8093 38.458 52.7257 37.881 52.4812L37.1007 54.3227C37.6456 54.5536 38.0068 54.7054 38.4127 54.8062L38.8947 52.8651ZM40 52.9593C39.3733 52.9593 39.084 52.9121 38.8947 52.8651L38.4127 54.8062C38.8091 54.9046 39.2711 54.9593 40 54.9593V52.9593ZM41.1053 52.8651C40.916 52.9121 40.6268 52.9593 40 52.9593V54.9593C40.7289 54.9593 41.1909 54.9046 41.5873 54.8062L41.1053 52.8651ZM42.1189 52.4812C41.542 52.7257 41.33 52.8093 41.1052 52.8651L41.5873 54.8062C41.9931 54.7054 42.3544 54.5536 42.8992 54.3227L42.1189 52.4812ZM50.8657 40.9875C50.8657 47.5807 45.823 50.9114 42.1189 52.4812L42.8993 54.3227C46.797 52.6709 52.8657 48.8446 52.8657 40.9875H50.8657ZM50.7991 33.54C50.8647 34.7083 50.8657 36.3599 50.8657 38.7074H52.8657C52.8657 36.3863 52.8655 34.6662 52.796 33.4279L50.7991 33.54ZM50.6754 32.3504C50.7217 32.5832 50.7665 32.958 50.7991 33.54L52.796 33.4279C52.7613 32.8094 52.71 32.3277 52.6371 31.9607L50.6754 32.3504ZM50.639 32.2003C50.6369 32.1944 50.653 32.2374 50.6754 32.3504L52.6371 31.9608C52.5976 31.7617 52.5567 31.6237 52.5229 31.5288L50.639 32.2003ZM50.8451 32.5796C50.9421 32.6342 50.9777 32.6621 50.9741 32.6594L52.1878 31.0697C52.1103 31.0106 51.9961 30.9325 51.8268 30.8371L50.8451 32.5796ZM49.7371 32.0822C50.2899 32.3001 50.6368 32.4623 50.8451 32.5796L51.8268 30.8371C51.5012 30.6536 51.0563 30.4524 50.4704 30.2215L49.7371 32.0822ZM44.7521 30.3569C47.0275 31.1126 48.6275 31.6449 49.7371 32.0822L50.4704 30.2215C49.2971 29.7591 47.6333 29.2063 45.3824 28.4589L44.7521 30.3569ZM43.8972 30.073L44.7521 30.3569L45.3824 28.4589L44.5275 28.175L43.8972 30.073ZM40 29.0407C40.6898 29.0407 41.3934 29.2416 43.8972 30.073L44.5275 28.175C42.1551 27.3872 41.0901 27.0407 40 27.0407V29.0407ZM40 24C38.3298 24 36.7602 24.5327 34.7024 25.2167L35.3333 27.1146C37.4813 26.4006 38.7192 26 40 26V24ZM45.2975 25.2167C43.2398 24.5327 41.6702 24 40 24V26C41.2808 26 42.5187 26.4006 44.6666 27.1146L45.2975 25.2167ZM45.5425 25.2981C45.4599 25.2706 45.3783 25.2435 45.2975 25.2167L44.6666 27.1146C44.7473 27.1414 44.8292 27.1686 44.9122 27.1962L45.5425 25.2981ZM46.3975 25.582L45.5425 25.2981L44.9122 27.1962L45.7672 27.4801L46.3975 25.582ZM46.4511 25.5998L46.3975 25.582L45.7672 27.4801L45.8208 27.4979L46.4511 25.5998ZM51.6501 27.4044C50.3853 26.9059 48.638 26.326 46.4511 25.5998L45.8208 27.4979C48.031 28.2319 49.7154 28.7916 50.9168 29.2651L51.6501 27.4044ZM53.4009 28.2077C52.8899 27.9198 52.2899 27.6565 51.6501 27.4044L50.9168 29.2651C51.5229 29.504 52.0252 29.7282 52.4191 29.9501L53.4009 28.2077ZM54.9624 29.524C54.5013 28.8866 53.8748 28.4747 53.4009 28.2077L52.4191 29.9501C52.8052 30.1676 53.1335 30.4081 53.342 30.6963L54.9624 29.524ZM55.7148 31.3854C55.6106 30.8605 55.4177 30.1534 54.9624 29.524L53.342 30.6963C53.5472 30.98 53.6696 31.3542 53.7531 31.775L55.7148 31.3854ZM55.9257 33.2626C55.8879 32.5894 55.827 31.9502 55.7148 31.3854L53.7532 31.775C53.8388 32.2061 53.8931 32.7386 53.9288 33.3747L55.9257 33.2626ZM56 38.6544C56 36.3967 56.0004 34.5938 55.9257 33.2626L53.9288 33.3747C53.9996 34.6362 54 36.3716 54 38.6544L56 38.6544ZM44.154 57.1091C48.3835 55.3167 56 50.7251 56 40.9875H54C54 49.4542 47.4204 53.5527 43.3736 55.2677L44.154 57.1091ZM44.1419 57.1142L44.1419 57.1142L43.3856 55.2627L43.3856 55.2627L44.1419 57.1142ZM44.1025 57.131L44.154 57.1091L43.3734 55.2677L43.3219 55.2896L44.1025 57.131ZM42.3646 57.7519C43.0355 57.5853 43.6106 57.3395 44.1025 57.1309L43.3218 55.2896C42.8156 55.5043 42.3784 55.6877 41.8826 55.8109L42.3646 57.7519ZM40 58C40.8947 58 41.6353 57.933 42.3646 57.7519L41.8826 55.8109C41.3602 55.9406 40.7923 56 40 56V58ZM37.6354 57.7519C38.3647 57.933 39.1053 58 40 58V56C39.2077 56 38.6398 55.9406 38.1174 55.8109L37.6354 57.7519ZM35.8976 57.131C36.3895 57.3396 36.9646 57.5853 37.6354 57.7519L38.1174 55.8109C37.6216 55.6877 37.1844 55.5043 36.6782 55.2897L35.8976 57.131ZM24 40.9875C24 50.7251 31.6164 55.3167 35.846 57.1091L36.6264 55.2677C32.5795 53.5527 26 49.4542 26 40.9875H24ZM24.0743 33.2626C23.9996 34.5937 24 36.3967 24 38.6542L26 38.6542C26 36.3715 26.0004 34.6361 26.0712 33.3747L24.0743 33.2626ZM24.2852 31.3854C24.173 31.9502 24.1121 32.5894 24.0743 33.2626L26.0712 33.3747C26.1069 32.7386 26.1612 32.2061 26.2469 31.775L24.2852 31.3854ZM25.0377 29.524C24.5824 30.1534 24.3894 30.8605 24.2852 31.3854L26.2469 31.775C26.3305 31.3542 26.4529 30.98 26.6581 30.6963L25.0377 29.524ZM34.7024 25.2167C34.6217 25.2435 34.5401 25.2707 34.4575 25.2981L35.0878 27.1962C35.1708 27.1686 35.2526 27.1414 35.3333 27.1146L34.7024 25.2167ZM34.4563 25.2985C34.4563 25.2985 34.4563 25.2985 34.4563 25.2985C34.4563 25.2985 34.4563 25.2985 34.4563 25.2985C34.4563 25.2985 34.4563 25.2985 34.4563 25.2985C34.4563 25.2985 34.4563 25.2985 34.4563 25.2985C34.4563 25.2985 34.4563 25.2985 34.4563 25.2985C34.4563 25.2985 34.4563 25.2985 34.4563 25.2985C34.4563 25.2985 34.4563 25.2985 34.4563 25.2985C34.4563 25.2985 34.4563 25.2985 34.4563 25.2985C34.4563 25.2985 34.4563 25.2985 34.4563 25.2985C34.4563 25.2985 34.4563 25.2985 34.4563 25.2985C34.4563 25.2985 34.4563 25.2985 34.4563 25.2985C34.4563 25.2985 34.4563 25.2985 34.4563 25.2985C34.4563 25.2985 34.4563 25.2985 34.4563 25.2985C34.4563 25.2985 34.4563 25.2985 34.4563 25.2985C33.824 26.5635 35.089 27.1958 35.089 27.1958C35.089 27.1958 35.089 27.1958 35.089 27.1958C35.089 27.1958 35.089 27.1958 35.089 27.1958C35.089 27.1958 35.089 27.1958 35.089 27.1958C35.089 27.1958 35.089 27.1958 35.089 27.1958C35.089 27.1958 35.089 27.1958 35.089 27.1958C35.089 27.1958 35.089 27.1958 35.089 27.1958C35.089 27.1958 35.089 27.1958 35.089 27.1958C35.089 27.1958 35.089 27.1958 35.089 27.1958C35.089 27.1958 35.089 27.1958 35.089 27.1958C35.089 27.1958 35.089 27.1958 35.089 27.1958C35.089 27.1958 33.824 26.5635 34.4563 25.2985C34.4563 25.2985 34.4563 25.2985 34.4563 25.2985C34.4563 25.2985 34.4563 25.2985 34.4563 25.2985C34.4563 25.2985 34.4563 25.2985 34.4563 25.2985C34.4563 25.2985 34.4563 25.2985 34.4563 25.2985C34.4563 25.2985 34.4563 25.2985 34.4563 25.2985C34.4563 25.2985 34.4563 25.2985 34.4563 25.2985C34.4563 25.2985 34.4563 25.2985 34.4563 25.2985L35.089 27.1958C35.089 27.1958 35.089 27.1958 35.089 27.1958C35.089 27.1958 35.089 27.1958 35.089 27.1958C35.089 27.1958 35.089 27.1958 35.089 27.1958C35.089 27.1958 35.089 27.1958 35.089 27.1958C35.089 27.1958 35.089 27.1958 35.089 27.1958C35.089 27.1958 35.089 27.1958 35.089 27.1958C35.089 27.1958 35.089 27.1958 35.089 27.1958C35.7213 25.9308 34.4563 25.2985 34.4563 25.2985C34.4563 25.2985 34.4563 25.2985 34.4563 25.2985C34.4563 25.2985 34.4563 25.2985 34.4563 25.2985C34.4563 25.2985 34.4563 25.2985 34.4563 25.2985C34.4563 25.2985 34.4563 25.2985 34.4563 25.2985C34.4563 25.2985 34.4563 25.2985 34.4563 25.2985C34.4563 25.2985 34.4563 25.2985 34.4563 25.2985C34.4563 25.2985 34.4563 25.2985 34.4563 25.2985C34.4563 25.2985 34.4563 25.2985 34.4563 25.2985C34.4563 25.2985 34.4563 25.2985 34.4563 25.2985C34.4563 25.2985 34.4563 25.2985 34.4563 25.2985C34.4563 25.2985 34.4563 25.2985 34.4563 25.2985C34.4563 25.2985 34.4563 25.2985 34.4563 25.2985C34.4563 25.2985 34.4563 25.2985 34.4563 25.2985C34.4563 25.2985 34.4563 25.2985 34.4563 25.2985C34.4563 25.2985 34.4563 25.2985 34.4563 25.2985C34.4563 25.2985 34.4563 25.2985 34.4563 25.2985C34.4563 25.2985 34.4563 25.2985 34.4563 25.2985C34.4563 25.2985 34.4563 25.2985 34.4563 25.2985C34.4563 25.2985 34.4563 25.2985 34.4563 25.2985C34.4563 25.2985 34.4563 25.2985 34.4563 25.2985C34.4563 25.2985 34.4563 25.2985 34.4563 25.2985C34.4563 25.2985 34.4563 25.2985 34.4563 25.2985C34.4563 25.2985 34.4563 25.2985 34.4563 25.2985C34.4563 25.2985 34.4563 25.2985 34.4563 25.2985C34.4563 25.2985 34.4563 25.2985 34.4563 25.2985C34.4563 25.2985 35.7213 25.9308 35.089 27.1958C35.089 27.1958 35.089 27.1958 35.089 27.1958C35.089 27.1958 35.089 27.1958 35.089 27.1958C35.089 27.1958 35.089 27.1958 35.089 27.1958C35.089 27.1958 35.089 27.1958 35.089 27.1958V27.1958C35.089 27.1958 35.089 27.1958 35.089 27.1958C35.089 27.1958 35.089 27.1958 35.089 27.1958L34.4563 25.2985ZM34.4575 25.2981L33.6026 25.582L34.2329 27.4801L35.0878 27.1962L34.4575 25.2981ZM33.6026 25.582L33.549 25.5998L34.1793 27.4979L34.2329 27.4801L33.6026 25.582ZM33.549 25.5998C31.3621 26.326 29.6148 26.9059 28.3499 27.4044L29.0833 29.2651C30.2847 28.7916 31.969 28.2319 34.1793 27.4979L33.549 25.5998ZM28.3499 27.4044C27.7102 27.6565 27.1102 27.9198 26.5992 28.2077L27.5809 29.9501C27.9748 29.7282 28.4771 29.504 29.0833 29.2651L28.3499 27.4044ZM26.5992 28.2077C26.1252 28.4747 25.4988 28.8867 25.0377 29.524L26.6581 30.6963C26.8666 30.4081 27.1949 30.1676 27.5809 29.9501L26.5992 28.2077ZM29.1343 40.9875V38.7074H27.1343V40.9875H29.1343ZM50.8657 38.7074V40.9875H52.8657V38.7074H50.8657ZM56 40.9875V38.6544H54V40.9875H56ZM35.8459 57.1091L35.8976 57.131L36.6781 55.2896L36.6264 55.2677L35.8459 57.1091ZM24 38.6542V40.9875H26V38.6542H24Z" fill="#19C2EF" fill-opacity="0.55" mask="url(#path-3-inside-1_1_26507)"/>
<path fill-rule="evenodd" clip-rule="evenodd" d="M38.0516 33.7809C39.2063 32.7397 40.7937 32.7397 41.9484 33.7809L41.9485 33.781L47.3346 38.6381C48.0695 39.3008 48.2184 40.5544 47.6672 41.438C47.116 42.3217 46.0735 42.5008 45.3385 41.838L40 37.0238L34.6615 41.838C33.9265 42.5008 32.884 42.3217 32.3328 41.438C31.7816 40.5544 31.9305 39.3008 32.6654 38.6381L38.0516 33.7809ZM35.8337 43.3999L39.002 40.5428C39.5934 40.0095 40.4066 40.0095 40.998 40.5428L44.1663 43.3999C44.9012 44.0626 45.0501 45.3162 44.499 46.1999C43.9478 47.0835 42.9052 47.2626 42.1703 46.5999L40 44.6428L37.8297 46.5999C37.0948 47.2626 36.0522 47.0835 35.501 46.1999C34.9499 45.3162 35.0988 44.0626 35.8337 43.3999Z" fill="url(#paint3_linear_1_26507)"/>
<path d="M41.6136 34.1522L41.6136 34.1523L46.9997 39.0094C47.541 39.4975 47.6759 40.4794 47.243 41.1734C47.0354 41.5063 46.7546 41.6792 46.4871 41.7251C46.2228 41.7705 45.9316 41.6996 45.6734 41.4667L40.3348 36.6525L40 36.3505L39.6652 36.6525L34.3266 41.4667C34.0684 41.6996 33.7772 41.7705 33.5129 41.7251C33.2454 41.6792 32.9646 41.5063 32.757 41.1734C32.3241 40.4794 32.459 39.4975 33.0003 39.0094L38.3864 34.1522C38.3864 34.1522 38.3864 34.1522 38.3864 34.1522C39.3508 33.2827 40.6489 33.2826 41.6134 34.152C41.6134 34.1521 41.6135 34.1521 41.6136 34.1522ZM40.3348 44.2714L40 43.9695L39.6652 44.2714L37.4949 46.2286C37.2367 46.4614 36.9455 46.5324 36.6811 46.487C36.4137 46.4411 36.1329 46.2682 35.9253 45.9353C35.4924 45.2413 35.6273 44.2594 36.1686 43.7712L39.3368 40.9141C39.738 40.5524 40.262 40.5524 40.6632 40.9141L43.8314 43.7712C44.3727 44.2594 44.5076 45.2413 44.0747 45.9353C43.8671 46.2682 43.5863 46.4411 43.3189 46.487C43.0545 46.5324 42.7633 46.4614 42.5051 46.2286L40.3348 44.2714ZM41.9307 33.8005L41.9484 33.7809L41.9307 33.8005Z" stroke="#19C2EF" stroke-opacity="0.55"/>
<defs>
<radialGradient id="paint0_radial_1_26507" cx="0" cy="0" r="1" gradientUnits="userSpaceOnUse" gradientTransform="translate(40.4514 40) rotate(90) scale(40 40.4514)">
<stop stop-color="#19C2EF"/>
<stop offset="1" stop-color="#056CE9" stop-opacity="0"/>
</radialGradient>
<linearGradient id="paint1_linear_1_26507" x1="40" y1="70" x2="40" y2="10" gradientUnits="userSpaceOnUse">
<stop stop-color="#0974F8"/>
<stop offset="1" stop-color="#4FB2FE"/>
</linearGradient>
<linearGradient id="paint2_linear_1_26507" x1="40" y1="25" x2="40" y2="57" gradientUnits="userSpaceOnUse">
<stop stop-color="#0974F8"/>
<stop offset="1" stop-color="#4FB2FE"/>
</linearGradient>
<linearGradient id="paint3_linear_1_26507" x1="40" y1="33" x2="40" y2="47" gradientUnits="userSpaceOnUse">
<stop stop-color="#0974F8"/>
<stop offset="1" stop-color="#4FB2FE"/>
</linearGradient>
</defs>
</svg>
