<svg width="81" height="80" viewBox="0 0 81 80" fill="none" xmlns="http://www.w3.org/2000/svg">
<ellipse opacity="0.55" cx="40.4514" cy="40" rx="40.4514" ry="40" fill="url(#paint0_radial_1_27624)"/>
<path d="M70 40C70.0035 43.2776 69.4691 46.5336 68.418 49.6381L65.9996 48.8181C64.6404 52.7945 62.3907 56.4077 59.4223 59.3821C56.4538 62.3565 52.8451 64.6134 48.8715 65.9806L49.6968 68.398C43.4088 70.534 36.5914 70.534 30.3035 68.398L31.1285 65.9805C27.155 64.6134 23.5463 62.3565 20.5779 59.3822C17.6096 56.4079 15.36 52.7947 14.0008 48.8185L11.5823 49.6384C9.47258 43.386 9.47258 36.614 11.5823 30.3616L14.0008 31.1815C15.363 27.1961 17.6196 23.5756 20.5978 20.5974C23.5759 17.6193 27.1965 15.3626 31.1819 14.0004L30.362 11.582C36.6144 9.47261 43.3861 9.47266 49.6384 11.5821L48.8186 14.0007C52.804 15.3629 56.4245 17.6196 59.4027 20.5977C62.3808 23.5759 64.6375 27.1965 65.9996 31.1819L68.418 30.3619C69.4691 33.4664 70.0036 36.7224 70 40ZM40 13.5232C34.7634 13.5233 29.6444 15.0761 25.2904 17.9854C20.9363 20.8947 17.5427 25.0298 15.5388 29.8678C13.5348 34.7058 13.0105 40.0293 14.0321 45.1653C15.0537 50.3013 17.5754 55.019 21.2782 58.7218C24.981 62.4246 29.6987 64.9463 34.8347 65.9679C39.9707 66.9895 45.2942 66.4652 50.1322 64.4612C54.9702 62.4573 59.1053 59.0637 62.0146 54.7096C64.9239 50.3556 66.4767 45.2366 66.4767 40C66.4688 32.9804 63.6768 26.2505 58.7131 21.2868C53.7495 16.3232 47.0196 13.5312 40 13.5232Z" fill="url(#paint1_linear_1_27624)"/>
<g clip-path="url(#clip0_1_27624)">
<path fill-rule="evenodd" clip-rule="evenodd" d="M40 37.4286C38.5798 37.4286 37.4286 38.5798 37.4286 40C37.4286 41.4202 38.5798 42.5714 40 42.5714C41.4202 42.5714 42.5714 41.4202 42.5714 40C42.5714 38.5798 41.4202 37.4286 40 37.4286ZM34 40C34 36.6863 36.6863 34 40 34C43.3137 34 46 36.6863 46 40C46 43.3137 43.3137 46 40 46C36.6863 46 34 43.3137 34 40Z" fill="url(#paint2_linear_1_27624)"/>
<path fill-rule="evenodd" clip-rule="evenodd" d="M40 27.4286C39.3688 27.4286 38.8571 27.9402 38.8571 28.5714C38.8571 29.2026 39.3688 29.7143 40 29.7143C40.6312 29.7143 41.1429 29.2026 41.1429 28.5714C41.1429 27.9402 40.6312 27.4286 40 27.4286ZM35.4286 28.5714C35.4286 26.0467 37.4753 24 40 24C42.5247 24 44.5714 26.0467 44.5714 28.5714C44.5714 31.0962 42.5247 33.1429 40 33.1429C37.4753 33.1429 35.4286 31.0962 35.4286 28.5714Z" fill="url(#paint3_linear_1_27624)"/>
<path fill-rule="evenodd" clip-rule="evenodd" d="M51.4286 38.8571C50.7974 38.8571 50.2857 39.3688 50.2857 40C50.2857 40.6312 50.7974 41.1429 51.4286 41.1429C52.0598 41.1429 52.5714 40.6312 52.5714 40C52.5714 39.3688 52.0598 38.8571 51.4286 38.8571ZM46.8571 40C46.8571 37.4753 48.9038 35.4286 51.4286 35.4286C53.9533 35.4286 56 37.4753 56 40C56 42.5247 53.9533 44.5714 51.4286 44.5714C48.9038 44.5714 46.8571 42.5247 46.8571 40Z" fill="url(#paint4_linear_1_27624)"/>
<path fill-rule="evenodd" clip-rule="evenodd" d="M28.5714 38.8571C27.9402 38.8571 27.4286 39.3688 27.4286 40C27.4286 40.6312 27.9402 41.1429 28.5714 41.1429C29.2026 41.1429 29.7143 40.6312 29.7143 40C29.7143 39.3688 29.2026 38.8571 28.5714 38.8571ZM24 40C24 37.4753 26.0467 35.4286 28.5714 35.4286C31.0962 35.4286 33.1429 37.4753 33.1429 40C33.1429 42.5247 31.0962 44.5714 28.5714 44.5714C26.0467 44.5714 24 42.5247 24 40Z" fill="url(#paint5_linear_1_27624)"/>
<path fill-rule="evenodd" clip-rule="evenodd" d="M40 50.2857C39.3688 50.2857 38.8571 50.7974 38.8571 51.4286C38.8571 52.0598 39.3688 52.5714 40 52.5714C40.6312 52.5714 41.1429 52.0598 41.1429 51.4286C41.1429 50.7974 40.6312 50.2857 40 50.2857ZM35.4286 51.4286C35.4286 48.9038 37.4753 46.8571 40 46.8571C42.5247 46.8571 44.5714 48.9038 44.5714 51.4286C44.5714 53.9533 42.5247 56 40 56C37.4753 56 35.4286 53.9533 35.4286 51.4286Z" fill="url(#paint6_linear_1_27624)"/>
<path fill-rule="evenodd" clip-rule="evenodd" d="M40 29.7143C40.9468 29.7143 41.7143 30.4818 41.7143 31.4286V35.7143C41.7143 36.6611 40.9468 37.4286 40 37.4286C39.0532 37.4286 38.2857 36.6611 38.2857 35.7143V31.4286C38.2857 30.4818 39.0532 29.7143 40 29.7143Z" fill="url(#paint7_linear_1_27624)"/>
<path fill-rule="evenodd" clip-rule="evenodd" d="M42.5714 40C42.5714 39.0532 43.3389 38.2857 44.2857 38.2857H48.5714C49.5182 38.2857 50.2857 39.0532 50.2857 40C50.2857 40.9468 49.5182 41.7143 48.5714 41.7143H44.2857C43.3389 41.7143 42.5714 40.9468 42.5714 40Z" fill="url(#paint8_linear_1_27624)"/>
<path fill-rule="evenodd" clip-rule="evenodd" d="M40 42.5714C40.9468 42.5714 41.7143 43.3389 41.7143 44.2857V48.5714C41.7143 49.5182 40.9468 50.2857 40 50.2857C39.0532 50.2857 38.2857 49.5182 38.2857 48.5714V44.2857C38.2857 43.3389 39.0532 42.5714 40 42.5714Z" fill="url(#paint9_linear_1_27624)"/>
<path fill-rule="evenodd" clip-rule="evenodd" d="M29.7143 40C29.7143 39.0532 30.4818 38.2857 31.4286 38.2857H35.7143C36.6611 38.2857 37.4286 39.0532 37.4286 40C37.4286 40.9468 36.6611 41.7143 35.7143 41.7143H31.4286C30.4818 41.7143 29.7143 40.9468 29.7143 40Z" fill="url(#paint10_linear_1_27624)"/>
<path d="M38.484 37.3282C38.0024 37.602 37.602 38.0024 37.3282 38.484C36.9243 38.0541 36.3506 37.7857 35.7143 37.7857H34.9639C35.5176 36.5283 36.5283 35.5176 37.7857 34.9639V35.7143C37.7857 36.3506 38.0541 36.9243 38.484 37.3282ZM37.3282 41.516C37.602 41.9976 38.0024 42.398 38.484 42.6718C38.0541 43.0757 37.7857 43.6494 37.7857 44.2857V45.0361C36.5283 44.4824 35.5176 43.4717 34.9639 42.2143H35.7143C36.3506 42.2143 36.9243 41.9459 37.3282 41.516ZM35.7143 41.2143H34.6345C34.5465 40.8236 34.5 40.4172 34.5 40C34.5 39.5828 34.5465 39.1764 34.6345 38.7857H35.7143C36.3849 38.7857 36.9286 39.3294 36.9286 40C36.9286 40.6706 36.3849 41.2143 35.7143 41.2143ZM44.0714 28.5714C44.0714 30.0035 43.3321 31.2628 42.2143 31.9886V31.4286C42.2143 30.678 41.8408 30.0146 41.2696 29.6142C41.5028 29.3305 41.6429 28.9673 41.6429 28.5714C41.6429 27.6641 40.9073 26.9286 40 26.9286C39.0927 26.9286 38.3571 27.6641 38.3571 28.5714C38.3571 28.9673 38.4972 29.3305 38.7304 29.6142C38.1592 30.0146 37.7857 30.678 37.7857 31.4286V31.9886C36.6679 31.2628 35.9286 30.0035 35.9286 28.5714C35.9286 26.3228 37.7514 24.5 40 24.5C42.2486 24.5 44.0714 26.3228 44.0714 28.5714ZM41.2143 32.4587C40.8308 32.5784 40.4229 32.6429 40 32.6429C39.5771 32.6429 39.1692 32.5784 38.7857 32.4587V31.4286C38.7857 30.7579 39.3294 30.2143 40 30.2143C40.6706 30.2143 41.2143 30.7579 41.2143 31.4286V32.4587ZM40.9045 33.5624C41.0089 33.5436 41.1122 33.5216 41.2143 33.4966V33.6132C41.1119 33.5939 41.0086 33.5769 40.9045 33.5624ZM40 34.5C40.4172 34.5 40.8236 34.5465 41.2143 34.6345V35.7143C41.2143 36.3849 40.6706 36.9286 40 36.9286C39.3294 36.9286 38.7857 36.3849 38.7857 35.7143V34.6345C39.1764 34.5465 39.5828 34.5 40 34.5ZM41.516 37.3282C41.9459 36.9243 42.2143 36.3506 42.2143 35.7143V34.9639C43.4717 35.5176 44.4824 36.5283 45.0361 37.7857H44.2857C43.6494 37.7857 43.0757 38.0541 42.6718 38.484C42.398 38.0024 41.9976 37.602 41.516 37.3282ZM41.516 42.6718C41.9976 42.398 42.398 41.9976 42.6718 41.516C43.0757 41.9459 43.6494 42.2143 44.2857 42.2143H45.0361C44.4824 43.4717 43.4717 44.4824 42.2143 45.0361V44.2857C42.2143 43.6494 41.9459 43.0757 41.516 42.6718ZM41.2143 44.2857V45.3655C40.8236 45.4535 40.4172 45.5 40 45.5C39.5828 45.5 39.1764 45.4535 38.7857 45.3655V44.2857C38.7857 43.6151 39.3294 43.0714 40 43.0714C40.6706 43.0714 41.2143 43.6151 41.2143 44.2857ZM33.6132 41.2143H33.4966C33.5216 41.1122 33.5436 41.0089 33.5624 40.9045C33.5769 41.0086 33.5939 41.1119 33.6132 41.2143ZM32.6429 40C32.6429 40.4229 32.5784 40.8308 32.4587 41.2143H31.4286C30.7579 41.2143 30.2143 40.6706 30.2143 40C30.2143 39.3294 30.7579 38.7857 31.4286 38.7857H32.4587C32.5784 39.1692 32.6429 39.5771 32.6429 40ZM29.6142 38.7304C29.3305 38.4972 28.9673 38.3571 28.5714 38.3571C27.6641 38.3571 26.9286 39.0927 26.9286 40C26.9286 40.9073 27.6641 41.6429 28.5714 41.6429C28.9673 41.6429 29.3305 41.5028 29.6142 41.2696C30.0146 41.8408 30.678 42.2143 31.4286 42.2143H31.9886C31.2628 43.3321 30.0035 44.0714 28.5714 44.0714C26.3228 44.0714 24.5 42.2486 24.5 40C24.5 37.7514 26.3228 35.9286 28.5714 35.9286C30.0035 35.9286 31.2628 36.6679 31.9886 37.7857H31.4286C30.678 37.7857 30.0146 38.1592 29.6142 38.7304ZM33.4966 38.7857H33.6132C33.5939 38.8881 33.5769 38.9914 33.5624 39.0955C33.5436 38.9911 33.5216 38.8878 33.4966 38.7857ZM41.2143 46.3868V46.5034C41.1122 46.4784 41.0089 46.4564 40.9045 46.4376C41.0086 46.4231 41.1119 46.4061 41.2143 46.3868ZM40 47.3571C40.4229 47.3571 40.8308 47.4216 41.2143 47.5413V48.5714C41.2143 49.2421 40.6706 49.7857 40 49.7857C39.3294 49.7857 38.7857 49.2421 38.7857 48.5714V47.5413C39.1692 47.4216 39.5771 47.3571 40 47.3571ZM38.7304 50.3858C38.4972 50.6695 38.3571 51.0327 38.3571 51.4286C38.3571 52.3359 39.0927 53.0714 40 53.0714C40.9073 53.0714 41.6429 52.3359 41.6429 51.4286C41.6429 51.0327 41.5028 50.6695 41.2696 50.3858C41.8408 49.9854 42.2143 49.322 42.2143 48.5714V48.0114C43.3321 48.7372 44.0714 49.9965 44.0714 51.4286C44.0714 53.6772 42.2486 55.5 40 55.5C37.7514 55.5 35.9286 53.6772 35.9286 51.4286C35.9286 49.9965 36.6679 48.7372 37.7857 48.0114V48.5714C37.7857 49.322 38.1592 49.9854 38.7304 50.3858ZM38.7857 46.5034V46.3868C38.8881 46.4061 38.9914 46.4231 39.0955 46.4376C38.9911 46.4564 38.8878 46.4784 38.7857 46.5034ZM44.2857 38.7857H45.3655C45.4535 39.1764 45.5 39.5828 45.5 40C45.5 40.4172 45.4535 40.8236 45.3655 41.2143H44.2857C43.6151 41.2143 43.0714 40.6706 43.0714 40C43.0714 39.3294 43.6151 38.7857 44.2857 38.7857ZM46.3868 38.7857H46.5034C46.4784 38.8878 46.4564 38.9911 46.4376 39.0955C46.4231 38.9914 46.4061 38.8881 46.3868 38.7857ZM47.3571 40C47.3571 39.5771 47.4216 39.1692 47.5413 38.7857H48.5714C49.2421 38.7857 49.7857 39.3294 49.7857 40C49.7857 40.6706 49.2421 41.2143 48.5714 41.2143H47.5413C47.4216 40.8308 47.3571 40.4229 47.3571 40ZM50.3858 41.2696C50.6695 41.5028 51.0327 41.6429 51.4286 41.6429C52.3359 41.6429 53.0714 40.9073 53.0714 40C53.0714 39.0927 52.3359 38.3571 51.4286 38.3571C51.0327 38.3571 50.6695 38.4972 50.3858 38.7304C49.9854 38.1592 49.322 37.7857 48.5714 37.7857H48.0114C48.7372 36.6679 49.9965 35.9286 51.4286 35.9286C53.6772 35.9286 55.5 37.7514 55.5 40C55.5 42.2486 53.6772 44.0714 51.4286 44.0714C49.9965 44.0714 48.7372 43.3321 48.0114 42.2143H48.5714C49.322 42.2143 49.9854 41.8408 50.3858 41.2696ZM46.5034 41.2143H46.3868C46.4061 41.1119 46.4231 41.0086 46.4376 40.9045C46.4564 41.0089 46.4784 41.1122 46.5034 41.2143ZM39.0955 33.5624C38.9914 33.5769 38.8881 33.5939 38.7857 33.6132V33.4966C38.8878 33.5216 38.9911 33.5436 39.0955 33.5624Z" stroke="#19C2EF" stroke-opacity="0.55"/>
</g>
<defs>
<radialGradient id="paint0_radial_1_27624" cx="0" cy="0" r="1" gradientUnits="userSpaceOnUse" gradientTransform="translate(40.4514 40) rotate(90) scale(40 40.4514)">
<stop stop-color="#19C2EF"/>
<stop offset="1" stop-color="#056CE9" stop-opacity="0"/>
</radialGradient>
<linearGradient id="paint1_linear_1_27624" x1="40" y1="70" x2="40" y2="10" gradientUnits="userSpaceOnUse">
<stop stop-color="#0974F8"/>
<stop offset="1" stop-color="#4FB2FE"/>
</linearGradient>
<linearGradient id="paint2_linear_1_27624" x1="40" y1="24" x2="40" y2="56" gradientUnits="userSpaceOnUse">
<stop stop-color="#0974F8"/>
<stop offset="1" stop-color="#4FB2FE"/>
</linearGradient>
<linearGradient id="paint3_linear_1_27624" x1="40" y1="24" x2="40" y2="56" gradientUnits="userSpaceOnUse">
<stop stop-color="#0974F8"/>
<stop offset="1" stop-color="#4FB2FE"/>
</linearGradient>
<linearGradient id="paint4_linear_1_27624" x1="40" y1="24" x2="40" y2="56" gradientUnits="userSpaceOnUse">
<stop stop-color="#0974F8"/>
<stop offset="1" stop-color="#4FB2FE"/>
</linearGradient>
<linearGradient id="paint5_linear_1_27624" x1="40" y1="24" x2="40" y2="56" gradientUnits="userSpaceOnUse">
<stop stop-color="#0974F8"/>
<stop offset="1" stop-color="#4FB2FE"/>
</linearGradient>
<linearGradient id="paint6_linear_1_27624" x1="40" y1="24" x2="40" y2="56" gradientUnits="userSpaceOnUse">
<stop stop-color="#0974F8"/>
<stop offset="1" stop-color="#4FB2FE"/>
</linearGradient>
<linearGradient id="paint7_linear_1_27624" x1="40" y1="24" x2="40" y2="56" gradientUnits="userSpaceOnUse">
<stop stop-color="#0974F8"/>
<stop offset="1" stop-color="#4FB2FE"/>
</linearGradient>
<linearGradient id="paint8_linear_1_27624" x1="40" y1="24" x2="40" y2="56" gradientUnits="userSpaceOnUse">
<stop stop-color="#0974F8"/>
<stop offset="1" stop-color="#4FB2FE"/>
</linearGradient>
<linearGradient id="paint9_linear_1_27624" x1="40" y1="24" x2="40" y2="56" gradientUnits="userSpaceOnUse">
<stop stop-color="#0974F8"/>
<stop offset="1" stop-color="#4FB2FE"/>
</linearGradient>
<linearGradient id="paint10_linear_1_27624" x1="40" y1="24" x2="40" y2="56" gradientUnits="userSpaceOnUse">
<stop stop-color="#0974F8"/>
<stop offset="1" stop-color="#4FB2FE"/>
</linearGradient>
<clipPath id="clip0_1_27624">
<rect width="32" height="32" fill="white" transform="translate(24 24)"/>
</clipPath>
</defs>
</svg>
