<svg width="81" height="80" viewBox="0 0 81 80" fill="none" xmlns="http://www.w3.org/2000/svg">
<ellipse opacity="0.55" cx="40.4514" cy="40" rx="40.4514" ry="40" fill="url(#paint0_radial_1_28181)"/>
<path d="M70 40C70.0035 43.2776 69.4691 46.5336 68.418 49.6381L65.9996 48.8181C64.6404 52.7945 62.3907 56.4077 59.4223 59.3821C56.4538 62.3565 52.8451 64.6134 48.8715 65.9806L49.6968 68.398C43.4088 70.534 36.5914 70.534 30.3035 68.398L31.1285 65.9805C27.155 64.6134 23.5463 62.3565 20.5779 59.3822C17.6096 56.4079 15.36 52.7947 14.0008 48.8185L11.5823 49.6384C9.47258 43.386 9.47258 36.614 11.5823 30.3616L14.0008 31.1815C15.363 27.1961 17.6196 23.5756 20.5978 20.5974C23.5759 17.6193 27.1965 15.3626 31.1819 14.0004L30.362 11.582C36.6144 9.47261 43.3861 9.47266 49.6384 11.5821L48.8186 14.0007C52.804 15.3629 56.4245 17.6196 59.4027 20.5977C62.3808 23.5759 64.6375 27.1965 65.9996 31.1819L68.418 30.3619C69.4691 33.4664 70.0036 36.7224 70 40ZM40 13.5232C34.7634 13.5233 29.6444 15.0761 25.2904 17.9854C20.9363 20.8947 17.5427 25.0298 15.5388 29.8678C13.5348 34.7058 13.0105 40.0293 14.0321 45.1653C15.0537 50.3013 17.5754 55.019 21.2782 58.7218C24.981 62.4246 29.6987 64.9463 34.8347 65.9679C39.9707 66.9895 45.2942 66.4652 50.1322 64.4612C54.9702 62.4573 59.1053 59.0637 62.0146 54.7096C64.9239 50.3556 66.4767 45.2366 66.4767 40C66.4688 32.9804 63.6768 26.2505 58.7131 21.2868C53.7495 16.3232 47.0196 13.5312 40 13.5232Z" fill="url(#paint1_linear_1_28181)"/>
<g clip-path="url(#clip0_1_28181)">
<path fill-rule="evenodd" clip-rule="evenodd" d="M55.5468 24.6574C56.2234 25.4467 56.132 26.635 55.3427 27.3116L44.3623 36.7233C43.6155 37.3634 42.5018 37.3207 41.8062 36.6252L36.7643 31.5832L27.1074 39.8606C26.3181 40.5371 25.1298 40.4457 24.4532 39.6564C23.7766 38.8671 23.868 37.6788 24.6574 37.0022L35.6377 27.5904C36.3845 26.9503 37.4983 26.9931 38.1938 27.6886L43.2357 32.7305L52.8926 24.4532C53.6819 23.7766 54.8703 23.868 55.5468 24.6574Z" fill="url(#paint2_linear_1_28181)"/>
<path d="M26 46.4999C26 45.1192 27.1193 43.9999 28.5 43.9999C29.8807 43.9999 31 45.1192 31 46.4999V52.4999C31 53.8806 29.8807 54.9999 28.5 54.9999C27.1193 54.9999 26 53.8806 26 52.4999V46.4999Z" fill="url(#paint3_linear_1_28181)"/>
<path d="M49 46.4999C49 45.1192 50.1193 43.9999 51.5 43.9999C52.8807 43.9999 54 45.1192 54 46.4999V52.4999C54 53.8806 52.8807 54.9999 51.5 54.9999C50.1193 54.9999 49 53.8806 49 52.4999V46.4999Z" fill="url(#paint4_linear_1_28181)"/>
<path d="M38 42.4999C38 41.1192 39.1193 39.9999 40.5 39.9999C41.8807 39.9999 43 41.1192 43 42.4999V52.4999C43 53.8806 41.8807 54.9999 40.5 54.9999C39.1193 54.9999 38 53.8806 38 52.4999V42.4999Z" fill="url(#paint5_linear_1_28181)"/>
<path d="M37.1179 31.2297L36.7905 30.9023L36.4389 31.2036L26.782 39.481C26.2024 39.9778 25.3297 39.9107 24.8328 39.331C24.336 38.7514 24.4031 37.8787 24.9828 37.3818L35.9631 27.9701C36.5116 27.5 37.3295 27.5314 37.8402 28.0422L42.8822 33.0841L43.2096 33.4115L43.5611 33.1102L53.218 24.8328C53.7977 24.336 54.6704 24.4031 55.1672 24.9828C55.6641 25.5624 55.5969 26.4351 55.0173 26.9319L44.0369 36.3437C43.4885 36.8138 42.6706 36.7824 42.1598 36.2716L37.1179 31.2297ZM26.5 46.4999C26.5 45.3954 27.3954 44.4999 28.5 44.4999C29.6046 44.4999 30.5 45.3954 30.5 46.4999V52.4999C30.5 53.6045 29.6046 54.4999 28.5 54.4999C27.3954 54.4999 26.5 53.6045 26.5 52.4999V46.4999ZM49.5 46.4999C49.5 45.3954 50.3954 44.4999 51.5 44.4999C52.6046 44.4999 53.5 45.3954 53.5 46.4999V52.4999C53.5 53.6045 52.6046 54.4999 51.5 54.4999C50.3954 54.4999 49.5 53.6045 49.5 52.4999V46.4999ZM38.5 42.4999C38.5 41.3954 39.3954 40.4999 40.5 40.4999C41.6046 40.4999 42.5 41.3954 42.5 42.4999V52.4999C42.5 53.6045 41.6046 54.4999 40.5 54.4999C39.3954 54.4999 38.5 53.6045 38.5 52.4999V42.4999Z" stroke="#19C2EF" stroke-opacity="0.55"/>
</g>
<defs>
<radialGradient id="paint0_radial_1_28181" cx="0" cy="0" r="1" gradientUnits="userSpaceOnUse" gradientTransform="translate(40.4514 40) rotate(90) scale(40 40.4514)">
<stop stop-color="#19C2EF"/>
<stop offset="1" stop-color="#056CE9" stop-opacity="0"/>
</radialGradient>
<linearGradient id="paint1_linear_1_28181" x1="40" y1="70" x2="40" y2="10" gradientUnits="userSpaceOnUse">
<stop stop-color="#0974F8"/>
<stop offset="1" stop-color="#4FB2FE"/>
</linearGradient>
<linearGradient id="paint2_linear_1_28181" x1="40" y1="24" x2="40" y2="84.8074" gradientUnits="userSpaceOnUse">
<stop stop-color="#0974F8"/>
<stop offset="1" stop-color="#4FB2FE"/>
</linearGradient>
<linearGradient id="paint3_linear_1_28181" x1="40" y1="40" x2="40" y2="55" gradientUnits="userSpaceOnUse">
<stop stop-color="#0974F8"/>
<stop offset="1" stop-color="#4FB2FE"/>
</linearGradient>
<linearGradient id="paint4_linear_1_28181" x1="40" y1="40" x2="40" y2="55" gradientUnits="userSpaceOnUse">
<stop stop-color="#0974F8"/>
<stop offset="1" stop-color="#4FB2FE"/>
</linearGradient>
<linearGradient id="paint5_linear_1_28181" x1="40" y1="40" x2="40" y2="55" gradientUnits="userSpaceOnUse">
<stop stop-color="#0974F8"/>
<stop offset="1" stop-color="#4FB2FE"/>
</linearGradient>
<clipPath id="clip0_1_28181">
<rect width="32" height="32" fill="white" transform="translate(24 24)"/>
</clipPath>
</defs>
</svg>
