<svg width="656" height="258" viewBox="0 0 656 258" fill="none" xmlns="http://www.w3.org/2000/svg">
<mask id="mask0_1_28211" style="mask-type:alpha" maskUnits="userSpaceOnUse" x="0" y="0" width="656" height="258">
<rect width="656" height="258" transform="matrix(-1 0 0 1 656 0)" fill="#253074" fill-opacity="0.3"/>
<rect width="656" height="258" transform="matrix(-1 0 0 1 656 0)" fill="url(#paint0_linear_1_28211)" fill-opacity="0.2"/>
</mask>
<g mask="url(#mask0_1_28211)">
<rect width="575" height="392" transform="matrix(-1 0 0 1 656 -38)" fill="url(#paint1_linear_1_28211)" fill-opacity="0.2"/>
<g opacity="0.2">
<path d="M656 -55H312V-54H656V-55Z" fill="url(#paint2_linear_1_28211)"/>
<path d="M656 -51H312V-50H656V-51Z" fill="url(#paint3_linear_1_28211)"/>
<path d="M656 -47H312V-46H656V-47Z" fill="url(#paint4_linear_1_28211)"/>
<path d="M656 -43H312V-42H656V-43Z" fill="url(#paint5_linear_1_28211)"/>
<path d="M656 -39H312V-38H656V-39Z" fill="url(#paint6_linear_1_28211)"/>
<path d="M656 -35H312V-34H656V-35Z" fill="url(#paint7_linear_1_28211)"/>
<path d="M656 -31H312V-30H656V-31Z" fill="url(#paint8_linear_1_28211)"/>
<path d="M656 -27H312V-26H656V-27Z" fill="url(#paint9_linear_1_28211)"/>
<path d="M656 -23H312V-22H656V-23Z" fill="url(#paint10_linear_1_28211)"/>
<path d="M656 -19H312V-18H656V-19Z" fill="url(#paint11_linear_1_28211)"/>
<path d="M656 -15H312V-14H656V-15Z" fill="url(#paint12_linear_1_28211)"/>
<path d="M656 -11H312V-10H656V-11Z" fill="url(#paint13_linear_1_28211)"/>
<path d="M656 -7H312V-6H656V-7Z" fill="url(#paint14_linear_1_28211)"/>
<path d="M656 -3H312V-2H656V-3Z" fill="url(#paint15_linear_1_28211)"/>
<path d="M656 1H312V2H656V1Z" fill="url(#paint16_linear_1_28211)"/>
<path d="M656 5H312V6H656V5Z" fill="url(#paint17_linear_1_28211)"/>
<path d="M656 9H312V10H656V9Z" fill="url(#paint18_linear_1_28211)"/>
<path d="M656 13H312V14H656V13Z" fill="url(#paint19_linear_1_28211)"/>
<path d="M656 17H312V18H656V17Z" fill="url(#paint20_linear_1_28211)"/>
<path d="M656 21H312V22H656V21Z" fill="url(#paint21_linear_1_28211)"/>
<path d="M656 25H312V26H656V25Z" fill="url(#paint22_linear_1_28211)"/>
<path d="M656 29H312V30H656V29Z" fill="url(#paint23_linear_1_28211)"/>
<path d="M656 33H312V34H656V33Z" fill="url(#paint24_linear_1_28211)"/>
<path d="M656 37H312V38H656V37Z" fill="url(#paint25_linear_1_28211)"/>
<path d="M656 41H312V42H656V41Z" fill="url(#paint26_linear_1_28211)"/>
<path d="M656 45H312V46H656V45Z" fill="url(#paint27_linear_1_28211)"/>
<path d="M656 49H312V50H656V49Z" fill="url(#paint28_linear_1_28211)"/>
<path d="M656 53H312V54H656V53Z" fill="url(#paint29_linear_1_28211)"/>
<path d="M656 57H312V58H656V57Z" fill="url(#paint30_linear_1_28211)"/>
<path d="M656 61H312V62H656V61Z" fill="url(#paint31_linear_1_28211)"/>
<path d="M656 65H312V66H656V65Z" fill="url(#paint32_linear_1_28211)"/>
<path d="M656 69H312V70H656V69Z" fill="url(#paint33_linear_1_28211)"/>
<path d="M656 73H312V74H656V73Z" fill="url(#paint34_linear_1_28211)"/>
<path d="M656 77H312V78H656V77Z" fill="url(#paint35_linear_1_28211)"/>
<path d="M656 81H312V82H656V81Z" fill="url(#paint36_linear_1_28211)"/>
<path d="M656 85H312V86H656V85Z" fill="url(#paint37_linear_1_28211)"/>
<path d="M656 89H312V90H656V89Z" fill="url(#paint38_linear_1_28211)"/>
<path d="M656 93H312V94H656V93Z" fill="url(#paint39_linear_1_28211)"/>
<path d="M656 97H312V98H656V97Z" fill="url(#paint40_linear_1_28211)"/>
<path d="M656 101H312V102H656V101Z" fill="url(#paint41_linear_1_28211)"/>
<path d="M656 105H312V106H656V105Z" fill="url(#paint42_linear_1_28211)"/>
<path d="M656 109H312V110H656V109Z" fill="url(#paint43_linear_1_28211)"/>
<path d="M656 113H312V114H656V113Z" fill="url(#paint44_linear_1_28211)"/>
<path d="M656 117H312V118H656V117Z" fill="url(#paint45_linear_1_28211)"/>
<path d="M656 121H312V122H656V121Z" fill="url(#paint46_linear_1_28211)"/>
<path d="M656 125H312V126H656V125Z" fill="url(#paint47_linear_1_28211)"/>
<path d="M656 129H312V130H656V129Z" fill="url(#paint48_linear_1_28211)"/>
<path d="M656 133H312V134H656V133Z" fill="url(#paint49_linear_1_28211)"/>
<path d="M656 137H312V138H656V137Z" fill="url(#paint50_linear_1_28211)"/>
<path d="M656 141H312V142H656V141Z" fill="url(#paint51_linear_1_28211)"/>
<path d="M656 145H312V146H656V145Z" fill="url(#paint52_linear_1_28211)"/>
<path d="M656 149H312V150H656V149Z" fill="url(#paint53_linear_1_28211)"/>
<path d="M656 153H312V154H656V153Z" fill="url(#paint54_linear_1_28211)"/>
<path d="M656 157H312V158H656V157Z" fill="url(#paint55_linear_1_28211)"/>
<path d="M656 161H312V162H656V161Z" fill="url(#paint56_linear_1_28211)"/>
<path d="M656 165H312V166H656V165Z" fill="url(#paint57_linear_1_28211)"/>
<path d="M656 169H312V170H656V169Z" fill="url(#paint58_linear_1_28211)"/>
<path d="M656 173H312V174H656V173Z" fill="url(#paint59_linear_1_28211)"/>
<path d="M656 177H312V178H656V177Z" fill="url(#paint60_linear_1_28211)"/>
<path d="M656 181H312V182H656V181Z" fill="url(#paint61_linear_1_28211)"/>
<path d="M656 185H312V186H656V185Z" fill="url(#paint62_linear_1_28211)"/>
<path d="M656 189H312V190H656V189Z" fill="url(#paint63_linear_1_28211)"/>
<path d="M656 193H312V194H656V193Z" fill="url(#paint64_linear_1_28211)"/>
<path d="M656 197H312V198H656V197Z" fill="url(#paint65_linear_1_28211)"/>
<path d="M656 201H312V202H656V201Z" fill="url(#paint66_linear_1_28211)"/>
<path d="M656 205H312V206H656V205Z" fill="url(#paint67_linear_1_28211)"/>
<path d="M656 209H312V210H656V209Z" fill="url(#paint68_linear_1_28211)"/>
<path d="M656 213H312V214H656V213Z" fill="url(#paint69_linear_1_28211)"/>
<path d="M656 217H312V218H656V217Z" fill="url(#paint70_linear_1_28211)"/>
<path d="M656 221H312V222H656V221Z" fill="url(#paint71_linear_1_28211)"/>
<path d="M656 225H312V226H656V225Z" fill="url(#paint72_linear_1_28211)"/>
<path d="M656 229H312V230H656V229Z" fill="url(#paint73_linear_1_28211)"/>
<path d="M656 233H312V234H656V233Z" fill="url(#paint74_linear_1_28211)"/>
<path d="M656 237H312V238H656V237Z" fill="url(#paint75_linear_1_28211)"/>
<path d="M656 241H312V242H656V241Z" fill="url(#paint76_linear_1_28211)"/>
<path d="M656 245H312V246H656V245Z" fill="url(#paint77_linear_1_28211)"/>
<path d="M656 249H312V250H656V249Z" fill="url(#paint78_linear_1_28211)"/>
<path d="M656 253H312V254H656V253Z" fill="url(#paint79_linear_1_28211)"/>
<path d="M656 257H312V258H656V257Z" fill="url(#paint80_linear_1_28211)"/>
<path d="M656 261H312V262H656V261Z" fill="url(#paint81_linear_1_28211)"/>
<path d="M656 265H312V266H656V265Z" fill="url(#paint82_linear_1_28211)"/>
<path d="M656 269H312V270H656V269Z" fill="url(#paint83_linear_1_28211)"/>
<path d="M656 273H312V274H656V273Z" fill="url(#paint84_linear_1_28211)"/>
<path d="M656 277H312V278H656V277Z" fill="url(#paint85_linear_1_28211)"/>
<path d="M656 281H312V282H656V281Z" fill="url(#paint86_linear_1_28211)"/>
<path d="M656 285H312V286H656V285Z" fill="url(#paint87_linear_1_28211)"/>
<path d="M656 289H312V290H656V289Z" fill="url(#paint88_linear_1_28211)"/>
<path d="M656 293H312V294H656V293Z" fill="url(#paint89_linear_1_28211)"/>
<path d="M656 297H312V298H656V297Z" fill="url(#paint90_linear_1_28211)"/>
<path d="M656 301H312V302H656V301Z" fill="url(#paint91_linear_1_28211)"/>
<path d="M656 305H312V306H656V305Z" fill="url(#paint92_linear_1_28211)"/>
<path d="M656 309H312V310H656V309Z" fill="url(#paint93_linear_1_28211)"/>
<path d="M656 313H312V314H656V313Z" fill="url(#paint94_linear_1_28211)"/>
<path d="M656 317H312V318H656V317Z" fill="url(#paint95_linear_1_28211)"/>
<path d="M656 321H312V322H656V321Z" fill="url(#paint96_linear_1_28211)"/>
<path d="M656 325H312V326H656V325Z" fill="url(#paint97_linear_1_28211)"/>
<path d="M656 329H312V330H656V329Z" fill="url(#paint98_linear_1_28211)"/>
<path d="M656 333H312V334H656V333Z" fill="url(#paint99_linear_1_28211)"/>
<path d="M656 337H312V338H656V337Z" fill="url(#paint100_linear_1_28211)"/>
<path d="M656 341H312V342H656V341Z" fill="url(#paint101_linear_1_28211)"/>
<path d="M656 345H312V346H656V345Z" fill="url(#paint102_linear_1_28211)"/>
<path d="M656 349H312V350H656V349Z" fill="url(#paint103_linear_1_28211)"/>
<path d="M656 353H312V354H656V353Z" fill="url(#paint104_linear_1_28211)"/>
<path d="M656 357H312V358H656V357Z" fill="url(#paint105_linear_1_28211)"/>
<path d="M656 361H312V362H656V361Z" fill="url(#paint106_linear_1_28211)"/>
<path d="M656 365H312V366H656V365Z" fill="url(#paint107_linear_1_28211)"/>
<path d="M656 369H312V370H656V369Z" fill="url(#paint108_linear_1_28211)"/>
</g>
</g>
<defs>
<linearGradient id="paint0_linear_1_28211" x1="328" y1="258" x2="328" y2="-7.33669e-06" gradientUnits="userSpaceOnUse">
<stop stop-color="#076CE9"/>
<stop offset="1" stop-color="#0C1237"/>
</linearGradient>
<linearGradient id="paint1_linear_1_28211" x1="575" y1="196" x2="-2.81501e-05" y2="196" gradientUnits="userSpaceOnUse">
<stop stop-color="#076CE9" stop-opacity="0"/>
<stop offset="1" stop-color="#076CE9"/>
</linearGradient>
<linearGradient id="paint2_linear_1_28211" x1="656" y1="369.5" x2="312" y2="369.5" gradientUnits="userSpaceOnUse">
<stop stop-color="#19C2EF"/>
<stop offset="1" stop-color="#076CE9" stop-opacity="0"/>
</linearGradient>
<linearGradient id="paint3_linear_1_28211" x1="656" y1="369.5" x2="312" y2="369.5" gradientUnits="userSpaceOnUse">
<stop stop-color="#19C2EF"/>
<stop offset="1" stop-color="#076CE9" stop-opacity="0"/>
</linearGradient>
<linearGradient id="paint4_linear_1_28211" x1="656" y1="369.5" x2="312" y2="369.5" gradientUnits="userSpaceOnUse">
<stop stop-color="#19C2EF"/>
<stop offset="1" stop-color="#076CE9" stop-opacity="0"/>
</linearGradient>
<linearGradient id="paint5_linear_1_28211" x1="656" y1="369.5" x2="312" y2="369.5" gradientUnits="userSpaceOnUse">
<stop stop-color="#19C2EF"/>
<stop offset="1" stop-color="#076CE9" stop-opacity="0"/>
</linearGradient>
<linearGradient id="paint6_linear_1_28211" x1="656" y1="369.5" x2="312" y2="369.5" gradientUnits="userSpaceOnUse">
<stop stop-color="#19C2EF"/>
<stop offset="1" stop-color="#076CE9" stop-opacity="0"/>
</linearGradient>
<linearGradient id="paint7_linear_1_28211" x1="656" y1="369.5" x2="312" y2="369.5" gradientUnits="userSpaceOnUse">
<stop stop-color="#19C2EF"/>
<stop offset="1" stop-color="#076CE9" stop-opacity="0"/>
</linearGradient>
<linearGradient id="paint8_linear_1_28211" x1="656" y1="369.5" x2="312" y2="369.5" gradientUnits="userSpaceOnUse">
<stop stop-color="#19C2EF"/>
<stop offset="1" stop-color="#076CE9" stop-opacity="0"/>
</linearGradient>
<linearGradient id="paint9_linear_1_28211" x1="656" y1="369.5" x2="312" y2="369.5" gradientUnits="userSpaceOnUse">
<stop stop-color="#19C2EF"/>
<stop offset="1" stop-color="#076CE9" stop-opacity="0"/>
</linearGradient>
<linearGradient id="paint10_linear_1_28211" x1="656" y1="369.5" x2="312" y2="369.5" gradientUnits="userSpaceOnUse">
<stop stop-color="#19C2EF"/>
<stop offset="1" stop-color="#076CE9" stop-opacity="0"/>
</linearGradient>
<linearGradient id="paint11_linear_1_28211" x1="656" y1="369.5" x2="312" y2="369.5" gradientUnits="userSpaceOnUse">
<stop stop-color="#19C2EF"/>
<stop offset="1" stop-color="#076CE9" stop-opacity="0"/>
</linearGradient>
<linearGradient id="paint12_linear_1_28211" x1="656" y1="369.5" x2="312" y2="369.5" gradientUnits="userSpaceOnUse">
<stop stop-color="#19C2EF"/>
<stop offset="1" stop-color="#076CE9" stop-opacity="0"/>
</linearGradient>
<linearGradient id="paint13_linear_1_28211" x1="656" y1="369.5" x2="312" y2="369.5" gradientUnits="userSpaceOnUse">
<stop stop-color="#19C2EF"/>
<stop offset="1" stop-color="#076CE9" stop-opacity="0"/>
</linearGradient>
<linearGradient id="paint14_linear_1_28211" x1="656" y1="369.5" x2="312" y2="369.5" gradientUnits="userSpaceOnUse">
<stop stop-color="#19C2EF"/>
<stop offset="1" stop-color="#076CE9" stop-opacity="0"/>
</linearGradient>
<linearGradient id="paint15_linear_1_28211" x1="656" y1="369.5" x2="312" y2="369.5" gradientUnits="userSpaceOnUse">
<stop stop-color="#19C2EF"/>
<stop offset="1" stop-color="#076CE9" stop-opacity="0"/>
</linearGradient>
<linearGradient id="paint16_linear_1_28211" x1="656" y1="369.5" x2="312" y2="369.5" gradientUnits="userSpaceOnUse">
<stop stop-color="#19C2EF"/>
<stop offset="1" stop-color="#076CE9" stop-opacity="0"/>
</linearGradient>
<linearGradient id="paint17_linear_1_28211" x1="656" y1="369.5" x2="312" y2="369.5" gradientUnits="userSpaceOnUse">
<stop stop-color="#19C2EF"/>
<stop offset="1" stop-color="#076CE9" stop-opacity="0"/>
</linearGradient>
<linearGradient id="paint18_linear_1_28211" x1="656" y1="369.5" x2="312" y2="369.5" gradientUnits="userSpaceOnUse">
<stop stop-color="#19C2EF"/>
<stop offset="1" stop-color="#076CE9" stop-opacity="0"/>
</linearGradient>
<linearGradient id="paint19_linear_1_28211" x1="656" y1="369.5" x2="312" y2="369.5" gradientUnits="userSpaceOnUse">
<stop stop-color="#19C2EF"/>
<stop offset="1" stop-color="#076CE9" stop-opacity="0"/>
</linearGradient>
<linearGradient id="paint20_linear_1_28211" x1="656" y1="369.5" x2="312" y2="369.5" gradientUnits="userSpaceOnUse">
<stop stop-color="#19C2EF"/>
<stop offset="1" stop-color="#076CE9" stop-opacity="0"/>
</linearGradient>
<linearGradient id="paint21_linear_1_28211" x1="656" y1="369.5" x2="312" y2="369.5" gradientUnits="userSpaceOnUse">
<stop stop-color="#19C2EF"/>
<stop offset="1" stop-color="#076CE9" stop-opacity="0"/>
</linearGradient>
<linearGradient id="paint22_linear_1_28211" x1="656" y1="369.5" x2="312" y2="369.5" gradientUnits="userSpaceOnUse">
<stop stop-color="#19C2EF"/>
<stop offset="1" stop-color="#076CE9" stop-opacity="0"/>
</linearGradient>
<linearGradient id="paint23_linear_1_28211" x1="656" y1="369.5" x2="312" y2="369.5" gradientUnits="userSpaceOnUse">
<stop stop-color="#19C2EF"/>
<stop offset="1" stop-color="#076CE9" stop-opacity="0"/>
</linearGradient>
<linearGradient id="paint24_linear_1_28211" x1="656" y1="369.5" x2="312" y2="369.5" gradientUnits="userSpaceOnUse">
<stop stop-color="#19C2EF"/>
<stop offset="1" stop-color="#076CE9" stop-opacity="0"/>
</linearGradient>
<linearGradient id="paint25_linear_1_28211" x1="656" y1="369.5" x2="312" y2="369.5" gradientUnits="userSpaceOnUse">
<stop stop-color="#19C2EF"/>
<stop offset="1" stop-color="#076CE9" stop-opacity="0"/>
</linearGradient>
<linearGradient id="paint26_linear_1_28211" x1="656" y1="369.5" x2="312" y2="369.5" gradientUnits="userSpaceOnUse">
<stop stop-color="#19C2EF"/>
<stop offset="1" stop-color="#076CE9" stop-opacity="0"/>
</linearGradient>
<linearGradient id="paint27_linear_1_28211" x1="656" y1="369.5" x2="312" y2="369.5" gradientUnits="userSpaceOnUse">
<stop stop-color="#19C2EF"/>
<stop offset="1" stop-color="#076CE9" stop-opacity="0"/>
</linearGradient>
<linearGradient id="paint28_linear_1_28211" x1="656" y1="369.5" x2="312" y2="369.5" gradientUnits="userSpaceOnUse">
<stop stop-color="#19C2EF"/>
<stop offset="1" stop-color="#076CE9" stop-opacity="0"/>
</linearGradient>
<linearGradient id="paint29_linear_1_28211" x1="656" y1="369.5" x2="312" y2="369.5" gradientUnits="userSpaceOnUse">
<stop stop-color="#19C2EF"/>
<stop offset="1" stop-color="#076CE9" stop-opacity="0"/>
</linearGradient>
<linearGradient id="paint30_linear_1_28211" x1="656" y1="369.5" x2="312" y2="369.5" gradientUnits="userSpaceOnUse">
<stop stop-color="#19C2EF"/>
<stop offset="1" stop-color="#076CE9" stop-opacity="0"/>
</linearGradient>
<linearGradient id="paint31_linear_1_28211" x1="656" y1="369.5" x2="312" y2="369.5" gradientUnits="userSpaceOnUse">
<stop stop-color="#19C2EF"/>
<stop offset="1" stop-color="#076CE9" stop-opacity="0"/>
</linearGradient>
<linearGradient id="paint32_linear_1_28211" x1="656" y1="369.5" x2="312" y2="369.5" gradientUnits="userSpaceOnUse">
<stop stop-color="#19C2EF"/>
<stop offset="1" stop-color="#076CE9" stop-opacity="0"/>
</linearGradient>
<linearGradient id="paint33_linear_1_28211" x1="656" y1="369.5" x2="312" y2="369.5" gradientUnits="userSpaceOnUse">
<stop stop-color="#19C2EF"/>
<stop offset="1" stop-color="#076CE9" stop-opacity="0"/>
</linearGradient>
<linearGradient id="paint34_linear_1_28211" x1="656" y1="369.5" x2="312" y2="369.5" gradientUnits="userSpaceOnUse">
<stop stop-color="#19C2EF"/>
<stop offset="1" stop-color="#076CE9" stop-opacity="0"/>
</linearGradient>
<linearGradient id="paint35_linear_1_28211" x1="656" y1="369.5" x2="312" y2="369.5" gradientUnits="userSpaceOnUse">
<stop stop-color="#19C2EF"/>
<stop offset="1" stop-color="#076CE9" stop-opacity="0"/>
</linearGradient>
<linearGradient id="paint36_linear_1_28211" x1="656" y1="369.5" x2="312" y2="369.5" gradientUnits="userSpaceOnUse">
<stop stop-color="#19C2EF"/>
<stop offset="1" stop-color="#076CE9" stop-opacity="0"/>
</linearGradient>
<linearGradient id="paint37_linear_1_28211" x1="656" y1="369.5" x2="312" y2="369.5" gradientUnits="userSpaceOnUse">
<stop stop-color="#19C2EF"/>
<stop offset="1" stop-color="#076CE9" stop-opacity="0"/>
</linearGradient>
<linearGradient id="paint38_linear_1_28211" x1="656" y1="369.5" x2="312" y2="369.5" gradientUnits="userSpaceOnUse">
<stop stop-color="#19C2EF"/>
<stop offset="1" stop-color="#076CE9" stop-opacity="0"/>
</linearGradient>
<linearGradient id="paint39_linear_1_28211" x1="656" y1="369.5" x2="312" y2="369.5" gradientUnits="userSpaceOnUse">
<stop stop-color="#19C2EF"/>
<stop offset="1" stop-color="#076CE9" stop-opacity="0"/>
</linearGradient>
<linearGradient id="paint40_linear_1_28211" x1="656" y1="369.5" x2="312" y2="369.5" gradientUnits="userSpaceOnUse">
<stop stop-color="#19C2EF"/>
<stop offset="1" stop-color="#076CE9" stop-opacity="0"/>
</linearGradient>
<linearGradient id="paint41_linear_1_28211" x1="656" y1="369.5" x2="312" y2="369.5" gradientUnits="userSpaceOnUse">
<stop stop-color="#19C2EF"/>
<stop offset="1" stop-color="#076CE9" stop-opacity="0"/>
</linearGradient>
<linearGradient id="paint42_linear_1_28211" x1="656" y1="369.5" x2="312" y2="369.5" gradientUnits="userSpaceOnUse">
<stop stop-color="#19C2EF"/>
<stop offset="1" stop-color="#076CE9" stop-opacity="0"/>
</linearGradient>
<linearGradient id="paint43_linear_1_28211" x1="656" y1="369.5" x2="312" y2="369.5" gradientUnits="userSpaceOnUse">
<stop stop-color="#19C2EF"/>
<stop offset="1" stop-color="#076CE9" stop-opacity="0"/>
</linearGradient>
<linearGradient id="paint44_linear_1_28211" x1="656" y1="369.5" x2="312" y2="369.5" gradientUnits="userSpaceOnUse">
<stop stop-color="#19C2EF"/>
<stop offset="1" stop-color="#076CE9" stop-opacity="0"/>
</linearGradient>
<linearGradient id="paint45_linear_1_28211" x1="656" y1="369.5" x2="312" y2="369.5" gradientUnits="userSpaceOnUse">
<stop stop-color="#19C2EF"/>
<stop offset="1" stop-color="#076CE9" stop-opacity="0"/>
</linearGradient>
<linearGradient id="paint46_linear_1_28211" x1="656" y1="369.5" x2="312" y2="369.5" gradientUnits="userSpaceOnUse">
<stop stop-color="#19C2EF"/>
<stop offset="1" stop-color="#076CE9" stop-opacity="0"/>
</linearGradient>
<linearGradient id="paint47_linear_1_28211" x1="656" y1="369.5" x2="312" y2="369.5" gradientUnits="userSpaceOnUse">
<stop stop-color="#19C2EF"/>
<stop offset="1" stop-color="#076CE9" stop-opacity="0"/>
</linearGradient>
<linearGradient id="paint48_linear_1_28211" x1="656" y1="369.5" x2="312" y2="369.5" gradientUnits="userSpaceOnUse">
<stop stop-color="#19C2EF"/>
<stop offset="1" stop-color="#076CE9" stop-opacity="0"/>
</linearGradient>
<linearGradient id="paint49_linear_1_28211" x1="656" y1="369.5" x2="312" y2="369.5" gradientUnits="userSpaceOnUse">
<stop stop-color="#19C2EF"/>
<stop offset="1" stop-color="#076CE9" stop-opacity="0"/>
</linearGradient>
<linearGradient id="paint50_linear_1_28211" x1="656" y1="369.5" x2="312" y2="369.5" gradientUnits="userSpaceOnUse">
<stop stop-color="#19C2EF"/>
<stop offset="1" stop-color="#076CE9" stop-opacity="0"/>
</linearGradient>
<linearGradient id="paint51_linear_1_28211" x1="656" y1="369.5" x2="312" y2="369.5" gradientUnits="userSpaceOnUse">
<stop stop-color="#19C2EF"/>
<stop offset="1" stop-color="#076CE9" stop-opacity="0"/>
</linearGradient>
<linearGradient id="paint52_linear_1_28211" x1="656" y1="369.5" x2="312" y2="369.5" gradientUnits="userSpaceOnUse">
<stop stop-color="#19C2EF"/>
<stop offset="1" stop-color="#076CE9" stop-opacity="0"/>
</linearGradient>
<linearGradient id="paint53_linear_1_28211" x1="656" y1="369.5" x2="312" y2="369.5" gradientUnits="userSpaceOnUse">
<stop stop-color="#19C2EF"/>
<stop offset="1" stop-color="#076CE9" stop-opacity="0"/>
</linearGradient>
<linearGradient id="paint54_linear_1_28211" x1="656" y1="369.5" x2="312" y2="369.5" gradientUnits="userSpaceOnUse">
<stop stop-color="#19C2EF"/>
<stop offset="1" stop-color="#076CE9" stop-opacity="0"/>
</linearGradient>
<linearGradient id="paint55_linear_1_28211" x1="656" y1="369.5" x2="312" y2="369.5" gradientUnits="userSpaceOnUse">
<stop stop-color="#19C2EF"/>
<stop offset="1" stop-color="#076CE9" stop-opacity="0"/>
</linearGradient>
<linearGradient id="paint56_linear_1_28211" x1="656" y1="369.5" x2="312" y2="369.5" gradientUnits="userSpaceOnUse">
<stop stop-color="#19C2EF"/>
<stop offset="1" stop-color="#076CE9" stop-opacity="0"/>
</linearGradient>
<linearGradient id="paint57_linear_1_28211" x1="656" y1="369.5" x2="312" y2="369.5" gradientUnits="userSpaceOnUse">
<stop stop-color="#19C2EF"/>
<stop offset="1" stop-color="#076CE9" stop-opacity="0"/>
</linearGradient>
<linearGradient id="paint58_linear_1_28211" x1="656" y1="369.5" x2="312" y2="369.5" gradientUnits="userSpaceOnUse">
<stop stop-color="#19C2EF"/>
<stop offset="1" stop-color="#076CE9" stop-opacity="0"/>
</linearGradient>
<linearGradient id="paint59_linear_1_28211" x1="656" y1="369.5" x2="312" y2="369.5" gradientUnits="userSpaceOnUse">
<stop stop-color="#19C2EF"/>
<stop offset="1" stop-color="#076CE9" stop-opacity="0"/>
</linearGradient>
<linearGradient id="paint60_linear_1_28211" x1="656" y1="369.5" x2="312" y2="369.5" gradientUnits="userSpaceOnUse">
<stop stop-color="#19C2EF"/>
<stop offset="1" stop-color="#076CE9" stop-opacity="0"/>
</linearGradient>
<linearGradient id="paint61_linear_1_28211" x1="656" y1="369.5" x2="312" y2="369.5" gradientUnits="userSpaceOnUse">
<stop stop-color="#19C2EF"/>
<stop offset="1" stop-color="#076CE9" stop-opacity="0"/>
</linearGradient>
<linearGradient id="paint62_linear_1_28211" x1="656" y1="369.5" x2="312" y2="369.5" gradientUnits="userSpaceOnUse">
<stop stop-color="#19C2EF"/>
<stop offset="1" stop-color="#076CE9" stop-opacity="0"/>
</linearGradient>
<linearGradient id="paint63_linear_1_28211" x1="656" y1="369.5" x2="312" y2="369.5" gradientUnits="userSpaceOnUse">
<stop stop-color="#19C2EF"/>
<stop offset="1" stop-color="#076CE9" stop-opacity="0"/>
</linearGradient>
<linearGradient id="paint64_linear_1_28211" x1="656" y1="369.5" x2="312" y2="369.5" gradientUnits="userSpaceOnUse">
<stop stop-color="#19C2EF"/>
<stop offset="1" stop-color="#076CE9" stop-opacity="0"/>
</linearGradient>
<linearGradient id="paint65_linear_1_28211" x1="656" y1="369.5" x2="312" y2="369.5" gradientUnits="userSpaceOnUse">
<stop stop-color="#19C2EF"/>
<stop offset="1" stop-color="#076CE9" stop-opacity="0"/>
</linearGradient>
<linearGradient id="paint66_linear_1_28211" x1="656" y1="369.5" x2="312" y2="369.5" gradientUnits="userSpaceOnUse">
<stop stop-color="#19C2EF"/>
<stop offset="1" stop-color="#076CE9" stop-opacity="0"/>
</linearGradient>
<linearGradient id="paint67_linear_1_28211" x1="656" y1="369.5" x2="312" y2="369.5" gradientUnits="userSpaceOnUse">
<stop stop-color="#19C2EF"/>
<stop offset="1" stop-color="#076CE9" stop-opacity="0"/>
</linearGradient>
<linearGradient id="paint68_linear_1_28211" x1="656" y1="369.5" x2="312" y2="369.5" gradientUnits="userSpaceOnUse">
<stop stop-color="#19C2EF"/>
<stop offset="1" stop-color="#076CE9" stop-opacity="0"/>
</linearGradient>
<linearGradient id="paint69_linear_1_28211" x1="656" y1="369.5" x2="312" y2="369.5" gradientUnits="userSpaceOnUse">
<stop stop-color="#19C2EF"/>
<stop offset="1" stop-color="#076CE9" stop-opacity="0"/>
</linearGradient>
<linearGradient id="paint70_linear_1_28211" x1="656" y1="369.5" x2="312" y2="369.5" gradientUnits="userSpaceOnUse">
<stop stop-color="#19C2EF"/>
<stop offset="1" stop-color="#076CE9" stop-opacity="0"/>
</linearGradient>
<linearGradient id="paint71_linear_1_28211" x1="656" y1="369.5" x2="312" y2="369.5" gradientUnits="userSpaceOnUse">
<stop stop-color="#19C2EF"/>
<stop offset="1" stop-color="#076CE9" stop-opacity="0"/>
</linearGradient>
<linearGradient id="paint72_linear_1_28211" x1="656" y1="369.5" x2="312" y2="369.5" gradientUnits="userSpaceOnUse">
<stop stop-color="#19C2EF"/>
<stop offset="1" stop-color="#076CE9" stop-opacity="0"/>
</linearGradient>
<linearGradient id="paint73_linear_1_28211" x1="656" y1="369.5" x2="312" y2="369.5" gradientUnits="userSpaceOnUse">
<stop stop-color="#19C2EF"/>
<stop offset="1" stop-color="#076CE9" stop-opacity="0"/>
</linearGradient>
<linearGradient id="paint74_linear_1_28211" x1="656" y1="369.5" x2="312" y2="369.5" gradientUnits="userSpaceOnUse">
<stop stop-color="#19C2EF"/>
<stop offset="1" stop-color="#076CE9" stop-opacity="0"/>
</linearGradient>
<linearGradient id="paint75_linear_1_28211" x1="656" y1="369.5" x2="312" y2="369.5" gradientUnits="userSpaceOnUse">
<stop stop-color="#19C2EF"/>
<stop offset="1" stop-color="#076CE9" stop-opacity="0"/>
</linearGradient>
<linearGradient id="paint76_linear_1_28211" x1="656" y1="369.5" x2="312" y2="369.5" gradientUnits="userSpaceOnUse">
<stop stop-color="#19C2EF"/>
<stop offset="1" stop-color="#076CE9" stop-opacity="0"/>
</linearGradient>
<linearGradient id="paint77_linear_1_28211" x1="656" y1="369.5" x2="312" y2="369.5" gradientUnits="userSpaceOnUse">
<stop stop-color="#19C2EF"/>
<stop offset="1" stop-color="#076CE9" stop-opacity="0"/>
</linearGradient>
<linearGradient id="paint78_linear_1_28211" x1="656" y1="369.5" x2="312" y2="369.5" gradientUnits="userSpaceOnUse">
<stop stop-color="#19C2EF"/>
<stop offset="1" stop-color="#076CE9" stop-opacity="0"/>
</linearGradient>
<linearGradient id="paint79_linear_1_28211" x1="656" y1="369.5" x2="312" y2="369.5" gradientUnits="userSpaceOnUse">
<stop stop-color="#19C2EF"/>
<stop offset="1" stop-color="#076CE9" stop-opacity="0"/>
</linearGradient>
<linearGradient id="paint80_linear_1_28211" x1="656" y1="369.5" x2="312" y2="369.5" gradientUnits="userSpaceOnUse">
<stop stop-color="#19C2EF"/>
<stop offset="1" stop-color="#076CE9" stop-opacity="0"/>
</linearGradient>
<linearGradient id="paint81_linear_1_28211" x1="656" y1="369.5" x2="312" y2="369.5" gradientUnits="userSpaceOnUse">
<stop stop-color="#19C2EF"/>
<stop offset="1" stop-color="#076CE9" stop-opacity="0"/>
</linearGradient>
<linearGradient id="paint82_linear_1_28211" x1="656" y1="369.5" x2="312" y2="369.5" gradientUnits="userSpaceOnUse">
<stop stop-color="#19C2EF"/>
<stop offset="1" stop-color="#076CE9" stop-opacity="0"/>
</linearGradient>
<linearGradient id="paint83_linear_1_28211" x1="656" y1="369.5" x2="312" y2="369.5" gradientUnits="userSpaceOnUse">
<stop stop-color="#19C2EF"/>
<stop offset="1" stop-color="#076CE9" stop-opacity="0"/>
</linearGradient>
<linearGradient id="paint84_linear_1_28211" x1="656" y1="369.5" x2="312" y2="369.5" gradientUnits="userSpaceOnUse">
<stop stop-color="#19C2EF"/>
<stop offset="1" stop-color="#076CE9" stop-opacity="0"/>
</linearGradient>
<linearGradient id="paint85_linear_1_28211" x1="656" y1="369.5" x2="312" y2="369.5" gradientUnits="userSpaceOnUse">
<stop stop-color="#19C2EF"/>
<stop offset="1" stop-color="#076CE9" stop-opacity="0"/>
</linearGradient>
<linearGradient id="paint86_linear_1_28211" x1="656" y1="369.5" x2="312" y2="369.5" gradientUnits="userSpaceOnUse">
<stop stop-color="#19C2EF"/>
<stop offset="1" stop-color="#076CE9" stop-opacity="0"/>
</linearGradient>
<linearGradient id="paint87_linear_1_28211" x1="656" y1="369.5" x2="312" y2="369.5" gradientUnits="userSpaceOnUse">
<stop stop-color="#19C2EF"/>
<stop offset="1" stop-color="#076CE9" stop-opacity="0"/>
</linearGradient>
<linearGradient id="paint88_linear_1_28211" x1="656" y1="369.5" x2="312" y2="369.5" gradientUnits="userSpaceOnUse">
<stop stop-color="#19C2EF"/>
<stop offset="1" stop-color="#076CE9" stop-opacity="0"/>
</linearGradient>
<linearGradient id="paint89_linear_1_28211" x1="656" y1="369.5" x2="312" y2="369.5" gradientUnits="userSpaceOnUse">
<stop stop-color="#19C2EF"/>
<stop offset="1" stop-color="#076CE9" stop-opacity="0"/>
</linearGradient>
<linearGradient id="paint90_linear_1_28211" x1="656" y1="369.5" x2="312" y2="369.5" gradientUnits="userSpaceOnUse">
<stop stop-color="#19C2EF"/>
<stop offset="1" stop-color="#076CE9" stop-opacity="0"/>
</linearGradient>
<linearGradient id="paint91_linear_1_28211" x1="656" y1="369.5" x2="312" y2="369.5" gradientUnits="userSpaceOnUse">
<stop stop-color="#19C2EF"/>
<stop offset="1" stop-color="#076CE9" stop-opacity="0"/>
</linearGradient>
<linearGradient id="paint92_linear_1_28211" x1="656" y1="369.5" x2="312" y2="369.5" gradientUnits="userSpaceOnUse">
<stop stop-color="#19C2EF"/>
<stop offset="1" stop-color="#076CE9" stop-opacity="0"/>
</linearGradient>
<linearGradient id="paint93_linear_1_28211" x1="656" y1="369.5" x2="312" y2="369.5" gradientUnits="userSpaceOnUse">
<stop stop-color="#19C2EF"/>
<stop offset="1" stop-color="#076CE9" stop-opacity="0"/>
</linearGradient>
<linearGradient id="paint94_linear_1_28211" x1="656" y1="369.5" x2="312" y2="369.5" gradientUnits="userSpaceOnUse">
<stop stop-color="#19C2EF"/>
<stop offset="1" stop-color="#076CE9" stop-opacity="0"/>
</linearGradient>
<linearGradient id="paint95_linear_1_28211" x1="656" y1="369.5" x2="312" y2="369.5" gradientUnits="userSpaceOnUse">
<stop stop-color="#19C2EF"/>
<stop offset="1" stop-color="#076CE9" stop-opacity="0"/>
</linearGradient>
<linearGradient id="paint96_linear_1_28211" x1="656" y1="369.5" x2="312" y2="369.5" gradientUnits="userSpaceOnUse">
<stop stop-color="#19C2EF"/>
<stop offset="1" stop-color="#076CE9" stop-opacity="0"/>
</linearGradient>
<linearGradient id="paint97_linear_1_28211" x1="656" y1="369.5" x2="312" y2="369.5" gradientUnits="userSpaceOnUse">
<stop stop-color="#19C2EF"/>
<stop offset="1" stop-color="#076CE9" stop-opacity="0"/>
</linearGradient>
<linearGradient id="paint98_linear_1_28211" x1="656" y1="369.5" x2="312" y2="369.5" gradientUnits="userSpaceOnUse">
<stop stop-color="#19C2EF"/>
<stop offset="1" stop-color="#076CE9" stop-opacity="0"/>
</linearGradient>
<linearGradient id="paint99_linear_1_28211" x1="656" y1="369.5" x2="312" y2="369.5" gradientUnits="userSpaceOnUse">
<stop stop-color="#19C2EF"/>
<stop offset="1" stop-color="#076CE9" stop-opacity="0"/>
</linearGradient>
<linearGradient id="paint100_linear_1_28211" x1="656" y1="369.5" x2="312" y2="369.5" gradientUnits="userSpaceOnUse">
<stop stop-color="#19C2EF"/>
<stop offset="1" stop-color="#076CE9" stop-opacity="0"/>
</linearGradient>
<linearGradient id="paint101_linear_1_28211" x1="656" y1="369.5" x2="312" y2="369.5" gradientUnits="userSpaceOnUse">
<stop stop-color="#19C2EF"/>
<stop offset="1" stop-color="#076CE9" stop-opacity="0"/>
</linearGradient>
<linearGradient id="paint102_linear_1_28211" x1="656" y1="369.5" x2="312" y2="369.5" gradientUnits="userSpaceOnUse">
<stop stop-color="#19C2EF"/>
<stop offset="1" stop-color="#076CE9" stop-opacity="0"/>
</linearGradient>
<linearGradient id="paint103_linear_1_28211" x1="656" y1="369.5" x2="312" y2="369.5" gradientUnits="userSpaceOnUse">
<stop stop-color="#19C2EF"/>
<stop offset="1" stop-color="#076CE9" stop-opacity="0"/>
</linearGradient>
<linearGradient id="paint104_linear_1_28211" x1="656" y1="369.5" x2="312" y2="369.5" gradientUnits="userSpaceOnUse">
<stop stop-color="#19C2EF"/>
<stop offset="1" stop-color="#076CE9" stop-opacity="0"/>
</linearGradient>
<linearGradient id="paint105_linear_1_28211" x1="656" y1="369.5" x2="312" y2="369.5" gradientUnits="userSpaceOnUse">
<stop stop-color="#19C2EF"/>
<stop offset="1" stop-color="#076CE9" stop-opacity="0"/>
</linearGradient>
<linearGradient id="paint106_linear_1_28211" x1="656" y1="369.5" x2="312" y2="369.5" gradientUnits="userSpaceOnUse">
<stop stop-color="#19C2EF"/>
<stop offset="1" stop-color="#076CE9" stop-opacity="0"/>
</linearGradient>
<linearGradient id="paint107_linear_1_28211" x1="656" y1="369.5" x2="312" y2="369.5" gradientUnits="userSpaceOnUse">
<stop stop-color="#19C2EF"/>
<stop offset="1" stop-color="#076CE9" stop-opacity="0"/>
</linearGradient>
<linearGradient id="paint108_linear_1_28211" x1="656" y1="369.5" x2="312" y2="369.5" gradientUnits="userSpaceOnUse">
<stop stop-color="#19C2EF"/>
<stop offset="1" stop-color="#076CE9" stop-opacity="0"/>
</linearGradient>
</defs>
</svg>
