<svg width="75" height="76" viewBox="0 0 75 76" fill="none" xmlns="http://www.w3.org/2000/svg">
<path d="M74.5236 38C74.528 42.097 73.8673 46.167 72.5681 50.0476L69.5789 49.0227C67.8989 53.9931 65.1181 58.5096 61.449 62.2276C57.7798 65.9456 53.3192 68.7668 48.4076 70.4758L49.4277 73.4974C41.6555 76.1675 33.2289 76.1675 25.4566 73.4974L26.4765 70.4756C21.565 68.7667 17.1045 65.9457 13.4354 62.2278C9.76632 58.5099 6.98568 53.9934 5.3057 49.0231L2.31627 50.048C-0.291417 42.2325 -0.291417 33.7675 2.31627 25.952L5.3057 26.9769C6.9894 21.9951 9.77874 17.4695 13.4599 13.7468C17.141 10.0241 21.6162 7.20324 26.5424 5.50054L25.529 2.47753C33.2573 -0.159233 41.6274 -0.15918 49.3556 2.47768L48.3423 5.50085C53.2684 7.2036 57.7436 10.0245 61.4248 13.7472C65.1059 17.4699 67.8952 21.9956 69.5789 26.9773L72.5681 25.9524C73.8674 29.833 74.528 33.903 74.5236 38ZM37.442 4.90405C30.9693 4.90407 24.642 6.84512 19.2602 10.4817C13.8783 14.1184 9.68369 19.2872 7.20671 25.3347C4.72972 31.3822 4.08164 38.0367 5.3444 44.4566C6.60716 50.8766 9.72406 56.7737 14.3009 61.4022C18.8778 66.0308 24.7091 69.1828 31.0575 70.4599C37.4058 71.7369 43.986 71.0815 49.966 68.5765C55.946 66.0716 61.0572 61.8296 64.6532 56.3871C68.2493 50.9445 70.1686 44.5457 70.1687 38C70.1589 29.2254 66.7078 20.8131 60.5724 14.6086C54.4371 8.404 46.1187 4.91394 37.442 4.90405Z" fill="url(#paint0_linear_1_37826)"/>
<path d="M19 49.0809V52.25C19 54.8699 25.3828 57 33.25 57C41.1172 57 47.5 54.8699 47.5 52.25V49.0809C44.4348 51.2406 38.8312 52.25 33.25 52.25C27.6687 52.25 22.0652 51.2406 19 49.0809ZM42.75 28.5C50.6172 28.5 57 26.3699 57 23.75C57 21.1301 50.6172 19 42.75 19C34.8828 19 28.5 21.1301 28.5 23.75C28.5 26.3699 34.8828 28.5 42.75 28.5ZM19 41.2953V45.125C19 47.7449 25.3828 49.875 33.25 49.875C41.1172 49.875 47.5 47.7449 47.5 45.125V41.2953C44.4348 43.8188 38.8238 45.125 33.25 45.125C27.6762 45.125 22.0652 43.8188 19 41.2953ZM49.875 42.1117C54.1277 41.2879 57 39.759 57 38V34.8309C55.2781 36.048 52.7473 36.8793 49.875 37.3914V42.1117ZM33.25 30.875C25.3828 30.875 19 33.532 19 36.8125C19 40.093 25.3828 42.75 33.25 42.75C41.1172 42.75 47.5 40.093 47.5 36.8125C47.5 33.532 41.1172 30.875 33.25 30.875ZM49.5262 35.0535C53.9793 34.252 57 32.6785 57 30.875V27.7059C54.3652 29.5688 49.8379 30.5707 45.073 30.8082C47.2625 31.8695 48.873 33.2945 49.5262 35.0535Z" fill="url(#paint1_linear_1_37826)"/>
<path d="M19.5 52.25V49.9912C21.0199 50.8677 22.9516 51.517 25.0785 51.9646C27.6 52.4953 30.4314 52.75 33.25 52.75C36.0686 52.75 38.9 52.4953 41.4215 51.9646C43.5484 51.517 45.4801 50.8677 47 49.9912V52.25C47 52.6858 46.7349 53.1813 46.0704 53.7047C45.4116 54.2235 44.4275 54.7128 43.167 55.1331C40.6513 55.972 37.1447 56.5 33.25 56.5C29.3553 56.5 25.8487 55.972 23.333 55.1331C22.0725 54.7128 21.0884 54.2235 20.4296 53.7047C19.7651 53.1813 19.5 52.6858 19.5 52.25ZM56.5 23.75C56.5 24.1858 56.2349 24.6813 55.5704 25.2047C54.9116 25.7235 53.9275 26.2128 52.667 26.6331C50.1513 27.472 46.6447 28 42.75 28C38.8553 28 35.3487 27.472 32.833 26.6331C31.5725 26.2128 30.5884 25.7235 29.9296 25.2047C29.2651 24.6813 29 24.1858 29 23.75C29 23.3142 29.2651 22.8187 29.9296 22.2953C30.5884 21.7765 31.5725 21.2872 32.833 20.8669C35.3487 20.028 38.8553 19.5 42.75 19.5C46.6447 19.5 50.1513 20.028 52.667 20.8669C53.9275 21.2872 54.9116 21.7765 55.5704 22.2953C56.2349 22.8187 56.5 23.3142 56.5 23.75ZM19.5 45.125V42.2896C22.8027 44.5162 28.0837 45.625 33.25 45.625C38.4163 45.625 43.6973 44.5162 47 42.2896V45.125C47 45.5608 46.7349 46.0563 46.0704 46.5797C45.4116 47.0985 44.4275 47.5878 43.167 48.0081C40.6513 48.847 37.1447 49.375 33.25 49.375C29.3553 49.375 25.8487 48.847 23.333 48.0081C22.0725 47.5878 21.0884 47.0985 20.4296 46.5797C19.7651 46.0563 19.5 45.5608 19.5 45.125ZM56.5 38C56.5 38.5901 56.0055 39.2833 54.7866 39.9711C53.7154 40.5754 52.2045 41.103 50.375 41.4989V37.8075C52.7166 37.3601 54.8522 36.6896 56.5 35.7414V38ZM19.5 36.8125C19.5 36.1666 19.8121 35.5061 20.4711 34.8571C21.1319 34.2062 22.1137 33.5972 23.3671 33.0751C25.8717 32.0318 29.3659 31.375 33.25 31.375C37.1341 31.375 40.6283 32.0318 43.1329 33.0751C44.3863 33.5972 45.3681 34.2062 46.0289 34.8571C46.6879 35.5061 47 36.1666 47 36.8125C47 37.4584 46.6879 38.1189 46.0289 38.7679C45.3681 39.4188 44.3863 40.0278 43.1329 40.5499C40.6283 41.5932 37.1341 42.25 33.25 42.25C29.3659 42.25 25.8717 41.5932 23.3671 40.5499C22.1137 40.0278 21.1319 39.4188 20.4711 38.7679C19.8121 38.1189 19.5 37.4584 19.5 36.8125ZM56.5 30.875C56.5 31.4812 55.9771 32.1976 54.6927 32.9015C53.5212 33.5436 51.8523 34.0951 49.8328 34.4875C49.2369 33.1834 48.1607 32.0861 46.779 31.1912C50.5281 30.8569 54.0586 30.0275 56.5 28.6174V30.875Z" stroke="#19C2EF" stroke-opacity="0.55"/>
<defs>
<linearGradient id="paint0_linear_1_37826" x1="37.442" y1="75.5" x2="37.442" y2="0.5" gradientUnits="userSpaceOnUse">
<stop stop-color="#0974F8"/>
<stop offset="1" stop-color="#4FB2FE"/>
</linearGradient>
<linearGradient id="paint1_linear_1_37826" x1="38" y1="19" x2="38" y2="57" gradientUnits="userSpaceOnUse">
<stop stop-color="#0974F8"/>
<stop offset="1" stop-color="#4FB2FE"/>
</linearGradient>
</defs>
</svg>
