<svg width="75" height="76" viewBox="0 0 75 76" fill="none" xmlns="http://www.w3.org/2000/svg">
<path d="M74.5236 38C74.528 42.097 73.8674 46.167 72.5681 50.0476L69.579 49.0227C67.8989 53.9931 65.1182 58.5096 61.449 62.2276C57.7798 65.9456 53.3193 68.7668 48.4077 70.4758L49.4278 73.4974C41.6555 76.1675 33.2289 76.1675 25.4567 73.4974L26.4765 70.4756C21.565 68.7667 17.1045 65.9457 13.4354 62.2278C9.76635 58.5099 6.98571 53.9934 5.30573 49.0231L2.3163 50.048C-0.291387 42.2325 -0.291387 33.7675 2.3163 25.952L5.30573 26.9769C6.98943 21.9951 9.77877 17.4695 13.4599 13.7468C17.1411 10.0241 21.6163 7.20324 26.5424 5.50054L25.5291 2.47753C33.2573 -0.159233 41.6275 -0.15918 49.3557 2.47768L48.3423 5.50085C53.2685 7.2036 57.7436 10.0245 61.4248 13.7472C65.1059 17.4699 67.8953 21.9956 69.579 26.9773L72.5681 25.9524C73.8674 29.833 74.528 33.903 74.5236 38ZM37.4421 4.90405C30.9694 4.90407 24.642 6.84512 19.2602 10.4817C13.8784 14.1184 9.68373 19.2872 7.20674 25.3347C4.72976 31.3822 4.08167 38.0367 5.34443 44.4566C6.60719 50.8766 9.72409 56.7737 14.301 61.4022C18.8779 66.0308 24.7092 69.1828 31.0575 70.4599C37.4058 71.7369 43.986 71.0815 49.966 68.5765C55.946 66.0716 61.0572 61.8296 64.6532 56.3871C68.2493 50.9445 70.1687 44.5457 70.1687 38C70.1589 29.2254 66.7078 20.8131 60.5725 14.6086C54.4372 8.404 46.1187 4.91394 37.4421 4.90405Z" fill="url(#paint0_linear_1_38760)"/>
<path d="M30.0833 32.9181V31.3348C30.0833 30.9149 29.9165 30.5121 29.6196 30.2152C29.3227 29.9183 28.9199 29.7514 28.5 29.7514C28.0801 29.7514 27.6773 29.9183 27.3804 30.2152C27.0835 30.5121 26.9167 30.9149 26.9167 31.3348V32.9181H25.3333C24.9134 32.9181 24.5107 33.0849 24.2137 33.3819C23.9168 33.6788 23.75 34.0815 23.75 34.5014C23.75 34.9214 23.9168 35.3241 24.2137 35.621C24.5107 35.918 24.9134 36.0848 25.3333 36.0848H26.9167V37.6681C26.9167 38.088 27.0835 38.4908 27.3804 38.7877C27.6773 39.0846 28.0801 39.2514 28.5 39.2514C28.9199 39.2514 29.3227 39.0846 29.6196 38.7877C29.9165 38.4908 30.0833 38.088 30.0833 37.6681V36.0848H31.6667C32.0866 36.0848 32.4893 35.918 32.7863 35.621C33.0832 35.3241 33.25 34.9214 33.25 34.5014C33.25 34.0815 33.0832 33.6788 32.7863 33.3819C32.4893 33.0849 32.0866 32.9181 31.6667 32.9181H30.0833ZM33.7535 26.5848H42.2465C43.6779 25.6347 45.3401 25.0906 47.0562 25.0104C48.7723 24.9301 50.478 25.3167 51.9918 26.129C53.5056 26.9413 54.7708 28.1489 55.6527 29.6232C56.5347 31.0976 57.0003 32.7835 57 34.5014C57 39.7486 52.7472 50.3348 47.5 50.3348C44.3713 50.3348 41.5958 46.5696 39.8652 42.4181H36.1348C34.4058 46.5696 31.6287 50.3348 28.5 50.3348C23.2528 50.3348 19 39.7486 19 34.5014C18.9997 32.7835 19.4653 31.0976 20.3473 29.6232C21.2292 28.1489 22.4944 26.9413 24.0082 26.129C25.522 25.3167 27.2277 24.9301 28.9438 25.0104C30.6599 25.0906 32.3221 25.6347 33.7535 26.5848ZM47.5 32.9181C47.9199 32.9181 48.3227 32.7513 48.6196 32.4544C48.9165 32.1574 49.0833 31.7547 49.0833 31.3348C49.0833 30.9149 48.9165 30.5121 48.6196 30.2152C48.3227 29.9183 47.9199 29.7514 47.5 29.7514C47.0801 29.7514 46.6773 29.9183 46.3804 30.2152C46.0835 30.5121 45.9167 30.9149 45.9167 31.3348C45.9167 31.7547 46.0835 32.1574 46.3804 32.4544C46.6773 32.7513 47.0801 32.9181 47.5 32.9181ZM44.3333 36.0848C44.7533 36.0848 45.156 35.918 45.4529 35.621C45.7499 35.3241 45.9167 34.9214 45.9167 34.5014C45.9167 34.0815 45.7499 33.6788 45.4529 33.3819C45.156 33.0849 44.7533 32.9181 44.3333 32.9181C43.9134 32.9181 43.5107 33.0849 43.2137 33.3819C42.9168 33.6788 42.75 34.0815 42.75 34.5014C42.75 34.9214 42.9168 35.3241 43.2137 35.621C43.5107 35.918 43.9134 36.0848 44.3333 36.0848ZM50.6667 36.0848C51.0866 36.0848 51.4893 35.918 51.7863 35.621C52.0832 35.3241 52.25 34.9214 52.25 34.5014C52.25 34.0815 52.0832 33.6788 51.7863 33.3819C51.4893 33.0849 51.0866 32.9181 50.6667 32.9181C50.2467 32.9181 49.844 33.0849 49.5471 33.3819C49.2501 33.6788 49.0833 34.0815 49.0833 34.5014C49.0833 34.9214 49.2501 35.3241 49.5471 35.621C49.844 35.918 50.2467 36.0848 50.6667 36.0848ZM47.5 39.2514C47.9199 39.2514 48.3227 39.0846 48.6196 38.7877C48.9165 38.4908 49.0833 38.088 49.0833 37.6681C49.0833 37.2482 48.9165 36.8455 48.6196 36.5485C48.3227 36.2516 47.9199 36.0848 47.5 36.0848C47.0801 36.0848 46.6773 36.2516 46.3804 36.5485C46.0835 36.8455 45.9167 37.2482 45.9167 37.6681C45.9167 38.088 46.0835 38.4908 46.3804 38.7877C46.6773 39.0846 47.0801 39.2514 47.5 39.2514Z" fill="url(#paint1_linear_1_38760)"/>
<path d="M33.477 27.0014L33.6027 27.0848H33.7535H42.2465H42.3973L42.523 27.0014C43.879 26.1013 45.4538 25.5859 47.0796 25.5098C48.7053 25.4338 50.3213 25.8 51.7554 26.5696C53.1896 27.3391 54.3882 28.4832 55.2237 29.8799C56.0591 31.2767 56.5002 32.8738 56.5 34.5014V34.5014C56.5 37.0247 55.4666 40.9037 53.7742 44.1549C52.9302 45.7762 51.9373 47.2118 50.8545 48.2354C49.7695 49.2611 48.6367 49.8348 47.5 49.8348C46.1431 49.8348 44.792 49.015 43.5316 47.6006C42.2791 46.1951 41.1786 44.2695 40.3267 42.2257L40.1984 41.9181H39.8652H36.1348H35.8014L35.6733 42.2259C34.8221 44.2695 33.7217 46.1951 32.469 47.6006C31.2084 49.0149 29.8569 49.8348 28.5 49.8348C27.3633 49.8348 26.2305 49.2611 25.1455 48.2354C24.0627 47.2118 23.0698 45.7762 22.2258 44.1549C20.5334 40.9037 19.5 37.0247 19.5 34.5014V34.5014C19.4998 32.8738 19.9409 31.2767 20.7763 29.8799C21.6118 28.4832 22.8104 27.3391 24.2446 26.5696C25.6787 25.8 27.2947 25.4338 28.9204 25.5098C30.5462 25.5859 32.121 26.1013 33.477 27.0014ZM46.0269 29.8616L46.3804 30.2152L46.0269 29.8616C45.6362 30.2523 45.4167 30.7822 45.4167 31.3348C45.4167 31.8873 45.6362 32.4172 46.0269 32.8079L46.3804 32.4544L46.0269 32.8079C46.4176 33.1986 46.9475 33.4181 47.5 33.4181C48.0525 33.4181 48.5824 33.1986 48.9731 32.8079C49.3638 32.4172 49.5833 31.8873 49.5833 31.3348C49.5833 30.7822 49.3638 30.2523 48.9731 29.8616C48.5824 29.4709 48.0525 29.2514 47.5 29.2514C46.9475 29.2514 46.4176 29.4709 46.0269 29.8616ZM30.5833 32.4181V31.3348C30.5833 30.7822 30.3638 30.2523 29.9731 29.8616C29.5824 29.4709 29.0525 29.2514 28.5 29.2514C27.9475 29.2514 27.4176 29.4709 27.0269 29.8616C26.6362 30.2523 26.4167 30.7822 26.4167 31.3348V32.4181H25.3333C24.7808 32.4181 24.2509 32.6376 23.8602 33.0283C23.4695 33.419 23.25 33.9489 23.25 34.5014C23.25 35.054 23.4695 35.5839 23.8602 35.9746C24.2509 36.3653 24.7808 36.5848 25.3333 36.5848H26.4167V37.6681C26.4167 38.2206 26.6362 38.7506 27.0269 39.1413C27.4176 39.532 27.9475 39.7514 28.5 39.7514C29.0525 39.7514 29.5824 39.532 29.9731 39.1413C30.3638 38.7506 30.5833 38.2206 30.5833 37.6681V36.5848H31.6667C32.2192 36.5848 32.7491 36.3653 33.1398 35.9746C33.5305 35.5839 33.75 35.054 33.75 34.5014C33.75 33.9489 33.5305 33.419 33.1398 33.0283C32.7491 32.6376 32.2192 32.4181 31.6667 32.4181H30.5833ZM44.3333 36.5848C44.8859 36.5848 45.4158 36.3653 45.8065 35.9746C46.1972 35.5839 46.4167 35.054 46.4167 34.5014C46.4167 33.9489 46.1972 33.419 45.8065 33.0283C45.4158 32.6376 44.8859 32.4181 44.3333 32.4181C43.7808 32.4181 43.2509 32.6376 42.8602 33.0283C42.4695 33.419 42.25 33.9489 42.25 34.5014C42.25 35.054 42.4695 35.5839 42.8602 35.9746C43.2509 36.3653 43.7808 36.5848 44.3333 36.5848ZM50.6667 36.5848C51.2192 36.5848 51.7491 36.3653 52.1398 35.9746C52.5305 35.5839 52.75 35.054 52.75 34.5014C52.75 33.9489 52.5305 33.419 52.1398 33.0283C51.7491 32.6376 51.2192 32.4181 50.6667 32.4181C50.1141 32.4181 49.5842 32.6376 49.1935 33.0283C48.8028 33.419 48.5833 33.9489 48.5833 34.5014C48.5833 35.054 48.8028 35.5839 49.1935 35.9746C49.5842 36.3653 50.1141 36.5848 50.6667 36.5848ZM47.5 39.7514C48.0525 39.7514 48.5824 39.532 48.9731 39.1413C49.3638 38.7506 49.5833 38.2206 49.5833 37.6681C49.5833 37.1156 49.3638 36.5857 48.9731 36.195C48.5824 35.8043 48.0525 35.5848 47.5 35.5848C46.9475 35.5848 46.4176 35.8043 46.0269 36.195C45.6362 36.5857 45.4167 37.1156 45.4167 37.6681C45.4167 38.2206 45.6362 38.7506 46.0269 39.1413C46.4176 39.532 46.9475 39.7514 47.5 39.7514Z" stroke="#19C2EF" stroke-opacity="0.55"/>
<defs>
<linearGradient id="paint0_linear_1_38760" x1="37.4421" y1="75.5" x2="37.4421" y2="0.5" gradientUnits="userSpaceOnUse">
<stop stop-color="#0974F8"/>
<stop offset="1" stop-color="#4FB2FE"/>
</linearGradient>
<linearGradient id="paint1_linear_1_38760" x1="38" y1="25" x2="38" y2="50.3348" gradientUnits="userSpaceOnUse">
<stop stop-color="#0974F8"/>
<stop offset="1" stop-color="#4FB2FE"/>
</linearGradient>
</defs>
</svg>
