<svg width="75" height="76" viewBox="0 0 75 76" fill="none" xmlns="http://www.w3.org/2000/svg">
<path d="M74.5236 38C74.528 42.097 73.8674 46.167 72.5681 50.0476L69.579 49.0227C67.8989 53.9931 65.1182 58.5096 61.449 62.2276C57.7798 65.9456 53.3193 68.7668 48.4077 70.4758L49.4278 73.4974C41.6555 76.1675 33.2289 76.1675 25.4567 73.4974L26.4765 70.4756C21.565 68.7667 17.1045 65.9457 13.4354 62.2278C9.76635 58.5099 6.98571 53.9934 5.30573 49.0231L2.3163 50.048C-0.291387 42.2325 -0.291387 33.7675 2.3163 25.952L5.30573 26.9769C6.98943 21.9951 9.77877 17.4695 13.4599 13.7468C17.1411 10.0241 21.6163 7.20324 26.5424 5.50054L25.5291 2.47753C33.2573 -0.159233 41.6275 -0.15918 49.3557 2.47768L48.3423 5.50085C53.2685 7.2036 57.7436 10.0245 61.4248 13.7472C65.1059 17.4699 67.8953 21.9956 69.579 26.9773L72.5681 25.9524C73.8674 29.833 74.528 33.903 74.5236 38ZM37.4421 4.90405C30.9694 4.90407 24.642 6.84512 19.2602 10.4817C13.8784 14.1184 9.68373 19.2872 7.20674 25.3347C4.72976 31.3822 4.08167 38.0367 5.34443 44.4566C6.60719 50.8766 9.72409 56.7737 14.301 61.4022C18.8779 66.0308 24.7092 69.1828 31.0575 70.4599C37.4058 71.7369 43.986 71.0815 49.966 68.5765C55.946 66.0716 61.0572 61.8296 64.6532 56.3871C68.2493 50.9445 70.1687 44.5457 70.1687 38C70.1589 29.2254 66.7078 20.8131 60.5725 14.6086C54.4372 8.404 46.1187 4.91394 37.4421 4.90405Z" fill="url(#paint0_linear_1_39694)"/>
<g clip-path="url(#clip0_1_39694)">
<path d="M25.9098 43.1805V29.3609H22.4512C20.5512 29.3609 19 30.9121 19 32.8195V53.5488C19 55.4488 20.5512 57 22.4512 57H43.1805C45.0879 57 46.6316 55.4488 46.6316 53.5488V50.0977H32.8195C29.0047 50.0902 25.9098 46.9953 25.9098 43.1805ZM53.5488 19H32.8195C30.9121 19 29.3684 20.5512 29.3684 22.4512V43.1805C29.3684 45.0879 30.9195 46.6316 32.8195 46.6316H53.5488C55.4562 46.6316 57 45.0805 57 43.1805V22.4512C57 20.5512 55.4488 19 53.5488 19ZM51.8195 34.5488H44.9098V41.4586H41.4586V34.5488H34.5488V31.0977H41.4586V24.1805H44.9098V31.0902H51.8195V34.5488Z" fill="url(#paint1_linear_1_39694)"/>
<path d="M32.8186 50.5977H32.8195H46.1316V53.5488C46.1316 55.1734 44.811 56.5 43.1805 56.5H22.4512C20.8273 56.5 19.5 55.1727 19.5 53.5488V32.8195C19.5 31.1876 20.828 29.8609 22.4512 29.8609H25.4098V43.1805C25.4098 47.2716 28.7285 50.5897 32.8186 50.5977ZM51.8195 35.0488H52.3195V34.5488V31.0902V30.5902H51.8195H45.4098V24.1805V23.6805H44.9098H41.4586H40.9586V24.1805V30.5977H34.5488H34.0488V31.0977V34.5488V35.0488H34.5488H40.9586V41.4586V41.9586H41.4586H44.9098H45.4098V41.4586V35.0488H51.8195ZM32.8195 19.5H53.5488C55.1727 19.5 56.5 20.8273 56.5 22.4512V43.1805C56.5 44.805 55.1794 46.1316 53.5488 46.1316H32.8195C31.195 46.1316 29.8684 44.811 29.8684 43.1805V22.4512C29.8684 20.8266 31.189 19.5 32.8195 19.5Z" stroke="#19C2EF" stroke-opacity="0.55"/>
</g>
<defs>
<linearGradient id="paint0_linear_1_39694" x1="37.4421" y1="75.5" x2="37.4421" y2="0.5" gradientUnits="userSpaceOnUse">
<stop stop-color="#0974F8"/>
<stop offset="1" stop-color="#4FB2FE"/>
</linearGradient>
<linearGradient id="paint1_linear_1_39694" x1="38" y1="19" x2="38" y2="57" gradientUnits="userSpaceOnUse">
<stop stop-color="#0974F8"/>
<stop offset="1" stop-color="#4FB2FE"/>
</linearGradient>
<clipPath id="clip0_1_39694">
<rect width="38" height="38" fill="white" transform="translate(19 19)"/>
</clipPath>
</defs>
</svg>
