<svg width="75" height="76" viewBox="0 0 75 76" fill="none" xmlns="http://www.w3.org/2000/svg">
<path d="M74.5235 38C74.5279 42.097 73.8673 46.167 72.5681 50.0476L69.5789 49.0227C67.8988 53.9931 65.1181 58.5096 61.4489 62.2276C57.7798 65.9456 53.3192 68.7668 48.4076 70.4758L49.4277 73.4974C41.6555 76.1675 33.2289 76.1675 25.4566 73.4974L26.4764 70.4756C21.5649 68.7667 17.1044 65.9457 13.4354 62.2278C9.76629 58.5099 6.98565 53.9934 5.30567 49.0231L2.31624 50.048C-0.291448 42.2325 -0.291448 33.7675 2.31624 25.952L5.30567 26.9769C6.98936 21.9951 9.77871 17.4695 13.4599 13.7468C17.141 10.0241 21.6162 7.20324 26.5424 5.50054L25.529 2.47753C33.2572 -0.159233 41.6274 -0.15918 49.3556 2.47768L48.3423 5.50085C53.2684 7.2036 57.7436 10.0245 61.4247 13.7472C65.1059 17.4699 67.8952 21.9956 69.5789 26.9773L72.5681 25.9524C73.8673 29.833 74.5279 33.903 74.5235 38ZM37.442 4.90405C30.9693 4.90407 24.642 6.84512 19.2601 10.4817C13.8783 14.1184 9.68366 19.2872 7.20668 25.3347C4.72969 31.3822 4.08161 38.0367 5.34437 44.4566C6.60713 50.8766 9.72403 56.7737 14.3009 61.4022C18.8778 66.0308 24.7091 69.1828 31.0574 70.4599C37.4058 71.7369 43.986 71.0815 49.966 68.5765C55.9459 66.0716 61.0571 61.8296 64.6532 56.3871C68.2492 50.9445 70.1686 44.5457 70.1686 38C70.1588 29.2254 66.7077 20.8131 60.5724 14.6086C54.4371 8.404 46.1186 4.91394 37.442 4.90405Z" fill="url(#paint0_linear_1_40628)"/>
<path d="M26.5244 48.9501C26.7296 48.6883 27.0117 48.5356 27.3109 48.5356H54.4455C54.9414 48.5356 55.1893 49.2991 54.8388 49.7463L49.4786 56.5855C49.2734 56.8473 48.9913 57 48.692 57H21.5574C21.0616 57 20.8136 56.2365 21.1642 55.7892L26.5244 48.9501Z" fill="url(#paint1_linear_1_40628)"/>
<path d="M26.5244 23.4145C26.7381 23.1527 27.0202 23 27.3109 23H54.4455C54.9414 23 55.1893 23.7635 54.8388 24.2108L49.4786 31.0499C49.2734 31.3117 48.9913 31.4644 48.692 31.4644H21.5574C21.0616 31.4644 20.8136 30.7009 21.1642 30.2537L26.5244 23.4145Z" fill="url(#paint2_linear_1_40628)"/>
<path d="M49.4786 36.1006C49.2734 35.8388 48.9913 35.6861 48.692 35.6861H21.5574C21.0616 35.6861 20.8136 36.4496 21.1642 36.8968L26.5244 43.736C26.7296 43.9978 27.0117 44.1505 27.3109 44.1505H54.4455C54.9414 44.1505 55.1893 43.3869 54.8388 42.9397L49.4786 36.1006Z" fill="url(#paint3_linear_1_40628)"/>
<path d="M26.9179 49.2585C27.0449 49.0965 27.1903 49.0356 27.3109 49.0356H54.4332C54.445 49.0469 54.4671 49.0758 54.484 49.1277C54.5224 49.246 54.4999 49.3683 54.4453 49.4379L49.085 56.2771C48.9581 56.439 48.8126 56.5 48.692 56.5H21.5697C21.558 56.4886 21.5358 56.4598 21.519 56.4079C21.4805 56.2895 21.5031 56.1673 21.5577 56.0977L26.9179 49.2585ZM26.9145 23.7273C27.0544 23.5576 27.2027 23.5 27.3109 23.5H54.4332C54.445 23.5114 54.4671 23.5402 54.484 23.5921C54.5224 23.7105 54.4999 23.8327 54.4453 23.9023L49.085 30.7415C48.9581 30.9035 48.8126 30.9644 48.692 30.9644H21.5697C21.558 30.9531 21.5358 30.9243 21.519 30.8723C21.4805 30.754 21.5031 30.6317 21.5577 30.5621L26.9145 23.7273ZM48.692 36.1861C48.8126 36.1861 48.9581 36.247 49.085 36.409L54.4453 43.2482C54.4999 43.3178 54.5224 43.44 54.484 43.5584C54.4671 43.6103 54.445 43.6391 54.4332 43.6505H27.3109C27.1903 43.6505 27.0449 43.5895 26.9179 43.4276L21.5577 36.5884C21.5031 36.5187 21.4805 36.3965 21.519 36.2782C21.5358 36.2262 21.558 36.1974 21.5697 36.1861H48.692Z" stroke="#19C2EF" stroke-opacity="0.55"/>
<defs>
<linearGradient id="paint0_linear_1_40628" x1="37.442" y1="75.5" x2="37.442" y2="0.5" gradientUnits="userSpaceOnUse">
<stop stop-color="#0974F8"/>
<stop offset="1" stop-color="#4FB2FE"/>
</linearGradient>
<linearGradient id="paint1_linear_1_40628" x1="38.0015" y1="23" x2="38.0015" y2="57" gradientUnits="userSpaceOnUse">
<stop stop-color="#0974F8"/>
<stop offset="1" stop-color="#4FB2FE"/>
</linearGradient>
<linearGradient id="paint2_linear_1_40628" x1="38.0015" y1="23" x2="38.0015" y2="57" gradientUnits="userSpaceOnUse">
<stop stop-color="#0974F8"/>
<stop offset="1" stop-color="#4FB2FE"/>
</linearGradient>
<linearGradient id="paint3_linear_1_40628" x1="38.0015" y1="23" x2="38.0015" y2="57" gradientUnits="userSpaceOnUse">
<stop stop-color="#0974F8"/>
<stop offset="1" stop-color="#4FB2FE"/>
</linearGradient>
</defs>
</svg>
