<svg width="75" height="76" viewBox="0 0 75 76" fill="none" xmlns="http://www.w3.org/2000/svg">
<path d="M74.5235 38C74.5279 42.097 73.8673 46.167 72.5681 50.0476L69.5789 49.0227C67.8988 53.9931 65.1181 58.5096 61.4489 62.2276C57.7798 65.9456 53.3192 68.7668 48.4076 70.4758L49.4277 73.4974C41.6555 76.1675 33.2289 76.1675 25.4566 73.4974L26.4764 70.4756C21.5649 68.7667 17.1044 65.9457 13.4354 62.2278C9.76629 58.5099 6.98565 53.9934 5.30567 49.0231L2.31624 50.048C-0.291448 42.2325 -0.291448 33.7675 2.31624 25.952L5.30567 26.9769C6.98936 21.9951 9.77871 17.4695 13.4599 13.7468C17.141 10.0241 21.6162 7.20324 26.5424 5.50054L25.529 2.47753C33.2572 -0.159233 41.6274 -0.15918 49.3556 2.47768L48.3423 5.50085C53.2684 7.2036 57.7436 10.0245 61.4247 13.7472C65.1059 17.4699 67.8952 21.9956 69.5789 26.9773L72.5681 25.9524C73.8673 29.833 74.5279 33.903 74.5235 38ZM37.442 4.90405C30.9693 4.90407 24.642 6.84512 19.2601 10.4817C13.8783 14.1184 9.68366 19.2872 7.20668 25.3347C4.72969 31.3822 4.08161 38.0367 5.34437 44.4566C6.60713 50.8766 9.72403 56.7737 14.3009 61.4022C18.8778 66.0308 24.7091 69.1828 31.0574 70.4599C37.4058 71.7369 43.986 71.0815 49.966 68.5765C55.9459 66.0716 61.0571 61.8296 64.6532 56.3871C68.2492 50.9445 70.1686 44.5457 70.1686 38C70.1588 29.2254 66.7077 20.8131 60.5724 14.6086C54.4371 8.404 46.1186 4.91394 37.442 4.90405Z" fill="url(#paint0_linear_1_41562)"/>
<g clip-path="url(#clip0_1_41562)">
<path d="M56.5186 32.5459L38.8177 24.3979C38.2436 24.1334 37.632 24 37.0001 24C36.3682 24 35.7568 24.1334 35.1825 24.3979L17.4816 32.5459C17.189 32.6811 17.0001 32.9759 17.0001 33.298C17.0001 33.6201 17.189 33.9148 17.4816 34.0501L35.1825 42.198C35.7567 42.4625 36.3682 42.5966 37.0001 42.5966C37.632 42.5966 38.2436 42.4625 38.8179 42.198L52.7875 35.7679V42.243C52.2332 42.3055 51.8008 42.7773 51.8008 43.3475C51.8008 43.8443 52.1296 44.2744 52.5982 44.4114L51.6535 50.6451H56.0032L55.0586 44.4114C55.5271 44.2744 55.8558 43.8443 55.8558 43.3475C55.8558 42.7773 55.4235 42.3055 54.8691 42.243V34.8095L56.5188 34.0501C56.8113 33.9148 57.0003 33.6201 57.0003 33.298C57.0003 32.9759 56.8112 32.6811 56.5186 32.5459Z" fill="url(#paint1_linear_1_41562)"/>
<path d="M37.0001 45.5469C36.1215 45.5469 35.2702 45.3601 34.47 44.9919L25.8121 41.0062V48.9466C25.8121 50.6899 31.0797 52.9014 37.0001 52.9014C42.9206 52.9014 48.1883 50.6898 48.1883 48.9466V41.0062L39.53 44.9919C38.7302 45.3601 37.879 45.5469 37.0001 45.5469Z" fill="url(#paint2_linear_1_41562)"/>
<path d="M55.4217 50.1451H52.235L53.0925 44.4863L53.158 44.0542L52.7385 43.9315C52.4809 43.8562 52.3008 43.6199 52.3008 43.3475C52.3008 43.0351 52.5388 42.7742 52.8436 42.7398L53.2875 42.6898V42.243V35.7679V34.9873L52.5785 35.3137L38.6088 41.7439L38.6087 41.7439C38.1 41.9782 37.5598 42.0966 37.0001 42.0966C36.4405 42.0966 35.9003 41.9781 35.3917 41.7439L35.3916 41.7439L17.6914 33.5962C17.6913 33.5962 17.6913 33.5962 17.6912 33.5961C17.5752 33.5424 17.5001 33.4246 17.5001 33.298C17.5001 33.1714 17.5751 33.0536 17.6911 32.9999C17.6912 32.9998 17.6913 32.9998 17.6914 32.9997L35.3916 24.8521L35.3917 24.8521C35.9001 24.6179 36.4402 24.5 37.0001 24.5C37.5601 24.5 38.1003 24.6179 38.6085 24.852L38.6086 24.8521L56.3089 32.9997C56.4251 33.0535 56.5003 33.1715 56.5003 33.298C56.5003 33.4245 56.4252 33.5423 56.3092 33.5961C56.3092 33.5961 56.3091 33.5962 56.309 33.5962L54.66 34.3553L54.3691 34.4893V34.8095V42.243V42.6898L54.8131 42.7398C55.1179 42.7742 55.3558 43.0351 55.3558 43.3475C55.3558 43.62 55.1757 43.8562 54.9183 43.9315L54.4988 44.0542L54.5643 44.4863L55.4217 50.1451ZM34.2609 45.4461L34.261 45.4461C35.1265 45.8444 36.0492 46.0469 37.0001 46.0469C37.9514 46.0469 38.8739 45.8444 39.7391 45.4461L47.6883 41.7868V48.9466C47.6883 49.1368 47.5274 49.4719 46.9673 49.9041C46.434 50.3156 45.6402 50.7343 44.639 51.1095C42.6407 51.8583 39.9033 52.4014 37.0001 52.4014C34.0969 52.4014 31.3596 51.8583 29.3614 51.1095C28.3602 50.7344 27.5663 50.3157 27.0331 49.9042C26.4731 49.472 26.3121 49.1368 26.3121 48.9466V41.7868L34.2609 45.4461Z" stroke="#19C2EF" stroke-opacity="0.55"/>
</g>
<defs>
<linearGradient id="paint0_linear_1_41562" x1="37.442" y1="75.5" x2="37.442" y2="0.5" gradientUnits="userSpaceOnUse">
<stop stop-color="#0974F8"/>
<stop offset="1" stop-color="#4FB2FE"/>
</linearGradient>
<linearGradient id="paint1_linear_1_41562" x1="37.0002" y1="24" x2="37.0002" y2="52.9014" gradientUnits="userSpaceOnUse">
<stop stop-color="#0974F8"/>
<stop offset="1" stop-color="#4FB2FE"/>
</linearGradient>
<linearGradient id="paint2_linear_1_41562" x1="37.0002" y1="24" x2="37.0002" y2="52.9014" gradientUnits="userSpaceOnUse">
<stop stop-color="#0974F8"/>
<stop offset="1" stop-color="#4FB2FE"/>
</linearGradient>
<clipPath id="clip0_1_41562">
<rect width="40" height="40" fill="white" transform="translate(17 18)"/>
</clipPath>
</defs>
</svg>
