<svg width="75" height="76" viewBox="0 0 75 76" fill="none" xmlns="http://www.w3.org/2000/svg">
<path d="M74.5235 38C74.5279 42.097 73.8673 46.167 72.5681 50.0476L69.5789 49.0227C67.8988 53.9931 65.1181 58.5096 61.4489 62.2276C57.7798 65.9456 53.3192 68.7668 48.4076 70.4758L49.4277 73.4974C41.6555 76.1675 33.2289 76.1675 25.4566 73.4974L26.4764 70.4756C21.5649 68.7667 17.1044 65.9457 13.4354 62.2278C9.76629 58.5099 6.98565 53.9934 5.30567 49.0231L2.31624 50.048C-0.291448 42.2325 -0.291448 33.7675 2.31624 25.952L5.30567 26.9769C6.98936 21.9951 9.77871 17.4695 13.4599 13.7468C17.141 10.0241 21.6162 7.20324 26.5424 5.50054L25.529 2.47753C33.2572 -0.159233 41.6274 -0.15918 49.3556 2.47768L48.3423 5.50085C53.2684 7.2036 57.7436 10.0245 61.4247 13.7472C65.1059 17.4699 67.8952 21.9956 69.5789 26.9773L72.5681 25.9524C73.8673 29.833 74.5279 33.903 74.5235 38ZM37.442 4.90405C30.9693 4.90407 24.642 6.84512 19.2601 10.4817C13.8783 14.1184 9.68366 19.2872 7.20668 25.3347C4.72969 31.3822 4.08161 38.0367 5.34437 44.4566C6.60713 50.8766 9.72403 56.7737 14.3009 61.4022C18.8778 66.0308 24.7091 69.1828 31.0574 70.4599C37.4058 71.7369 43.986 71.0815 49.966 68.5765C55.9459 66.0716 61.0571 61.8296 64.6532 56.3871C68.2492 50.9445 70.1686 44.5457 70.1686 38C70.1588 29.2254 66.7077 20.8131 60.5724 14.6086C54.4371 8.404 46.1186 4.91394 37.442 4.90405Z" fill="url(#paint0_linear_1_42496)"/>
<path d="M38 21.375C42.4092 21.375 46.6379 23.1266 49.7556 26.2443C52.8734 29.3621 54.625 33.5908 54.625 38C54.625 42.4092 52.8734 46.6379 49.7556 49.7556C46.6379 52.8734 42.4092 54.625 38 54.625C33.5908 54.625 29.3621 52.8734 26.2443 49.7556C23.1266 46.6379 21.375 42.4092 21.375 38C21.375 33.5908 23.1266 29.3621 26.2443 26.2443C29.3621 23.1266 33.5908 21.375 38 21.375ZM38.8811 28.481C36.9479 28.481 35.4326 29.0296 34.3092 30.1269C33.1597 31.2241 32.6111 32.7394 32.6111 34.6726H35.5894C35.5894 33.5754 35.7984 32.7133 36.2425 32.1124C36.7389 31.3809 37.5487 31.0413 38.6982 31.0413C39.5865 31.0413 40.2919 31.2764 40.7882 31.7727C41.2585 32.2691 41.5198 32.9484 41.5198 33.8105C41.5198 34.4636 41.2846 35.0906 40.8144 35.6654L40.5009 36.0311C38.8028 37.5464 37.7839 38.6436 37.4443 39.349C37.0785 40.0544 36.9218 40.9165 36.9218 41.9093V42.275H39.9261V41.9093C39.9261 41.2822 40.0567 40.7336 40.318 40.2111C40.5531 39.7409 40.8928 39.2967 41.363 38.9049C42.617 37.8076 43.3746 37.1023 43.6098 36.841C44.2368 36.005 44.5764 34.9339 44.5764 33.6276C44.5764 32.034 44.0539 30.78 43.0089 29.8656C41.9639 28.9251 40.5793 28.481 38.8811 28.481ZM38.4109 43.5551C37.8782 43.5407 37.3615 43.738 36.974 44.1037C36.7827 44.284 36.6323 44.5032 36.5332 44.7466C36.434 44.99 36.3883 45.2519 36.3993 45.5145C36.3993 46.0892 36.5821 46.5595 36.974 46.9253C37.3586 47.2985 37.8749 47.5051 38.4109 47.5C38.9856 47.5 39.4559 47.3171 39.8477 46.9514C40.0431 46.7674 40.1976 46.5445 40.3011 46.2969C40.4047 46.0493 40.4549 45.7828 40.4486 45.5145C40.4536 45.2526 40.4053 44.9925 40.3064 44.75C40.2076 44.5074 40.0604 44.2875 39.8739 44.1037C39.4763 43.7373 38.9514 43.5405 38.4109 43.5551Z" fill="url(#paint1_linear_1_42496)"/>
<path d="M40.1905 47.3154L40.1889 47.3169C39.7002 47.773 39.1069 47.9995 38.4132 48C38.4124 48 38.4116 48 38.4109 48V47.5C37.8749 47.5051 37.3586 47.2985 36.974 46.9253L40.1905 47.3154ZM40.1905 47.3154C40.4369 47.0834 40.6318 46.8021 40.7624 46.4898C40.8917 46.1808 40.9551 45.8483 40.9487 45.5134C40.9535 45.1873 40.8926 44.8635 40.7695 44.5613C40.6451 44.2559 40.4597 43.979 40.2248 43.7476L40.2188 43.7417L40.2127 43.7361C39.7227 43.2844 39.0768 43.0404 38.4108 43.055C37.7509 43.0407 37.1116 43.2866 36.6312 43.7398C36.3877 43.9692 36.1963 44.2482 36.0701 44.558C35.9453 44.8645 35.887 45.194 35.8993 45.5247C35.9015 46.2119 36.1271 46.8169 36.6293 47.2874L40.1905 47.3154ZM45.0764 33.6276C45.0764 31.9147 44.5091 30.5153 43.3407 29.4916C42.1813 28.4495 40.6666 27.981 38.8811 27.981C36.8493 27.981 35.1985 28.5606 33.9619 29.7672C32.6907 30.9819 32.1111 32.6417 32.1111 34.6726V35.1726H32.6111H35.5894H36.0894V34.6726C36.0894 33.6268 36.2906 32.8885 36.6446 32.4096L36.6506 32.4015L36.6562 32.3931C37.0284 31.8446 37.65 31.5413 38.6982 31.5413C39.4967 31.5413 40.0557 31.7502 40.43 32.1216C40.7957 32.5103 41.0198 33.0581 41.0198 33.8105C41.0198 34.3334 40.8345 34.8495 40.4309 35.3445L40.143 35.6804C39.2992 36.4342 38.6152 37.0918 38.0957 37.6546C37.5809 38.2124 37.2009 38.705 36.997 39.1253C36.5844 39.9244 36.4218 40.8715 36.4218 41.9093V42.275V42.775H36.9218H39.9261H40.4261V42.275V41.9093C40.4261 41.3576 40.5397 40.8858 40.7652 40.4347C40.9697 40.0258 41.2661 39.6364 41.6831 39.289L41.6832 39.2891L41.6923 39.2812C42.9395 38.1898 43.7222 37.4635 43.9814 37.1755L43.9963 37.1589L44.0098 37.141C44.7121 36.2045 45.0764 35.0232 45.0764 33.6276ZM38 21.875C42.2766 21.875 46.3781 23.5739 49.4021 26.5979C52.4261 29.6219 54.125 33.7234 54.125 38C54.125 42.2766 52.4261 46.3781 49.4021 49.4021C46.3781 52.4261 42.2766 54.125 38 54.125C33.7234 54.125 29.6219 52.4261 26.5979 49.4021C23.5739 46.3781 21.875 42.2766 21.875 38C21.875 33.7234 23.5739 29.6219 26.5979 26.5979C29.6219 23.5739 33.7234 21.875 38 21.875Z" stroke="#19C2EF" stroke-opacity="0.55"/>
<defs>
<linearGradient id="paint0_linear_1_42496" x1="37.442" y1="75.5" x2="37.442" y2="0.5" gradientUnits="userSpaceOnUse">
<stop stop-color="#0974F8"/>
<stop offset="1" stop-color="#4FB2FE"/>
</linearGradient>
<linearGradient id="paint1_linear_1_42496" x1="38" y1="21.375" x2="38" y2="54.625" gradientUnits="userSpaceOnUse">
<stop stop-color="#0974F8"/>
<stop offset="1" stop-color="#4FB2FE"/>
</linearGradient>
</defs>
</svg>
